<svg id="Layer_1" data-name="Layer 1" xmlns="http://www.w3.org/2000/svg" viewBox="0 0 277.47 100.36"><defs><style>.cls-1{fill:#ff4500;}.cls-2{font-size:33.63px;font-family:Montserrat-Black, Montserrat;font-weight:800;}.cls-3{letter-spacing:-0.01em;}.cls-4{letter-spacing:-0.02em;}.cls-5{letter-spacing:-0.02em;}.cls-6{letter-spacing:-0.02em;}.cls-7{letter-spacing:0em;}</style></defs><title>logo</title><rect class="cls-1" x="22.47" y="71.36" width="255" height="29"/><text class="cls-2" transform="translate(24.6 28.59)">THE<tspan x="0" y="29">BLIND TIGER</tspan><tspan x="0" y="58">BR</tspan><tspan class="cls-3" x="51.05" y="58">E</tspan><tspan class="cls-4" x="73.35" y="58">W</tspan><tspan x="113.4" y="58">ING </tspan><tspan class="cls-5" x="188.16" y="58">C</tspan><tspan class="cls-6" x="212.67" y="58">O</tspan><tspan class="cls-7" x="240.52" y="58">.</tspan></text><circle cx="16.69" cy="6.81" r="2.72"/><circle cx="9.7" cy="6.81" r="2.72"/><circle cx="16.69" cy="20.78" r="2.72"/><circle cx="9.7" cy="20.78" r="2.72"/><circle cx="2.72" cy="20.78" r="2.72"/><circle cx="9.7" cy="48.73" r="2.72"/><circle cx="16.69" cy="55.72" r="2.72"/><circle cx="9.7" cy="55.72" r="2.72"/><circle cx="2.72" cy="48.73" r="2.72"/><circle cx="9.7" cy="62.71" r="2.72"/><circle cx="16.69" cy="69.69" r="2.72"/><circle cx="16.69" cy="76.68" r="2.72"/><circle cx="9.7" cy="76.68" r="2.72"/><circle cx="16.69" cy="83.67" r="2.72"/><circle cx="9.7" cy="83.67" r="2.72"/><circle cx="16.69" cy="90.65" r="2.72"/><circle cx="9.7" cy="90.65" r="2.72"/><circle cx="16.69" cy="97.64" r="2.72"/><circle cx="9.7" cy="97.64" r="2.72"/><circle cx="2.72" cy="97.64" r="2.72"/></svg>