<svg id="Layer_1" data-name="Layer 1" xmlns="http://www.w3.org/2000/svg" xmlns:xlink="http://www.w3.org/1999/xlink" viewBox="0 0 1600.5 1200"><defs><style>.cls-1{fill:none;}.cls-2{clip-path:url(#clip-path);}.cls-16,.cls-3{fill:#ff623e;}.cls-4,.cls-9{fill:#e3e7eb;}.cls-15,.cls-5{fill:#ffdc00;}.cls-13,.cls-16,.cls-5,.cls-6,.cls-7,.cls-8,.cls-9{fill-rule:evenodd;}.cls-14,.cls-6{fill:#fff;}.cls-10,.cls-7{fill:#00c9f3;}.cls-12,.cls-8{fill:#00448d;}.cls-11,.cls-13{fill:#1a61b2;}</style><clipPath id="clip-path" transform="translate(0.45 -0.68)"><rect id="Shape" class="cls-1" x="-0.45" y="-0.32" width="1600" height="1201"/></clipPath></defs><title>main-background</title><g id="Kander"><g class="cls-2"><g id="Patterns"><g id="Kander-2" data-name="Kander"><g id="Module"><rect id="Shape-2" data-name="Shape" class="cls-3" y="200" width="200" height="200"/><rect class="cls-4" x="1400" y="800" width="200" height="200"/><polygon class="cls-5" points="1400 800 1600 1000 1400 1000 1400 800"/><path class="cls-5" d="M498.55,826.68a75,75,0,1,1-75,75A75,75,0,0,1,498.55,826.68Z" transform="translate(0.45 -0.68)"/><polygon class="cls-6" points="200 800 399.38 800 600 1000 200 1000 200 800"/><polygon class="cls-7" points="400 800 200 1000 400 1000 400 800"/><path class="cls-8" d="M298.55,856.68h1a45,45,0,1,1,0,90h-1a45,45,0,0,1,0-90Z" transform="translate(0.45 -0.68)"/><path class="cls-9" d="M1298.55,26.68a75,75,0,1,1-75,75A75,75,0,0,1,1298.55,26.68Z" transform="translate(0.45 -0.68)"/><polygon class="cls-7" points="1000 0 1199.38 0 1400 200 1000 200 1000 0"/><polygon class="cls-6" points="1200 0 1000 200 1200 200 1200 0"/><path class="cls-8" d="M1098.55,56.68h1a45,45,0,0,1,0,90h-1a45,45,0,1,1,0-90Z" transform="translate(0.45 -0.68)"/><rect class="cls-10" x="600" y="800" width="200" height="400"/><rect class="cls-11" x="700" y="900" width="100" height="100.25"/><rect class="cls-12" x="600" y="1000" width="100" height="100.25"/><polygon class="cls-13" points="1600 200 1600 400 1400 400 1400 200 1600 200"/><rect class="cls-3" x="1400" y="300" width="100" height="100"/><rect class="cls-14" y="800" width="200" height="200"/><polygon class="cls-5" points="100 833 143.07 848.67 165.98 888.37 158.02 933.5 122.92 962.96 77.08 962.96 41.98 933.5 34.02 888.37 56.93 848.67 100 833"/><rect class="cls-12" x="1400" y="1000" width="200" height="200"/><polygon class="cls-7" points="1500 1033 1543.07 1048.67 1565.98 1088.37 1558.02 1133.5 1522.91 1162.96 1477.09 1162.96 1441.98 1133.5 1434.02 1088.37 1456.93 1048.67 1500 1033"/><rect class="cls-14" x="800" width="200" height="200"/><polygon class="cls-8" points="900 33 943.07 48.67 965.98 88.37 958.02 133.5 922.91 162.96 877.09 162.96 841.98 133.5 834.02 88.37 856.93 48.67 900 33"/><rect class="cls-11" x="800" y="800" width="200" height="200"/><rect class="cls-3" x="800" y="900" width="200" height="100"/><rect class="cls-15" x="600" width="200" height="200"/><rect class="cls-15" x="1000" y="800" width="200" height="200"/><polygon class="cls-9" points="1200 800 1000 1000 1200 1000 1200 800"/><rect class="cls-11" x="400" y="400" width="200" height="200"/><rect class="cls-3" x="400" y="400" width="101" height="200"/><rect class="cls-15" x="400" y="1000" width="200" height="200"/><rect class="cls-14" x="1000" y="400" width="200" height="200"/><path class="cls-16" d="M1049.55,500.68a50,50,0,1,1-50,50A50,50,0,0,1,1049.55,500.68Z" transform="translate(0.45 -0.68)"/><rect class="cls-10" x="1100" y="400" width="100" height="100"/><rect class="cls-14" x="800" y="600" width="200" height="200"/><path class="cls-9" d="M899.55,655.68a45,45,0,1,1-45,45A45,45,0,0,1,899.55,655.68Z" transform="translate(0.45 -0.68)"/><rect class="cls-10" x="1000" y="600" width="200" height="200"/><rect class="cls-14" x="1030" y="630" width="140" height="140"/><polygon class="cls-8" points="1100 700 1000 600 1100 600 1100 700"/><rect class="cls-10" y="400" width="200" height="200"/><rect class="cls-14" x="30" y="430" width="140" height="140"/><polygon class="cls-8" points="100 500 0 600 0 500 100 500"/><rect class="cls-10" x="400" width="200" height="200"/><rect class="cls-14" x="430" y="30" width="140" height="140"/><polygon class="cls-8" points="500 100 600 0 600 100 500 100"/><polygon class="cls-13" points="1400 600 1400 800 1200 800 1200 600 1400 600"/><polygon class="cls-16" points="1200 800 1400 600 1400 800 1200 800"/><path class="cls-6" d="M1374.55,702.68a75,75,0,1,1-75-75A75,75,0,0,1,1374.55,702.68Z" transform="translate(0.45 -0.68)"/><polygon class="cls-6" points="0 600 200 600 200 800 0 800 0 600"/><polygon class="cls-9" points="200 600 0 800 200 800 200 600"/><polygon class="cls-8" points="200 400 400 600 200 600 200 400"/><rect class="cls-10" x="300" y="400" width="100" height="100"/><polygon class="cls-8" points="400 200 600 400 400 400 400 200"/><polygon class="cls-16" points="200 600 400 800 200 800 200 600"/><polygon class="cls-5" points="1000 600 800 400 1000 400 1000 600"/><rect class="cls-10" x="800" y="500" width="100" height="100"/><polygon class="cls-9" points="1000 500 900 400 1000 400 1000 500"/><polygon class="cls-5" points="400 0 200 200 200 0 400 0"/><rect class="cls-4" x="300" y="100" width="100" height="100"/><polygon class="cls-9" points="300 0 200 100 200 0 300 0"/><polygon class="cls-5" points="1600 600 1400 800 1400 600 1600 600"/><rect class="cls-10" x="1500" y="700" width="100" height="100"/><polygon class="cls-9" points="1500 600 1400 700 1400 600 1500 600"/><polygon class="cls-9" points="800 400 600 600 800 600 800 400"/><rect class="cls-15" x="600" y="400" width="100" height="100"/><polygon class="cls-5" points="1400 1000 1200 1200 1400 1200 1400 1000"/><rect class="cls-12" x="1200" y="1000" width="100" height="100"/><polygon class="cls-13" points="1400 1000 1200 800 1400 800 1400 1000"/><polygon class="cls-13" points="200 200 0 0 200 0 200 200"/><rect class="cls-11" x="600" y="600" width="200" height="200"/><polygon id="Triangle" class="cls-6" points="700.5 735.33 632 600 769 600 700.5 735.33"/><polygon class="cls-16" points="750 689.55 700 600 800 600 750 689.55"/><polygon class="cls-16" points="650 689.55 600 600 700 600 650 689.55"/><rect class="cls-12" y="1000" width="200" height="200"/><polygon class="cls-7" points="135 1099.5 0 1168 0 1031 135 1099.5"/><polygon class="cls-9" points="90 1050 0 1100 0 1000 90 1050"/><polygon class="cls-9" points="90 1149 0 1199 0 1099 90 1149"/><rect class="cls-12" x="1400" width="200" height="200"/><polygon class="cls-7" points="1464.5 100 1600.5 31.5 1600.5 168.5 1464.5 100"/><polygon class="cls-9" points="1510 150 1600 100 1600 200 1510 150"/><polygon class="cls-9" points="1510 50 1600 0 1600 100 1510 50"/><rect class="cls-4" x="200" y="200" width="200" height="200"/><polygon class="cls-5" points="300.5 336.68 232 200 369 200 300.5 336.68"/><polygon class="cls-5" points="900 1000 1000 1200 800 1200 900 1000"/><path class="cls-9" d="M1299.55,400.68a100,100,0,1,1-100,100A100,100,0,0,1,1299.55,400.68Z" transform="translate(0.45 -0.68)"/><path class="cls-6" d="M1299.55,450.68a50,50,0,1,1-50,50A50,50,0,0,1,1299.55,450.68Z" transform="translate(0.45 -0.68)"/><path class="cls-16" d="M699.55,200.68a100,100,0,1,1-100,100A100,100,0,0,1,699.55,200.68Z" transform="translate(0.45 -0.68)"/><path class="cls-13" d="M699.55,250.68a50,50,0,1,1-50,50A50,50,0,0,1,699.55,250.68Z" transform="translate(0.45 -0.68)"/><path class="cls-7" d="M1099.55,1000.68a100,100,0,1,1-100,100A100,100,0,0,1,1099.55,1000.68Z" transform="translate(0.45 -0.68)"/><path class="cls-5" d="M1099.55,200.68a100,100,0,1,1-100,100A100,100,0,0,1,1099.55,200.68Z" transform="translate(0.45 -0.68)"/><rect class="cls-14" x="1100" y="300" width="100" height="100"/><path class="cls-9" d="M299.55,1000.68a100,100,0,1,1-100,100A100,100,0,0,1,299.55,1000.68Z" transform="translate(0.45 -0.68)"/><rect class="cls-11" x="300" y="1100" width="100" height="100"/><polygon class="cls-16" points="900 300 800 200 900 200 900 300"/><polygon class="cls-16" points="900 300 1000 400 900 400 900 300"/><polygon class="cls-16" points="900 300 800 400 800 300 900 300"/><polygon class="cls-16" points="900 300 1000 200 1000 300 900 300"/><polygon class="cls-7" points="1500 500 1400 400 1500 400 1500 500"/><polygon class="cls-7" points="1500 500 1600 600 1500 600 1500 500"/><polygon class="cls-7" points="1500 500 1400 600 1400 500 1500 500"/><polygon class="cls-7" points="1500 500 1600 400 1600 500 1500 500"/><polygon class="cls-5" points="500 700 400 600 500 600 500 700"/><polygon class="cls-5" points="500 600 400 700 400 600 500 600"/><polygon class="cls-5" points="600 700 500 800 500 700 600 700"/><polygon class="cls-5" points="600 800 500 700 600 700 600 800"/><polygon class="cls-5" points="1300 300 1200 200 1300 200 1300 300"/><polygon class="cls-5" points="1300 200 1200 300 1200 200 1300 200"/><polygon class="cls-7" points="1400 300 1300 400 1300 300 1400 300"/><polygon class="cls-7" points="1400 400 1300 300 1400 300 1400 400"/></g></g></g></g></g></svg>