<?xml version="1.0" encoding="utf-8"?>
<!-- Generator: Adobe Illustrator 24.0.2, SVG Export Plug-In . SVG Version: 6.00 Build 0)  -->
<svg version="1.1" id="Layer_1" xmlns="http://www.w3.org/2000/svg" xmlns:xlink="http://www.w3.org/1999/xlink" x="0px" y="0px"
	 viewBox="0 0 360 360" style="enable-background:new 0 0 360 360;" xml:space="preserve">
<style type="text/css">
	.st0{fill:#FF4500;}
	.st1{fill:#ED1C24;}
	.st2{fill:#FFFFFF;}
</style>
<path class="st0" d="M286.9-219c4.2-1.1,19.5-10.7,22.5-6.4c1.1-0.1,2.3-0.3,3.4-0.4c2-0.4,3.9-0.8,5.9-1.2c1.6-0.6,3.1-1.4,4.2-2.6
	c1.6-3.6,2.6-7.4,3-11.3c0.4-1.8,0.1-3.8,0.2-5.7c-3.8-2.2-7.4-4.6-10.4-7.7c-3.2-3.2-5.5-6.9-7.3-11c-3.6-3.6-6.9-7.6-9.6-12
	c-3.2,2.1-7.8,2.4-11,0.2c-1.7-1.1-2.9-3.1-3.6-5.1c-0.6,0.1-1.2,0.2-1.7,0.2c-0.3,0.2-0.6,0.3-0.9,0.5c-2.4,1.2-5.3,0.7-6.4-2
	c-1-2.4,0-5.1,0.9-7.4l0.2-0.5c0.5-1.3,1.1-2.7,1.8-4.1c-1.9-1.4-3.6-3.3-5-5.3c-4.7-6.9-7-17-6-25.2c0.6-5,2.9-10.1,6.8-13.5
	l-0.1-0.4c-1.1-2.7-2.1-5.4-2.7-8.3c-0.7-3.4-1.1-6.8-1.4-10.2c-0.7-7.2-0.5-14.6,0.4-21.8c1.7-13.5,6.1-26.8,13.9-38.1
	c-2.2-2.7-4-5.7-3-9.3c0.4-1.6,1.4-3.2,2.8-4.2c0.8-0.5,1.7-0.6,2.5-1l0.2-0.1c0.3-0.2,0.1-0.2-0.1-1.1c-0.8-3.7-0.1-7.4,4-8.6
	c3.9-1.2,7.6,1.3,9.9,4.3c6-4.3,14-6.5,21-8.4c7.8-2.4,15.9-3.7,24.1-4.6c16.8-1.7,33.2-0.3,49.7,2.7c1.3,0.2,2,1.1,2.2,2.1
	c7.8,0.4,15.6,0.9,23.3,1.4c2.8,0.1,4.4,2.9,3.1,5.5c-0.2,0.5-0.5,1-0.8,1.4l0.3-0.1c2.3-0.7,4.9-1.1,7.2,0.1c2.9,1.5,4,4.9,3.4,7.9
	c-0.2,0.8-0.4,1.5-0.7,2.3c0.7,0,1.3,0,1.9,0c3.4,0.5,5.9,3,6.1,6.5c0.3,5.2-3.1,10.5-7.1,14.3c0.6,1.2,0.8,2.6,0.6,4
	c-0.5,2.8-2.5,4.4-4.9,5.6c1,3.2,1.4,6.4,1.2,9.8c-0.1,1.1-1.1,2.1-2.1,2.3c3.9,10.7,5.8,22.1,7.2,33.3c1,7.9,1.5,15.9,1.5,23.9
	c0,3.6,0,7.2-0.2,10.8l0,1.4c-0.2,3.9-0.2,8-0.9,11.9c2.4,4.1,3.4,9.1,3.7,13.7c0.5,5.7-0.3,11.4-2.1,16.8c-1,3.1-2.4,6.1-4,8.8
	c-1.5,8.1-4.3,15.8-9.3,22.3c-3.3,4.2-7.3,7.4-11.8,9.7c-2.7,2-5.7,3.6-8.8,4.9c0.5,2,0.9,3.6,1.4,4.2c0.2,0,0.4,0.1,0.6,0.1
	c0,0.4,0.3,0.7,0.7,1c2.1,1.6,8.5,2.2,10.4,3.2c1.8-3.1,6.2-1.9,8.9-0.6c4,1.5,8.6,2.5,11.8,5.2c38.3,16,59.9,53.9,68.7,93h20.1
	v-360h-360v360h12C198.1-168.4,237.3-204.3,286.9-219z"/>
<path class="st1" d="M406.5-220.9c0.1,0.2,0.1,0.3,0.2,0.5c1,0.8,2.1,1.1,3.2,1.2C408.4-219.8,407.1-220.4,406.5-220.9z"/>
<path class="st2" d="M413.7-209.3c1.4,0.1,2.5,2.2,0.8,3c-9.3,3.9-11.8-11.5-13.6-17.5c-0.4-0.9-0.7-1.9-1-2.9
	c-6.7,1.8-13.8,1.6-20.6,0.4c-7.1-1.2-14.1-3.6-20.6-6.5c-7.5-2.3-14.9-5.2-21.9-8.5c-2.2-1-4.4-2.1-6.6-3.2c0,0.1-0.1,0.2-0.1,0.4
	c1.4,8-0.5,16.5-4.6,23.5c-4.3,9.8-15.6,7.6-6.7-2.4c-12.2,1.8-18,7.8-11.2,18.7c9.6,31.9,131.3,34.3,111.2-11.9
	c-0.7-0.4-5.4-1.7-8.9-3.1c-1.2-0.1-2.3-0.4-3.2-1.2C408.3-216.6,409.4-210.5,413.7-209.3z"/>
<path class="st2" d="M321.5-226.7c-0.7,0.2-1.4,0.4-2.1,0.7c0.7-0.1,1.3-0.1,1.9-0.2C321.3-226.4,321.4-226.6,321.5-226.7z"/>
<path class="st2" d="M322.9-229.7c-1.1,1.2-2.6,2-4.2,2.6c1.1-0.2,2.2-0.4,3.2-0.6C322.3-228.3,322.6-229,322.9-229.7z"/>
<path class="st2" d="M312.8-225.8c-1.1,0.1-2.3,0.3-3.4,0.4c0.1,0.1,0.1,0.2,0.2,0.3C310.7-225.4,311.7-225.6,312.8-225.8z"/>
<path d="M312.8-225.8c2.1-0.3,4.1-0.6,5.9-1.2C316.7-226.7,314.7-226.3,312.8-225.8z"/>
<path d="M299.9-222.5c2.6-1.9,6-2.5,9.5-2.9c-3-4.3-18.3,5.3-22.5,6.4c-49.6,14.7-88.8,50.6-108.1,97h2.7
	C202.4-172.8,247-205.4,299.9-222.5z"/>
<path d="M438-215c-3.3-2.8-7.9-3.7-11.8-5.2c-2.7-1.3-7.1-2.5-8.9,0.6c-2-0.9-8.3-1.6-10.4-3.2c-0.4-0.3-0.7-0.6-0.7-1
	c-0.1,0-0.3,0-0.6-0.1c-0.5-0.7-0.9-2.2-1.4-4.2c-0.5,0.2-0.9,0.4-1.4,0.6c0.8,2.2,1.8,4.4,3.2,6.3l0,0c0.3,0.3,0.5,0.6,0.8,0.8
	c-0.1-0.2-0.1-0.3-0.2-0.5c0.6,0.5,1.9,1.1,3.5,1.7c3.1,0.3,6.8-0.9,9.7,0.3c2.3-2.1,6.5,1,9.3,1.6c40.8,14.2,66.3,52.6,76,95.3h1.8
	C497.9-161.1,476.3-199,438-215z"/>
<path d="M327.2-246.1c-0.4-0.2-0.7-0.4-1.1-0.6c-0.1,1.9,0.2,3.9-0.2,5.7c-0.4,3.9-1.4,7.7-3,11.3c0.9-0.9,1.6-2.1,2.1-3.6
	C326.3-237.4,326.2-241.9,327.2-246.1z"/>
<path d="M399.9-226.7c0.3,1,0.7,1.9,1,2.9c1.8,6,4.2,21.5,13.6,17.5c1.6-0.8,0.6-2.9-0.8-3c-4.3-1.2-5.3-7.3-6.9-11.1
	c-0.3-0.2-0.6-0.5-0.8-0.8l0,0c-1.4-1.9-2.4-4.1-3.2-6.3c0,0-0.1,0-0.1,0C401.8-227.2,400.9-226.9,399.9-226.7z"/>
<path d="M428.9-217.3c-2.8-0.6-7-3.7-9.3-1.6c-3-1.2-6.6,0-9.7-0.3c3.5,1.3,8.2,2.7,8.9,3.1c20.1,46.2-101.6,43.8-111.2,11.9
	c-6.8-11-0.9-17,11.2-18.7c-8.9,10,2.4,12.2,6.7,2.4c4.1-7,6-15.5,4.6-23.5c0-0.1,0.1-0.2,0.1-0.4c-1-0.5-2-1.1-3.1-1.6
	c-1,4.2-0.9,8.7-2.2,12.8c-0.5,1.5-1.2,2.7-2.1,3.6c-0.3,0.7-0.6,1.3-1,2c-1.1,0.2-2.2,0.4-3.2,0.6c-1.8,0.6-3.8,1-5.9,1.2
	c-1.1,0.2-2.1,0.5-3.2,0.7c-0.1-0.1-0.1-0.2-0.2-0.3c-3.5,0.4-6.9,1.1-9.5,2.9C247-205.4,202.4-172.8,181.6-122h323.4
	C495.3-164.7,469.7-203.1,428.9-217.3z M321.5-226.7c-0.1,0.1-0.2,0.3-0.3,0.5c-0.6,0-1.2,0.1-1.9,0.2
	C320.1-226.3,320.8-226.5,321.5-226.7z"/>
<path class="st2" d="M294-332.8c-0.2-0.4-0.6-0.8-0.8-1.2l-0.1,0.1c-0.2,0.3-0.7,0-0.6-0.3l0.1-0.3c-1.1-1.2-2.4-2.1-3.6-3.1
	c-2.8-0.5-6,0-7.9,1.2c-4.4,2.6-6.4,8-6.5,13c0,5.8,1.7,12.3,4.8,17.3c1.4,2.2,3.2,4.2,5.6,5.1c2.4,1,5,0.7,7.4,1.6
	c1.6,0.6,2.6,2.4,1.6,4c0,0.1-0.1,0.2-0.2,0.3l0.7,1c0.5,0.7,1,1.4,1.5,2.1c1.3,1.4,2.6,2.8,3.8,4.2c1.1,1.2,2.1,2.4,3.2,3.6
	c-0.2-1.1-0.4-2.2-0.6-3.3c-0.8-4.7-1.5-9.4-2-14.2c-0.5-4.8-0.8-9.6-1-14.4c-0.1-3.4-0.6-7.5,0.2-11c-0.4,0-0.8-0.1-1.2-0.2
	C295.8-328.3,295.2-330.6,294-332.8z M291.9-316.5c-2.1-1.4-3.6-3.8-5-5.9l-0.1-0.2c-0.7-1-1.2-2-2.1-2.8l-0.2-0.2
	c-0.3-0.2-0.6-0.5-1-0.6c-0.7-0.2-2.1,0.1-2.4,0.9l0,0.1c-0.1,0.5-0.7,0.4-0.7-0.1c0-3,2.9-5,5.7-4.4c1.9,0.3,3.5,1.5,5,2.7l0.7,0.6
	c1.8,1.4,3.9,3,5,5C298.4-318.5,295.1-314.4,291.9-316.5z"/>
<path class="st2" d="M366.7-268.4c0.6,0.2,1.2,0.5,1.9,0.7c1-0.3,2-0.7,3-1c4.3-2,8.2-5,12.4-6.8c8.6-3.5,18.6-2.7,26.8,1.4
	c1.6,0.6,3.2,1.3,4.9,1.8c1,0.3,2.1,0.7,3.3,0.8c2.3-2.5,4.1-5.6,5.4-8.8c-2.1-0.1-4.3-0.8-6.1-1.6c-3.5-1.5-6.6-3.7-10.2-5
	c-7.6-2.7-15.7-1.5-23.2,0.7c-8.1,2.3-15.7,5.9-23.8,8.2c-2.7,0.7-5.6,1.4-8.6,1.9c0.5,0.6,1,1.2,1.4,1.8
	C358-272.1,362.3-270,366.7-268.4z"/>
<path class="st2" d="M428.6-307.1c0.2-3.3,0.8-6.7,1-10c0.2-3.8,0.4-7.5,0.4-11.3c0.1-7.9-0.2-15.7-0.9-23.5
	c-1.2-14.3-4.4-28.2-6.3-42.4c-0.7,0.6-1.7,0.9-2.8,0.3l-0.1,0l-0.6-0.3c0,0-0.1,0-0.1,0c-3.9,0.4-7.9-0.1-11.7-1.3
	c-3.9-1.2-7.5-3.1-10.8-5.6c-0.6,3.1-0.9,6.3-0.9,9.5c0,2-2.1,3-3.8,2.2c-7.4-3.8-14.5-8.1-21.2-13c-0.8,4-1.6,8-2.4,12.1
	c-0.3,1.5-2.3,2.2-3.6,1.4c-5-2.9-9.4-6.8-12.9-11.3c-0.7,1.4-1.4,2.7-2.1,4.1l-1.1,2c-1.1,2-2.5,4.2-4.8,4.8
	c-2.5,0.7-4.5-0.9-5.3-3.1c-0.2-0.7-0.5-1.4-0.7-2.1c-2.1,4.8-4.4,9.4-7.2,13.9c-4,6.7-8.8,12.7-13.6,18.7c-1.4,1.9-4,0.1-4.2-1.7
	c-0.1-1.1-0.2-2.1-0.3-3.2c-2.8,5.7-5.7,11.2-8.9,16.7l0.5,1.8c1.3,5.3,2.4,10.6,3.6,15.9c0.1,0.4,0.1,0.9,0,1.4c0,0,0.1,0,0.1,0.1
	c2.6,2.2,13.2,26.9,17.2,32.4c4.2,5.6,8.8,10.9,14,15.6c0.1,0,0.2,0.1,0.3,0.1c7-1.8,13.3-5.2,18.4-10.7c4.5-4.8,8.2-10.3,13.6-14.3
	c2.6-1.9,5.7-3.3,8.9-3.7c4.4-0.6,8.8,0.7,13.2,0.4c4.2-0.3,8-1.1,12,0.7c3.4,1.5,5.9,4.2,8.5,6.8c3.6,3.6,7.5,6.6,12,8.6
	c0.7,0,1.3,0.2,1.7,0.7c0.2,0.1,0.5,0.2,0.7,0.3c0.4-0.5,1.1-1,1.8-1.6c-0.8-2.6-1.9-5.2-2.7-7.8C427.3-305,427.8-306.2,428.6-307.1
	z M334.5-340.8c-0.2,0.2-0.5,0.1-0.5-0.1c-0.8-7.2,2.2-15.7,7.2-20.8c4.6-4.7,16.5-9.2,19.7-0.6c0.6,1.6-0.7,3.9-2.4,4.2
	c-2.8,0.6-5.3-0.7-8.1-0.4c-2.2,0.2-4.6,0.9-6.4,2.3C339.1-352.2,338-345.7,334.5-340.8z M365.2-336.2c-0.2,1.6-0.5,2.7-1.6,3.9
	c-1.8,1.9-5.1,0.9-5.8-1.4l0-0.1c-0.8-3.1-4.3-5.1-7.3-4c-3.6,1.3-3.5,5.1-6,7.3c-0.3,0.3-0.7,0.3-1,0.1c-2.7-1.3-2.2-5.2-1.3-7.5
	c1.4-2.9,3.8-5.6,6.9-6.6c5.7-1.9,11.8,1.1,14.5,6.1C364.5-338,365.4-337.3,365.2-336.2z M396.7-315.6l-0.1,0
	c-3.9,1.6-10.7,3.4-14.1,0c-2.8-2.9,0.9-8,4.4-5.7c1.8,1.2,5.5,0.3,7.5-0.2l0.1,0c2.1-0.6,5-2.7,4.1-5.3c-0.8-2.3-4.1-2.8-6.2-2.9
	c-3.1-0.1-6.2,0.6-9.3,0.8c-0.5,0-0.7-0.7-0.3-0.9c5.7-3.3,20.1-6.6,21,3.7C404.4-321.2,400.9-317.3,396.7-315.6z M417.5-331.2
	c-0.3,1.2-1.6,2.4-2.9,2.2l-0.3,0c-0.2,0-0.3,0-0.5-0.1c-1.2-0.3-2.3-1.6-2.2-2.9l0-0.4c0.2-3.3-0.2-7.1-4.1-7.9
	c-3.3-0.7-5.2,2.5-5.2,5.5c0,0.5-0.6,0.9-1.1,0.6c-2.4-1.4-2.8-4.3-1.9-6.9c1.1-3.1,4-5,7.3-5.2
	C414.5-346.6,419.3-338.1,417.5-331.2z M423.9-347.9L423.9-347.9l-0.4,0.4c-1.2,1.1-2.9,1.6-4.5,1.2c-3.5-1-4-3.8-5.2-6.7
	c-0.8-2-2.2-3.7-3.9-5c-4-3-10.5-3.9-15.2-2.5c-0.2,0.1-0.6-0.2-0.4-0.5c0.9-1.2,1.4-2.1,2.6-3.1c1.3-0.9,2.7-1.6,4.1-2.1
	c3-1.1,6.5-1,9.6,0c3.1,1,5.9,2.8,8.1,5.2c1,1.1,1.9,2.3,2.6,3.6c0.4,0.7,0.8,2.1,1.3,2.9C425-353.3,426-350.1,423.9-347.9z"/>
<path d="M289.2-294.1c-12.9,0-19.2-9.9-19.3-25.6c0-10.4,4.1-17.6,12.5-21.4c-3-41.2-0.7-67.2,6.8-77.9
	c11.3-16.1,40.9-23.6,67.4-23.6s54,20.6,63.7,33.7c8.2,11,12.6,60.9,12.6,94.6c0,4,1.3,10.1,2.1,15.8c1.2,0,2.3,0.8,2.2,2.3
	c-0.3,4.7-0.6,9.3-0.9,14c-0.1,1.4-1.3,10.7-1.6,13.2c-0.2,1.3-0.4,2.6-0.6,3.9c1.6-2.8,3-5.7,4-8.8c1.8-5.4,2.6-11.2,2.1-16.8
	c-0.4-4.6-1.4-9.6-3.7-13.7c0.7-3.9,0.7-7.9,0.9-11.9l0-1.4c0.1-3.6,0.2-7.2,0.2-10.8c0-8-0.5-16-1.5-23.9
	c-1.4-11.2-3.4-22.6-7.2-33.3c1-0.2,2-1.2,2.1-2.3c0.3-3.4-0.2-6.6-1.2-9.8c2.4-1.1,4.4-2.8,4.9-5.6c0.2-1.4,0-2.8-0.6-4
	c4-3.7,7.3-9,7.1-14.3c-0.2-3.5-2.7-6-6.1-6.5c-0.7-0.1-1.3-0.1-1.9,0c0.3-0.7,0.6-1.5,0.7-2.3c0.6-3.1-0.5-6.4-3.4-7.9
	c-2.3-1.2-4.8-0.8-7.2-0.1l-0.3,0.1c0.3-0.5,0.6-0.9,0.8-1.4c1.3-2.5-0.3-5.3-3.1-5.5c-7.8-0.4-15.6-1-23.3-1.4
	c-0.3-1-1-1.8-2.2-2.1c-16.5-2.9-32.9-4.3-49.7-2.7c-8.2,0.8-16.3,2.2-24.1,4.6c-7,1.9-15,4.1-21,8.4c-2.3-3-6-5.5-9.9-4.3
	c-4.1,1.3-4.8,4.9-4,8.6c0.2,0.9,0.5,0.9,0.1,1.1l-0.2,0.1c-0.8,0.4-1.7,0.5-2.5,1c-1.4,1-2.4,2.5-2.8,4.2c-0.9,3.6,0.8,6.6,3,9.3
	c-7.8,11.3-12.2,24.6-13.9,38.1c-0.9,7.2-1.1,14.6-0.4,21.8c0.3,3.4,0.7,6.9,1.4,10.2c0.6,2.9,1.6,5.6,2.7,8.3l0.1,0.4
	c-3.8,3.4-6.2,8.5-6.8,13.5c-1,8.2,1.3,18.3,6,25.2c1.4,2,3,3.8,5,5.3c-0.7,1.4-1.3,2.8-1.8,4.1l-0.2,0.5c-0.9,2.3-1.9,5-0.9,7.4
	c1.1,2.7,4,3.2,6.4,2c0.3-0.2,0.6-0.3,0.9-0.5c0.6,0,1.1,0,1.7-0.2c0.7,2.1,1.9,4,3.6,5.1c3.2,2.2,7.8,2,11-0.2
	c2.7,4.3,6,8.4,9.6,12c-1.1-2.6-2-5.3-2.7-8C300.2-279.3,294.7-286.2,289.2-294.1z"/>
<path d="M291.8-326.5l-0.7-0.6c-1.5-1.2-3.1-2.3-5-2.7c-2.9-0.5-5.8,1.4-5.7,4.4c0,0.5,0.7,0.6,0.7,0.1l0-0.1
	c0.3-0.8,1.7-1.1,2.4-0.9c0.4,0.1,0.7,0.3,1,0.6l0.2,0.2c0.9,0.7,1.4,1.8,2.1,2.8l0.1,0.2c1.4,2.1,2.8,4.5,5,5.9c3.2,2.1,6.5-2,5-5
	C295.8-323.5,293.7-325,291.8-326.5z"/>
<path d="M304.5-278.4c-0.2-0.6-0.5-1.3-0.6-2c-0.3-1.2-0.5-2.5-0.8-3.8c-1.1-1.2-2.1-2.4-3.2-3.6c-1.3-1.4-2.6-2.8-3.8-4.2
	c-0.5-0.7-1-1.5-1.5-2.1l-0.7-1c0.1-0.1,0.2-0.2,0.2-0.3c1-1.6,0-3.4-1.6-4c-2.4-0.9-5-0.6-7.4-1.6c-2.4-1-4.3-2.9-5.6-5.1
	c-3-5-4.8-11.5-4.8-17.3c0-5,2.1-10.4,6.5-13c1.9-1.2,5.1-1.7,7.9-1.2c1.2,1,2.5,2,3.6,3.1l-0.1,0.3c-0.1,0.3,0.4,0.6,0.6,0.3
	l0.1-0.1c0.3,0.4,0.6,0.8,0.8,1.2c1.3,2.2,1.8,4.5,4.4,5.4c0.4,0.1,0.8,0.2,1.2,0.2c0.1-0.5,0.3-1.1,0.4-1.6
	c0.8-2.2,2.7-3.6,4.7-3.7c1.1,0,2.2,0.4,3.3,1.2c0.1-0.5,0-1,0-1.4c-1.2-5.3-2.3-10.6-3.6-15.9l-0.5-1.8c3.2-5.5,6.1-11,8.9-16.7
	c0,1.1,0.1,2.1,0.3,3.2c0.2,1.8,2.7,3.6,4.2,1.7c4.8-6.1,9.6-12.1,13.6-18.7c2.7-4.5,5-9.2,7.2-13.9c0.2,0.7,0.5,1.4,0.7,2.1
	c0.8,2.2,2.9,3.8,5.3,3.1c2.3-0.6,3.7-2.8,4.8-4.8l1.1-2c0.7-1.4,1.4-2.7,2.1-4.1c3.6,4.5,7.9,8.4,12.9,11.3
	c1.3,0.7,3.3,0.1,3.6-1.4c0.8-4,1.6-8,2.4-12.1c6.7,4.9,13.8,9.2,21.2,13c1.7,0.8,3.8-0.2,3.8-2.2c0-3.2,0.3-6.4,0.9-9.5
	c3.3,2.5,6.9,4.3,10.8,5.6c3.7,1.2,7.8,1.7,11.7,1.3c0,0,0,0,0.1,0l0.6,0.3l0.1,0c1.1,0.6,2.1,0.3,2.8-0.3c1.9,14.2,5,28.1,6.3,42.4
	c0.7,7.8,1,15.6,0.9,23.5c0,3.8-0.2,7.5-0.4,11.3c-0.2,3.3-0.8,6.7-1,10c-0.8,0.9-1.3,2.2-0.9,3.6c0.8,2.7,1.9,5.2,2.7,7.8
	c1.2-0.9,2.4-1.7,2.8-2.1c0.5-0.4,1.1-0.6,1.8-0.6c-0.9-5.7-2.1-11.8-2.1-15.8c0-33.7-4.4-83.6-12.6-94.6
	c-9.7-13.1-37.2-33.7-63.7-33.7s-56.1,7.5-67.4,23.6c-7.5,10.7-9.8,36.7-6.8,77.9c-8.4,3.8-12.5,10.9-12.5,21.4
	c0.1,15.7,6.4,25.6,19.3,25.6c5.5,7.9,11,14.8,16.5,20.7c-0.1-0.5-0.3-1.1-0.4-1.6C305-276.1,304.7-277.2,304.5-278.4z"/>
<path d="M383-329.7c-0.4,0.2-0.2,0.9,0.3,0.9c3.1-0.2,6.1-0.9,9.3-0.8c2.1,0.1,5.4,0.5,6.2,2.9c0.9,2.6-2,4.7-4.1,5.3l-0.1,0
	c-2,0.6-5.7,1.4-7.5,0.2c-3.5-2.3-7.2,2.8-4.4,5.7c3.4,3.4,10.2,1.6,14.1,0l0.1,0c4.1-1.7,7.7-5.7,7.2-10.4
	C403.1-336.3,388.7-332.9,383-329.7z"/>
<path d="M406.7-346.3c-3.3,0.1-6.2,2.1-7.3,5.2c-0.9,2.5-0.5,5.4,1.9,6.9c0.5,0.3,1.1-0.1,1.1-0.6c0-2.9,1.9-6.1,5.2-5.5
	c3.9,0.8,4.3,4.6,4.1,7.9l0,0.4c-0.1,1.3,1,2.6,2.2,2.9c0.1,0,0.3,0.1,0.5,0.1l0.3,0c1.3,0.1,2.6-1,2.9-2.2
	C419.3-338.1,414.5-346.6,406.7-346.3z"/>
<path d="M363.5-338.3c-2.8-5-8.9-8-14.5-6.1c-3.1,1-5.5,3.6-6.9,6.6c-0.9,2.2-1.4,6.2,1.3,7.5c0.4,0.1,0.7,0.1,1-0.1
	c2.5-2.2,2.4-6,6-7.3c3.1-1.1,6.5,0.9,7.3,4l0,0.1c0.7,2.4,4.1,3.4,5.8,1.4c1.2-1.3,1.4-2.3,1.6-3.9
	C365.4-337.3,364.5-338,363.5-338.3z"/>
<path d="M344.1-356.1c1.8-1.4,4.2-2.1,6.4-2.3c2.8-0.2,5.3,1,8.1,0.4c1.7-0.3,3-2.6,2.4-4.2c-3.2-8.6-15.1-4.1-19.7,0.6
	c-5,5.1-8.1,13.6-7.2,20.8c0,0.3,0.3,0.4,0.5,0.1C338-345.7,339.1-352.2,344.1-356.1z"/>
<path d="M422.6-354.7c-0.5-0.8-0.9-2.2-1.3-2.9c-0.7-1.3-1.6-2.5-2.6-3.6c-2.1-2.4-5-4.2-8.1-5.2c-3.1-0.9-6.5-1-9.6,0
	c-1.4,0.5-2.8,1.2-4.1,2.1c-1.2,0.9-1.7,1.9-2.6,3.1c-0.2,0.2,0.1,0.6,0.4,0.5c4.8-1.4,11.3-0.5,15.2,2.5c1.7,1.3,3.1,3,3.9,5
	c1.2,2.9,1.7,5.7,5.2,6.7c1.6,0.5,3.3,0,4.5-1.2l0.3-0.3l0.1-0.1C426-350.1,425-353.3,422.6-354.7z"/>
<path d="M327.3-249.9c0.5-0.1,0.9-0.1,1.3-0.1c0.1-0.2,0.2-0.3,0.2-0.5c0.6-0.9,1.2-1.8,1.9-2.6c-3.3-1.9-6.5-4-9.7-6.4
	c-0.3,0.2-0.6,0.4-0.9,0.5c-3.6,1.4-6.9-2-9.3-4.2l-0.1-0.1c-0.7-0.7-1.5-1.4-2.2-2.1c1.8,4.1,4.1,7.9,7.3,11c3,3,6.6,5.5,10.4,7.7
	c0.1-1.1,0.3-2.2,0.9-3.1C326.9-250,327.1-250.3,327.3-249.9z"/>
<path d="M401.7-240.1c0.9,3.6,1.7,8.5,2.5,12c3.1-1.3,6.1-2.9,8.8-4.9c4.5-2.3,8.5-5.5,11.8-9.7c5.1-6.5,7.9-14.3,9.3-22.3
	C427.1-253.1,414.9-244.6,401.7-240.1z"/>
<path d="M358.7-232.8c6.5,2.9,13.6,5.3,20.6,6.5c6.8,1.2,13.9,1.4,20.6-0.4c-1.3-4-2.2-8.3-2-12.3c-2.4,0.7-4.8,1.2-7.2,1.6
	c-14.3,2.3-30.3,0.5-42-8c-6.3-1.8-12.3-4.4-18.1-7.7c-0.7,0.8-1.3,1.6-1.9,2.6c-0.1,0.2-0.2,0.3-0.2,0.5c2.7,0.2,2.3,3.1,1.7,5.6
	c2.2,1.1,4.4,2.2,6.6,3.2C343.8-238,351.2-235.1,358.7-232.8z"/>
<path d="M328.6-250c-0.4,0-0.8,0-1.3,0.1c-0.1-0.4-0.4-0.1-0.3,0.2c-0.6,0.9-0.8,2-0.9,3.1c0.3,0.2,0.7,0.4,1.1,0.6
	C327.5-247.4,327.9-248.8,328.6-250z"/>
<path d="M398.7-239.2c0.9,2.4,1.8,5.1,2.9,8c-0.3-1.3-0.6-2.7-0.7-4c0.5,2.6,1.1,5.2,2,7.7c0.5-0.2,0.9-0.4,1.4-0.6
	c-0.8-3.5-1.6-8.4-2.5-12C400.7-239.8,399.7-239.5,398.7-239.2z"/>
<path d="M328.6-250c-0.6,1.3-1.1,2.6-1.4,3.9c1,0.6,2,1.1,3.1,1.6C330.8-246.9,331.2-249.8,328.6-250z"/>
<path d="M401.6-231.2c-1-2.9-2-5.6-2.9-8c-0.2,0.1-0.5,0.1-0.7,0.2c-0.2,4.1,0.6,8.3,2,12.3c0.9-0.2,1.8-0.5,2.7-0.9
	c0,0,0.1,0,0.1,0c-0.9-2.5-1.5-5.1-2-7.7C401-233.9,401.2-232.5,401.6-231.2z"/>
<path d="M364.1-262.3c19.4,0.8,26,4.3,31.3,15.1c7.8-2.2,15.2-5.6,21.4-10.5c6.6-5.2,11.4-12.8,13.5-20.9c1.1-4.2,1.4-8.5,1-12.8
	c-0.1-1.5-0.5-2.9-0.9-4.3c-0.7,0.6-1.4,1.1-1.8,1.6c-0.2-0.1-0.5-0.2-0.7-0.3c-0.4-0.5-1-0.7-1.7-0.7c-4.4-2.1-8.4-5-12-8.6
	c-2.5-2.6-5.1-5.3-8.5-6.8c-4-1.8-7.9-1-12-0.7c-4.4,0.3-8.8-1-13.2-0.4c-3.2,0.5-6.3,1.8-8.9,3.7c-5.3,3.9-9,9.5-13.6,14.3
	c-5.1,5.4-11.4,8.9-18.4,10.7c-0.1,0-0.2-0.1-0.3-0.1c-5.1-4.7-9.8-10-14-15.6c-4-5.5-14.6-30.2-17.2-32.4c0,0-0.1,0-0.1-0.1
	c-0.2,1.4-1.1,2.8-2.6,3.1c-2,0.3-3.9,1.2-5.9,1c-0.8,3.5-0.2,7.6-0.2,11c0.1,4.8,0.5,9.6,1,14.4c0.5,4.7,1.2,9.5,2,14.2
	c0.2,1.1,0.4,2.2,0.6,3.3c1.2,1.4,2.5,2.9,3.7,4.3c2.2,2.5,4.5,4.8,6.8,7.1c2.2,2.2,5,4,7.1,6.3c1.8,2,2.4,5.4,0.2,7
	c3.2,2.4,6.4,4.5,9.7,6.4C338.4-262.1,352.9-262.4,364.1-262.3z M361-278.1c8.1-2.2,15.7-5.8,23.8-8.2c7.5-2.1,15.7-3.4,23.2-0.7
	c3.6,1.3,6.7,3.5,10.2,5c1.8,0.8,4,1.5,6.1,1.6c-1.4,3.3-3.1,6.3-5.4,8.8c-1.2-0.1-2.2-0.5-3.3-0.8c-1.6-0.5-3.2-1.2-4.9-1.8
	c-8.2-4.1-18.2-4.9-26.8-1.4c-4.3,1.7-8.2,4.8-12.4,6.8c-1,0.4-2,0.7-3,1c-0.7-0.2-1.3-0.5-1.9-0.7c-4.5-1.7-8.7-3.8-12.9-6.1
	c-0.4-0.6-0.9-1.2-1.4-1.8C355.5-276.7,358.4-277.4,361-278.1z"/>
<path d="M339.1-255.6c-0.2-0.3,0.2-0.5,0.4-0.3c7.9,6.4,17,9.3,27,10.7c9.4,1.3,19.4,0.7,28.9-1.9c-5.3-10.8-11.8-14.3-31.3-15.1
	c-11.2-0.1-25.6,0.1-33.4,9.2c5.8,3.3,11.8,5.9,18.1,7.7C345.1-248.1,341.7-251.5,339.1-255.6z"/>
<path d="M310.6-263.3L310.6-263.3c2.5,2.3,5.7,5.7,9.4,4.3c0.4-0.1,0.7-0.3,0.9-0.5c-5.2-3.9-10.2-8.5-15.2-13.9
	c0.7,2.7,1.6,5.4,2.7,8C309.2-264.6,309.9-263.9,310.6-263.3z"/>
<path d="M399.1-244.6c-0.8,0.2-1.5,0.4-2.3,0.7c0.4,1,0.9,2.1,1.3,3.3C398.3-242,398.6-243.3,399.1-244.6z"/>
<path d="M436.3-282.1c0.3-4.7,0.6-9.3,0.9-14c0.1-1.5-1-2.2-2.2-2.3c0.7,4.3,1.1,8.4,0.6,11.3c-3.2,18.9-14.6,35.5-35.8,42.3
	c0.7,0.5,1.3,2.3,1.9,4.7c13.3-4.4,25.4-12.9,32.5-24.9c0.2-1.3,0.4-2.6,0.6-3.9C435.1-271.4,436.2-280.7,436.3-282.1z"/>
<path d="M396.8-244c-5.8,1.5-12.2,2.3-19.4,2.3c-10.3,0-19.8-1.2-28.7-3.8c11.7,8.5,27.7,10.3,42,8c2.4-0.4,4.8-0.9,7.2-1.6
	c0-0.6,0.1-1.1,0.2-1.7C397.7-241.8,397.2-242.9,396.8-244z"/>
<path d="M398.1-240.7c0.2,0.5,0.4,1,0.6,1.5c1-0.3,2-0.6,3-0.9c-0.6-2.4-1.2-4.3-1.9-4.7c-0.2,0.1-0.4,0.1-0.7,0.2
	C398.6-243.3,398.3-242,398.1-240.7z"/>
<path d="M398-239c0.2-0.1,0.5-0.1,0.7-0.2c-0.2-0.5-0.4-1-0.6-1.5C398.1-240.1,398-239.6,398-239z"/>
<path d="M433.2-297.8c-0.4,0.4-1.7,1.2-2.8,2.1c0.4,1.4,0.7,2.8,0.9,4.3c0.4,4.3,0,8.6-1,12.8c-2.1,8.1-6.9,15.7-13.5,20.9
	c-6.2,4.9-13.6,8.4-21.4,10.5c0.5,1,1,2.1,1.5,3.2c0.8-0.2,1.6-0.4,2.3-0.7c0-0.1,0.1-0.2,0.1-0.3c0.2-0.1,0.4-0.1,0.6,0.1
	c21.3-6.7,32.6-23.3,35.8-42.3c0.5-2.9,0-7-0.6-11.3C434.4-298.4,433.7-298.2,433.2-297.8z"/>
<path d="M320.8-266.5c-2.1-2.3-4.9-4.1-7.1-6.3c-2.3-2.3-4.6-4.6-6.8-7.1c-1.2-1.4-2.5-2.9-3.7-4.3c0.2,1.3,0.5,2.5,0.8,3.8
	c0.1,0.7,0.4,1.4,0.6,2c0.2,1.2,0.5,2.3,0.8,3.5c0.1,0.5,0.3,1.1,0.4,1.6c5,5.4,10.1,10,15.2,13.9
	C323.1-261.1,322.6-264.5,320.8-266.5z"/>
<path d="M300.1-328.7c-0.2,0.5-0.3,1-0.4,1.6c2,0.2,3.9-0.7,5.9-1c1.5-0.2,2.4-1.6,2.6-3.1c-1-0.8-2.2-1.2-3.3-1.2
	C302.8-332.3,300.9-330.9,300.1-328.7z"/>
<path d="M396.8-244c-0.5-1.1-1-2.2-1.5-3.2c-9.4,2.6-19.5,3.2-28.9,1.9c-10-1.4-19.1-4.3-27-10.7c-0.2-0.2-0.6,0-0.4,0.3
	c2.7,4.1,6,7.5,9.7,10.2c8.9,2.6,18.3,3.8,28.7,3.8C384.6-241.6,391-242.5,396.8-244z"/>
<path d="M399.2-244.9c0,0.1-0.1,0.2-0.1,0.3c0.2-0.1,0.4-0.1,0.7-0.2C399.6-245,399.4-245,399.2-244.9z"/>
<g>
	<title>peep-11</title>
	<desc>Created with Sketch.</desc>
	<g id="Introduction_2_">
		<g id="variations_2_" transform="translate(-366.000000, -1082.000000)">
			<g id="images_2_" transform="translate(126.000000, 110.000000)">
				<g id="a-person_x2F_bust_2_" transform="translate(240.000000, 972.000000)">
					<g id="facial-hair_x2F__x2A_-None_2_" transform="translate(104.577451, 109.479380)">
					</g>
					<g id="accessories_x2F__x2A_-None_1_" transform="translate(88.521127, 88.978474)">
					</g>
				</g>
			</g>
		</g>
	</g>
</g>
<path class="st0" d="M360,0H0v360h25.2c1.6-6.8,3.3-13.6,5.2-20.3C35.7,320.8,42,302,51,284.6c5.7-11.1,12.6-21.6,20.9-30.8
	c-3.2-2.7-5.9-6-7.9-9.7c-6.2-10.9-6-23.9-1.3-35.4c2.5-6.1,5.8-11.6,9.8-16.8c4-5.2,8.7-9.7,13.4-14.3c1.6-1.6,3-3.1,4.2-4.8
	c-2-3.4-3.7-6.8-5.1-10.6c-10.4-28.8-0.6-61.9,15.1-86.8c7.1-11.3,27.9-36.4,45-42.8c10.6-3.9,29.5-5.2,39.7-0.8
	c19.5-5.1,57.3-5.1,78.1,34.1c3.5,6.6,6,13.6,8.8,20.5c2.9,7.1,5.6,14.2,8.2,21.4c5.2,14.3,10,28.9,13.7,43.7
	c1.7,6.9,2.9,14.4,0.6,21.3c-1.6,4.7-4.4,8.8-7.6,12.6c-3.2,3.8-6.8,7.2-10.2,10.9c-2.9,3.2-6,6.8-7.5,10.9
	c-4.2,11.7,6.3,20.8,11.6,30c5.9,10.3,7.8,23.2,3.8,34.4c8.1,14.7,12.8,31.3,16.9,47.5l0.2,0.6c3.3,13.3,6.3,26.8,9,40.3H360V0z"/>
<path class="st2" d="M294.2,316.7c-3-13-6.7-26.8-12.3-39.6c-5.1,9.6-12.9,17.4-24.2,16.1c-1.3-0.2-9.6-4.4-12.6-6.7
	c-0.5-0.4-1-0.8-1.6-1.2c-1.3-1-0.8-3.4,0.5-4.2c4.4-2.4,5.8-6.5,4.5-10.7l-7.4-3.7c-2.2-1.1-4.7-2.8-7.2-3.2
	c-2.3-0.4-4.7,1.3-6.7,2.4l-0.1,0.1c-4.8,2.5-9.6,5-14.3,7.6c-2.3,1.3-4.6,2.6-6.9,3.8c-1.9,1.1-4,2.6-6.2,3.2
	c-0.9,0.7-2,0.6-2.9,0.1c0.4,2.5,0.4,5.1,0.5,7.6c0.2,3.4,0.2,6.8,0.2,10.3l0,0.2c0.1,7.6,0.2,15.1,0.3,22.7c0,12.9,0,25.8-0.1,38.7
	h5.2c-0.1,0-0.2,0-0.3,0c-0.7-0.2-1.3-0.5-1.8-1c-0.5-0.5-0.8-1.1-1-1.8l-0.1-0.5c-0.1-0.7-0.1-1.1,0.1-2.1c0.1-0.4,0.4-1,0.5-1.2
	c0.6-1,1.5-1.7,2.7-2.1c0.6-0.2,1.2-0.2,1.7-0.1c0.4,0,0.8,0.1,1.1,0.3c0.4,0.1,0.7,0.3,1,0.6c0.3,0.2,0.6,0.5,0.8,0.8
	c0.4,0.4,0.6,0.9,0.8,1.5l0.2,1.2l-0.2,1.2l-0.4,1c-0.1,0.2-0.2,0.3-0.4,0.5c-0.2,0.3-0.5,0.6-0.8,0.8c-0.2,0.2-0.5,0.4-0.7,0.5
	c-0.5,0.3-1,0.5-1.5,0.7h74c-0.1-4.4,0.2-8.8,0-13.2c-0.1-4.1-0.5-8.5,0.4-12.5c0-0.1,0.3-0.2,0.3,0c0.9,2,1.5,4.1,2,6.3
	c2.4-3,4.8-6.1,7.4-9c0.2-0.3,0.6,0.1,0.5,0.4c-2.2,4.3-4.7,8.6-7.1,12.8c0.2,1.2,0.4,2.3,0.6,3.5c0.8,3.9,1.7,7.8,2.4,11.8h18.5
	c-2.6-13.9-5.7-27.7-8.9-41.5L294.2,316.7z M207.1,312.5c-0.2,0.5-0.5,1-0.9,1.4c-0.4,0.4-0.9,0.7-1.4,0.9c-0.5,0.3-1,0.4-1.5,0.4
	l-0.1,0c-0.8,0-1.5-0.2-2.2-0.6l-0.9-0.7c-0.5-0.5-0.9-1.2-1.1-1.9l-0.2-1.2c0-0.6,0.1-1.2,0.4-1.7c0.2-0.5,0.5-1,0.9-1.4
	c0.4-0.4,0.9-0.7,1.4-0.9c0.5-0.3,1-0.4,1.5-0.4l0.1,0c0.7,0,1.4,0.2,2,0.5l0.1,0.1l0.9,0.7c0.5,0.5,0.9,1.2,1.1,1.9l0.2,1.2
	C207.5,311.4,207.4,311.9,207.1,312.5z M264.4,323.8c-1.7,1.2-3.9,0.6-5.8,0.5c-2.1-0.1-4.1-0.3-6.2-0.3c-4-0.2-8-0.3-12.1-0.3
	c-4,0-8,0-12,0.1c-4.1,0.1-8.3,0.4-12.4,0c-0.6-0.1-0.7-0.8-0.1-1c3.8-1.3,8.1-1.8,12.1-2.3c3.9-0.5,7.8-0.9,11.7-1.1
	c4.5-0.3,9-0.4,13.5-0.5c1.7,0,3.3,0,5,0l1.2,0c2.1,0,3.9-0.2,5.5,1.3C266.1,321.3,265.6,323.1,264.4,323.8z"/>
<path class="st2" d="M222.2,241.8c-1-2.1-1.7-4.2-2.3-6.4c-1.2,3.1-2.5,6.2-3.8,9.3c-4.6,11-9.5,21.8-14.5,32.6l-0.1,0.2
	c1.1-0.8,2.2-1.5,3.1-2.2c2.2-1.6,4.4-3.2,6.7-4.7c4.7-3.2,9.5-6.3,14.4-9.1l1.3-0.8c2.4-1.4,4.7-2.5,7.6-2.1
	c2.1,0.3,4.2,1.3,6.1,2.3c-2.6-2-5.5-3.8-8-5.8C228.3,251.5,224.6,247,222.2,241.8z"/>
<path class="st2" d="M192.9,316.1c0.2-6.8,0.5-13.6,0.8-20.3c0.1-3,0.3-6,0.5-9.1l0.1-1.3c-0.7-0.8-1.1-1.4-1.8-2.3
	c-2-0.2-3.8-1.4-5.7-2.4c-2.8-1.5-5.7-2.9-8.5-4.4l-2.8-1.5l-3.5-1.8c-0.3,3.4-1,6.7-2.5,9.8c-1.5,3.1-4,6.1-7,7.7
	c-1.8,1-4.9,1.3-6.7,0c-4.1,1.4-9.2-0.2-13.1-2.1c-0.8-0.4-1.6-0.8-2.4-1.3c-1.5,1.4-3.1,2.8-4.6,4.2c-1.6,1.5-4.9,1.1-5.3-1.4
	c-0.5-3.3-0.8-6.6-0.9-10c-1-0.8-2-1.5-3-2.3c-0.4-0.3-0.9-0.7-1.3-1c-8.2-0.2-22.7-3.1-28.7-8.9c-2-1.9-3.7-4-5.1-6.4
	c-0.6-0.1-1.1-0.1-1.7-0.2c-4.8-0.3-9.3-1.9-13.3-4.3c-23,25.7-34.1,60.5-42.4,93.3c-0.8,3.2-1.6,6.4-2.3,9.7H70
	c0.1-0.2,0.3-0.3,0.5-0.1c0,0,0.1,0.1,0.1,0.1h12.8c0.5-2.2,1.1-4.4,1.9-6.6c0.1-0.3,0.6-0.4,0.7,0c0.5,2.2,0.7,4.4,0.9,6.6h105
	c0-1.1,0-2.1,0.1-3.2C192.3,343.2,192.4,329.7,192.9,316.1z"/>
<path class="st2" d="M218.7,225.6C218.7,225.6,218.7,225.6,218.7,225.6c-4.5-0.2-5.2-6.1-5.5-9.7c-5.9,0.5-12.2-0.2-18-2.1
	c-10.7-1.5-22.4-5.1-34.9-10.7c1.7,3,3.1,6.2,4.1,9.5c2.1,6.6,2.9,13.6,3.7,20.5c0.1,0.7,0.2,1.3,0.2,2c1.7,2.1,3.4,4.2,5.1,6.2
	c3.7,4.4,7.7,8.7,11.9,12.8c2,2,4.1,4,6.2,5.9c0.9,0.8,1.7,1.6,2.6,2.3l0.9,0.8c0.5,0.5,1.2,0.9,1.5,1.5c0.2,0.3,0.2,1.2,0.3,1.4
	c0.6,1.3-0.5,3.3-2.3,2.7l0.1-0.1c0.3-0.2,0.1-0.2-0.6,0c-0.5,0-0.9-0.1-1.3-0.3l-0.1-0.1c-0.6-0.3-1.1-0.8-1.6-1.2l-0.1-0.1
	c-1.1-0.9-2.1-1.9-3.2-2.9c-2.2-2-4.3-4.1-6.4-6.2c-4.1-4.3-8-8.7-11.7-13.3c0,0,0-0.1-0.1-0.1c0.6,5,1.1,10,1.7,15
	c0.3,2.6,0.6,5.2,0.7,7.8c2.5,1.2,4.9,2.6,7.4,3.8c3.1,1.6,6.1,3.1,9.2,4.7c2,1,5,2,6.5,3.9c0.1-0.4,0.2-0.8,0.3-1.3
	c-0.1-0.6-0.1-1.3,0.3-2c5-9.2,9.6-18.6,14.2-28.1c2.3-4.8,4.5-9.6,6.9-14.4l2.2-4.5C218.8,228.2,218.7,226.9,218.7,225.6z"/>
<path d="M301.3,319.1c-4.1-16.2-8.8-32.8-16.9-47.5c-0.3,0.9-0.7,1.7-1,2.6c5.5,10.3,9.3,21,13.6,33.1c5.3,17.4,9.5,35,12.8,52.8
	h0.7c-2.7-13.5-5.7-26.9-9-40.3L301.3,319.1z"/>
<path d="M61,271.5c3.6-6,7.8-11.5,12.5-16.4c-0.5-0.4-1.1-0.9-1.6-1.3c-8.4,9.2-15.3,19.7-20.9,30.8c-9,17.5-15.2,36.2-20.5,55.1
	c-1.9,6.7-3.6,13.5-5.2,20.3h2.5C35.7,325.8,47.3,293,61,271.5z"/>
<path d="M204.5,360H203C203.5,360.1,204,360.1,204.5,360z"/>
<path d="M76.2,257c-0.9-0.6-1.9-1.2-2.8-1.9c-4.6,5-8.8,10.4-12.5,16.4C47.3,293,35.7,325.8,27.7,360h3.8c0.7-3.2,1.5-6.5,2.3-9.7
	C42.1,317.5,53.2,282.7,76.2,257z"/>
<path d="M70.5,359.9c-0.2-0.2-0.4-0.1-0.5,0.1L70.5,359.9C70.5,360,70.5,359.9,70.5,359.9z"/>
<path d="M130.2,290.2c0.4,2.5,3.7,2.9,5.3,1.4c1.5-1.4,3-2.8,4.6-4.2c-3.8-2.1-7.3-4.6-10.7-7.2
	C129.4,283.5,129.7,286.9,130.2,290.2z"/>
<path d="M197.9,321.3c0-7.6-0.1-15.2-0.3-22.7l0-0.2c-0.1-3.4-0.1-6.9-0.2-10.3c-0.1-2.6-0.1-5.1-0.5-7.6c0.9,0.5,2,0.6,2.9-0.1
	c2.2-0.6,4.2-2.1,6.2-3.2c2.3-1.3,4.6-2.6,6.9-3.8c4.7-2.6,9.5-5.1,14.3-7.6l0.1-0.1c2-1,4.4-2.8,6.7-2.4c2.5,0.4,4.9,2.1,7.2,3.2
	l7.4,3.7c-0.3-0.9-0.7-1.9-1.3-2.8c-1.7-2.7-4-4.8-6.5-6.7c-2-1-4-2-6.1-2.3c-2.8-0.4-5.2,0.7-7.6,2.1l-1.3,0.8
	c-4.9,2.9-9.7,5.9-14.4,9.1c-2.3,1.5-4.5,3.1-6.7,4.7c-1,0.7-2.1,1.4-3.1,2.2l0.1-0.2c4.9-10.8,9.9-21.6,14.5-32.6
	c1.3-3.1,2.6-6.2,3.8-9.3c-0.5-1.9-0.8-3.9-1-5.8l-2.2,4.5c-2.3,4.8-4.5,9.6-6.9,14.4c-4.6,9.4-9.2,18.8-14.2,28.1
	c-0.4,0.7-0.4,1.4-0.3,2c-0.1,0.4-0.2,0.8-0.3,1.3c-1.5-1.9-4.5-2.9-6.5-3.9c-3.1-1.6-6.1-3.1-9.2-4.7c-2.5-1.3-4.9-2.6-7.4-3.8
	c0.1,2,0.1,4,0,5.9l3.5,1.8l2.8,1.5c2.8,1.5,5.7,2.9,8.5,4.4c1.8,0.9,3.7,2.2,5.7,2.4c0.7,0.8,1.1,1.4,1.8,2.3l-0.1,1.3
	c-0.2,3-0.3,6-0.5,9.1c-0.3,6.8-0.6,13.6-0.8,20.3c-0.4,13.5-0.6,27.1-0.9,40.7c0,1.1,0,2.1-0.1,3.2h5.9
	C197.9,347.1,197.9,334.2,197.9,321.3z"/>
<path d="M206.2,307.7l-0.9-0.7l-0.1-0.1c-0.6-0.3-1.3-0.5-2-0.5l-0.1,0c-0.5,0-1.1,0.1-1.5,0.4c-0.5,0.2-1,0.5-1.4,0.9
	c-0.4,0.4-0.7,0.9-0.9,1.4c-0.3,0.5-0.4,1.1-0.4,1.7l0.2,1.2c0.2,0.7,0.6,1.4,1.1,1.9l0.9,0.7c0.7,0.4,1.4,0.6,2.2,0.6l0.1,0
	c0.5,0,1.1-0.1,1.5-0.4c0.5-0.2,1-0.5,1.4-0.9c0.4-0.4,0.7-0.9,0.9-1.4c0.3-0.5,0.4-1.1,0.4-1.7l-0.2-1.2
	C207.1,308.9,206.8,308.3,206.2,307.7z"/>
<path d="M282,344.8c2.4-4.2,4.9-8.5,7.1-12.8c0.1-0.3-0.2-0.6-0.5-0.4c-2.5,2.9-5,5.9-7.4,9c-0.5-2.2-1-4.3-2-6.3
	c-0.1-0.1-0.3-0.1-0.3,0c-0.9,4-0.5,8.4-0.4,12.5c0.1,4.4-0.1,8.8,0,13.2h6.4c-0.7-3.9-1.6-7.8-2.4-11.8
	C282.4,347.1,282.2,345.9,282,344.8z"/>
<path d="M259.4,319l-1.2,0c-1.7,0-3.3,0-5,0c-4.5,0-9,0.2-13.5,0.5c-3.9,0.2-7.8,0.6-11.7,1.1c-4,0.5-8.3,0.9-12.1,2.3
	c-0.6,0.2-0.4,0.9,0.1,1c4.1,0.4,8.3,0,12.4,0c4-0.1,8-0.1,12-0.1c4,0,8,0.1,12.1,0.3c2.1,0.1,4.1,0.2,6.2,0.3
	c2,0.1,4.1,0.7,5.8-0.5c1.1-0.8,1.7-2.5,0.5-3.6C263.3,318.8,261.5,319,259.4,319z"/>
<path d="M85.3,353.4c-0.8,2.1-1.4,4.3-1.9,6.6h3.5c-0.2-2.2-0.4-4.4-0.9-6.6C85.9,353.1,85.4,353.1,85.3,353.4z"/>
<path d="M282,277c5.6,12.8,9.3,26.6,12.3,39.6l0.4,1.8c3.2,13.8,6.2,27.6,8.9,41.5h6.3c-3.3-17.8-7.5-35.4-12.8-52.8
	c-4.2-12-8.1-22.8-13.6-33.1c-0.2,0.4-0.4,0.9-0.6,1.3C282.5,276,282.2,276.5,282,277z"/>
<path d="M206.8,358.9c0.3-0.2,0.6-0.5,0.8-0.8c0.1-0.2,0.2-0.3,0.4-0.5l0.4-1l0.2-1.2l-0.2-1.2c-0.1-0.6-0.4-1.1-0.8-1.5
	c-0.2-0.3-0.5-0.6-0.8-0.8c-0.3-0.3-0.6-0.5-1-0.6c-0.3-0.2-0.7-0.3-1.1-0.3c-0.6-0.1-1.2-0.1-1.7,0.1c-1.1,0.3-2.1,1.1-2.7,2.1
	c-0.1,0.2-0.4,0.8-0.5,1.2c-0.2,0.9-0.2,1.3-0.1,2.1l0.1,0.5c0.2,0.7,0.5,1.3,1,1.8c0.5,0.5,1.1,0.8,1.8,1c0.1,0,0.2,0,0.3,0h1.5
	c0.6-0.1,1.1-0.3,1.5-0.7C206.3,359.2,206.6,359.1,206.8,358.9z"/>
<path d="M181.3,257.8c2.1,2.1,4.2,4.2,6.4,6.2c1,1,2.1,2,3.2,2.9l0.1,0.1c0.5,0.4,1,0.9,1.6,1.2l0.1,0.1c0.4,0.2,0.9,0.3,1.3,0.3
	c0.8-0.2,1-0.2,0.6,0l-0.1,0.1c1.8,0.6,2.9-1.4,2.3-2.7c-0.1-0.1-0.1-1-0.3-1.4c-0.3-0.6-1-1.1-1.5-1.5l-0.9-0.8
	c-0.9-0.8-1.8-1.5-2.6-2.3c-2.1-1.9-4.2-3.9-6.2-5.9c-4.2-4.1-8.1-8.4-11.9-12.8c-1.7-2.1-3.4-4.1-5.1-6.2c0.4,3.1,0.7,6.3,1.1,9.4
	c0,0,0,0.1,0.1,0.1C173.2,249.1,177.1,253.6,181.3,257.8z"/>
<path class="st2" d="M159.1,199.9c7.4-15.8,23.9-17.7,40.6-11.3c8.6,2.6,15.4,5.8,17.3,15.5c0.7,0.1,1.4,0.8,1.2,1.5
	c0,1.8,0.1,3.6,0.3,5.3c1.4-0.4,2.8-0.8,4.1-1.3c0.3-0.1,0.7-0.3,1-0.4c13.4-5.4,22-17.3,25.2-31.1c3.5-15,1.8-30.9,1.2-46.1
	c-0.6-15.2,0.5-27.2-7.9-40.6c-6-9.6-20.5-13.5-27.1-14.8c-14.1,17.7-35.8,18.9-47.6,29.1c-10.7,9.2-19.9,21.2-17.9,36.1
	c0.3,1.8-1.6,3.1-3.1,1.8c-0.2-0.2-0.5-0.4-0.7-0.6c-2.5-2.2-5.1-4.3-7.7-6.4c-0.8-0.7-1.6-1.3-2.5-2c-2.5-0.3-5.2-0.1-7.6,0.6
	c-0.1,1.1-0.2,2.3-0.2,3.4c-0.2,2.4-0.4,4.8-0.7,7.2c1.1,0,2.2,0.1,3.3,0.3c3.1,0.7,8.2,2.6,9.1,6.1c0.4,1.7-1.4,3-2.9,2.2
	c-1.3-0.7-2.1-2-3.1-3c-1.1-1-2.4-1.8-3.7-2.4c-0.9-0.4-1.9-0.8-2.9-1c-0.4,3.7-0.9,7.5-1.4,11.2c-0.3,2-0.6,4-0.9,6.1
	c1.7,0.7,3.4,0.5,5.4,0.2c1.3-0.2,2.3,0.6,2.4,1.7l0.3,0c-0.1-0.7,0.3-1.4,0.9-2c0.2-0.2,0.6-0.2,0.8,0.1c1.9,3.3,3.1,6.9,5,10.2
	c1.9,3.2,3.8,6.4,6,9.4c2.2,3.1,4.7,6.1,7.4,8.8c0.3,0.3,0.6,0.7,1,1c0.8,0.7,1.6,1.4,2.4,2.3c0.2,0.2,0.4,0.4,0.6,0.5
	c0.1,0.1,0.3,0.2,0.4,0.4c0,0,0.1-0.1,0.1-0.1c0.1,0,0.2-0.1,0.2,0c0.2,0.3,0.4,0.6,0.5,0.9C158.4,199.1,158.8,199.5,159.1,199.9z
	 M193.7,139.5c-1.6,3.1-5.5,1.7-5.8-1.2c-0.4-3.8,0.1-5.5,0.3-8.1c0.3-4.1,6.6-5,7.2-1C196,132.9,195.4,136.2,193.7,139.5z
	 M241,138.2c-0.9,1.8-3.8,2.2-5.1,0.7c-2.1-2.5-3.2-7.6-0.4-10.1c0.1-0.1,0.2-0.3,0.3-0.4c0.9-1.1,2.1-1.9,3.6-1.5
	C244,128.3,242.6,135,241,138.2z M228,111.9c0.4-0.6,0.9-1,1.4-1.2c0.6-0.2,1.3-0.3,1.9-0.2l0.6,0.1c6.2,1.3,14.2,3.9,17.1,9.9
	c0.1,0.9,0,1-0.1,1.2l0,0c-0.1,0.1-0.1,0.2-0.5,0.4c-0.1,0-0.2-0.1-0.3-0.1c-1.3-0.4-2.4-0.8-3.4-1.3l-1.1-0.5
	c-1.3-0.6-2.6-1.2-4-1.7c-2.9-1-6-1.6-9.1-2c-0.7-0.1-1.3-0.3-1.8-0.7c-0.5-0.4-0.8-0.9-1-1.5C227.5,113.3,227.6,112.7,228,111.9z
	 M215.4,154.8c2.7,2.1,8.1,6.6,11.9,2.6c3.2-4.5-1.3-8.7-4.3-10.5c-0.8-0.6-0.2-2.4,1.5-2.1c15.2,2.6,7.3,28.7-12,14.4
	C210.1,157.3,212.9,153.2,215.4,154.8z M206,177.4c0.1-0.9,0.7-1.7,1.4-2.2c0.7-0.5,1.6-0.8,2.4-0.7c0.7,0.1,1.5,0.5,2.1,1.4
	l0.1,0.2c1,1.4,2.4,2.5,3.9,3.3c1.5,0.7,3.1,1,4.8,0.8c3.2-0.4,5.5-2.1,7.9-4.5c0.3-0.3,0.6-0.6,0.9-0.9c0.2-0.3,0.4-0.5,0.7-0.6
	c0.3-0.1,0.7-0.1,1,0c0.3,0.1,0.6,0.3,0.8,0.6c0.2,0.3,0.3,0.6,0.3,1c-0.2,2.5-1.5,4.7-3.3,6.4c-2,1.9-4.7,3.3-7.3,3.7
	c-2.8,0.5-5.7,0.1-8.2-0.9c-2.7-1.1-5-2.9-6.8-5.2C206,179,205.9,178.2,206,177.4z M176.5,124.3c2.1-4.1,6.1-7.5,10.2-9.5
	c2.2-1.1,4.5-2,6.9-2.4l0.7-0.1c2.3-0.4,5.1-0.8,6.8,1.1c0.9,1,1.2,2.8,0,3.7c-2,1.6-4.3,1-6.7,1.1c-2,0.1-3.9,0.4-5.9,1
	c-4.2,1.2-7.7,3.4-11.3,5.9C176.8,125.3,176.3,124.7,176.5,124.3z"/>
<path class="st2" d="M178.8,202.5c-0.3-0.4,0.3-0.9,0.7-0.7c6.7,4.5,13.4,8.2,21.5,9.8c4.1,0.8,8.2,0.9,12.3,0.3
	c0.3-2.6,1.2-5.2,2.6-7.3c0.3-0.5,0.8-0.6,1.2-0.6c-1.9-9.6-8.7-12.9-17.3-15.5c-16.7-6.4-33.2-4.5-40.6,11.3c0.4,0.6,0.8,1.2,1,2
	c0.1,0.2,0.1,0.5,0,0.8c0.1,0.1,0.1,0.3,0.2,0.4c12.5,5.7,24.2,9.2,34.9,10.7C188.7,211.6,182.9,207.9,178.8,202.5z"/>
<path class="st2" d="M217,204.1c0.4,2.1,0.6,4.4,0.5,7.1c0.3-0.1,0.7-0.2,1-0.3c-0.2-1.8-0.3-3.5-0.3-5.3
	C218.4,204.9,217.8,204.2,217,204.1z"/>
<path class="st2" d="M157.3,197.8c0,0-0.1,0.1-0.1,0.1c0.3,0.3,0.6,0.5,0.9,0.8c-0.1-0.3-0.3-0.7-0.5-0.9
	C157.5,197.8,157.4,197.8,157.3,197.8z"/>
<path class="st2" d="M215.9,204.7c-1.4,2.1-2.3,4.7-2.6,7.3c1.4-0.2,2.9-0.4,4.3-0.8c0.1-2.7-0.1-5-0.5-7.1
	C216.6,204.1,216.2,204.2,215.9,204.7z"/>
<path d="M293.7,151.5c-3.7-14.8-8.6-29.4-13.7-43.7c-2.6-7.2-5.3-14.3-8.2-21.4c-2.8-6.9-5.3-13.9-8.8-20.5
	c-20.8-39.2-58.6-39.2-78.1-34.1c-10.1-4.4-29.1-3.1-39.7,0.8c-17.1,6.4-37.9,31.5-45,42.8c-15.7,24.9-25.5,58-15.1,86.8
	c1.4,3.8,3.1,7.2,5.1,10.6c-1.2,1.7-2.7,3.3-4.2,4.8c-4.7,4.6-9.4,9.1-13.4,14.3c-4,5.2-7.3,10.7-9.8,16.8
	c-4.7,11.5-4.9,24.5,1.3,35.4c2.1,3.7,4.8,7,7.9,9.7c0.5,0.5,1.1,0.9,1.6,1.3c0.9,0.7,1.8,1.3,2.8,1.9c4,2.5,8.5,4,13.3,4.3
	c0.6,0.1,1.1,0.1,1.7,0.2c1.4,2.3,3.2,4.5,5.1,6.4c6.1,5.8,20.5,8.7,28.7,8.9c0.4,0.3,0.8,0.7,1.3,1c1,0.8,2,1.6,3,2.3
	c3.4,2.6,7,5.1,10.7,7.2c0.8,0.4,1.6,0.9,2.4,1.3c3.9,1.9,9.1,3.5,13.1,2.1c1.9,1.2,4.9,1,6.7,0c3-1.7,5.5-4.7,7-7.7
	c1.5-3.2,2.3-6.5,2.5-9.8c0.2-2,0.1-3.9,0-5.9c-0.1-2.6-0.4-5.2-0.7-7.8c-0.6-5-1.1-10-1.7-15c-0.4-3.1-0.7-6.3-1.1-9.4
	c-0.1-0.7-0.2-1.3-0.2-2c-0.8-6.9-1.6-13.9-3.7-20.5c-1-3.3-2.4-6.5-4.1-9.5c-0.1-0.1-0.1-0.3-0.2-0.4c0-0.3,0-0.5,0-0.8
	c-0.2-0.8-0.6-1.4-1-2c-0.3-0.4-0.7-0.8-1-1.2c-0.3-0.3-0.6-0.5-0.9-0.8c-0.1-0.1-0.3-0.2-0.4-0.4c-0.2-0.2-0.4-0.3-0.6-0.5
	c-0.7-0.8-1.5-1.6-2.4-2.3c-0.3-0.3-0.6-0.7-1-1c-2.7-2.8-5.2-5.7-7.4-8.8c-2.2-3-4.1-6.2-6-9.4c-1.9-3.3-3.1-6.9-5-10.2
	c-0.2-0.3-0.6-0.3-0.8-0.1c-0.6,0.6-1,1.3-0.9,2l-0.3,0c-0.1-1.1-1.1-1.9-2.4-1.7c-2,0.3-3.6,0.5-5.4-0.2c0.3-2,0.6-4,0.9-6.1
	c0.5-3.7,1-7.5,1.4-11.2c1,0.2,1.9,0.6,2.9,1c1.4,0.6,2.6,1.4,3.7,2.4c1.1,1,1.8,2.3,3.1,3c1.5,0.8,3.3-0.5,2.9-2.2
	c-0.9-3.4-6-5.4-9.1-6.1c-1.1-0.2-2.2-0.3-3.3-0.3c0.2-2.4,0.5-4.8,0.7-7.2c0.1-1.1,0.2-2.3,0.2-3.4c2.4-0.7,5.1-1,7.6-0.6
	c0.8,0.7,1.7,1.3,2.5,2c2.6,2.1,5.1,4.3,7.7,6.4c0.2,0.2,0.5,0.4,0.7,0.6c1.5,1.3,3.4,0,3.1-1.8c-2.1-15,7.1-26.9,17.9-36.1
	c11.9-10.2,33.5-11.4,47.6-29.1c6.5,1.3,21.1,5.3,27.1,14.8c8.4,13.4,7.3,25.4,7.9,40.6c0.6,15.2,2.3,31.1-1.2,46.1
	c-3.2,13.8-11.8,25.7-25.2,31.1c-0.3,0.1-0.7,0.3-1,0.4c-1.4,0.5-2.7,0.9-4.1,1.3c-0.3,0.1-0.7,0.2-1,0.3c-1.4,0.3-2.9,0.6-4.3,0.8
	c-4.1,0.5-8.2,0.4-12.3-0.3c-8.1-1.5-14.8-5.2-21.5-9.8c-0.4-0.3-1,0.3-0.7,0.7c4.1,5.4,9.9,9.1,16.4,11.3c5.8,1.9,12.1,2.6,18,2.1
	c0.3,3.6,1.1,9.5,5.5,9.7c0,0,0.1,0,0.1,0c0,1.3,0,2.7,0.2,4c0.2,2,0.5,3.9,1,5.8c0.6,2.2,1.3,4.3,2.3,6.4
	c2.4,5.2,6.1,9.7,10.6,13.2c2.5,2,5.4,3.8,8,5.8c2.5,1.9,4.8,4,6.5,6.7c0.6,0.9,1,1.9,1.3,2.8c1.3,4.2-0.1,8.4-4.5,10.7
	c-1.4,0.7-1.9,3.1-0.5,4.2c0.5,0.4,1,0.8,1.6,1.2c3,2.3,11.3,6.5,12.6,6.7c11.3,1.3,19.1-6.5,24.2-16.1c0.3-0.5,0.5-1,0.8-1.5
	c0.2-0.4,0.4-0.9,0.6-1.3c0.4-0.8,0.7-1.7,1-2.6c4-11.3,2.1-24.1-3.8-34.4c-5.3-9.2-15.8-18.3-11.6-30c1.5-4.2,4.5-7.7,7.5-10.9
	c3.4-3.7,7-7.1,10.2-10.9c3.2-3.8,6-7.9,7.6-12.6C296.6,165.9,295.4,158.4,293.7,151.5z M118.8,225.2
	C118.8,225.2,118.8,225.2,118.8,225.2C118.8,225.2,118.8,225.2,118.8,225.2C118.8,225.2,118.8,225.2,118.8,225.2z"/>
<path d="M177.2,125c3.6-2.4,7.1-4.6,11.3-5.9c1.9-0.6,3.9-0.9,5.9-1c2.4-0.1,4.7,0.5,6.7-1.1c1.2-0.9,0.9-2.8,0-3.7
	c-1.6-1.8-4.5-1.5-6.8-1.1l-0.7,0.1c-2.4,0.4-4.8,1.3-6.9,2.4c-4.1,2.1-8.1,5.4-10.2,9.5C176.3,124.7,176.8,125.3,177.2,125z"/>
<path d="M188.3,130.2c-0.2,2.5-0.7,4.3-0.3,8.1c0.3,2.8,4.2,4.3,5.8,1.2c1.6-3.3,2.3-6.6,1.7-10.2
	C194.8,125.2,188.6,126.1,188.3,130.2z"/>
<path d="M213.4,185c2.6,1.1,5.4,1.4,8.2,0.9c2.5-0.5,5.2-1.8,7.3-3.7c1.8-1.7,3.1-3.9,3.3-6.4c0-0.4-0.1-0.7-0.3-1
	c-0.2-0.3-0.5-0.5-0.8-0.6c-0.3-0.1-0.7-0.1-1,0c-0.3,0.1-0.5,0.3-0.7,0.6c-0.3,0.3-0.6,0.6-0.9,0.9c-2.4,2.4-4.6,4.1-7.9,4.5
	c-1.7,0.2-3.4-0.1-4.8-0.8c-1.5-0.7-2.9-1.9-3.9-3.3l-0.1-0.2c-0.6-0.8-1.3-1.2-2.1-1.4c-0.9-0.1-1.7,0.1-2.4,0.7
	c-0.7,0.5-1.2,1.3-1.4,2.2c-0.1,0.8,0,1.6,0.6,2.4C208.4,182.1,210.7,183.9,213.4,185z"/>
<path d="M239.3,126.9c-1.5-0.4-2.8,0.3-3.6,1.5c-0.1,0.1-0.2,0.3-0.3,0.4c-2.7,2.5-1.7,7.5,0.4,10.1c1.3,1.6,4.2,1.1,5.1-0.7
	C242.6,135,244,128.3,239.3,126.9z"/>
<path d="M212.4,159.1c19.4,14.3,27.2-11.8,12-14.4c-1.7-0.3-2.3,1.6-1.5,2.1c3,1.8,7.5,6,4.3,10.5c-3.8,4-9.2-0.6-11.9-2.6
	C212.9,153.2,210.1,157.3,212.4,159.1z"/>
<path d="M228.7,115.7c0.5,0.4,1.1,0.6,1.8,0.7c3.1,0.4,6.1,1,9.1,2c1.4,0.5,2.7,1.1,4,1.7l1.1,0.5c1,0.5,2.1,1,3.4,1.3
	c0.1,0,0.2,0.1,0.3,0.1c0.4-0.1,0.4-0.3,0.5-0.4l0,0c0.1-0.1,0.2-0.3,0.1-1.2c-2.9-6.1-10.9-8.6-17.1-9.9l-0.6-0.1
	c-0.7-0.1-1.3-0.1-1.9,0.2c-0.6,0.2-1.1,0.6-1.4,1.2c-0.5,0.8-0.5,1.4-0.3,2.3C227.9,114.9,228.3,115.4,228.7,115.7z"/>
<g>
	<title>peep-47</title>
	<desc>Created with Sketch.</desc>
	<g id="facial-hair_x2F__x2A_-None_3_" transform="translate(104.577451, 109.479380)">
	</g>
</g>
<path class="st1" d="M704.7-396.8c-0.2,0.2-0.3,0.4-0.3,0.7c0,0,0,0.1,0,0.1C704.5-396.2,704.6-396.5,704.7-396.8z"/>
<path class="st0" d="M650.1-202c18.5-12,40.9-18.7,62.7-21.6c2.5-0.3,4.8-1,7.2-0.1c0.7,0.2,1.5,0.6,2.2,0.6c1.1,0,2.4-0.4,3.5-0.5
	c3.1-0.4,6.2-0.5,9.3-0.7c2.4-0.2,5-0.2,7.3-1c0.3-0.2,0.7-0.3,1-0.5c1.8-1.3,3.3-4.4,4.4-8c0.9-5,1.9-10,3.2-14.9
	c0.4-1.3,0.7-2.7,1.1-4.2c-2.7-0.1-5.5-3.4-7.2-5.2l-0.2-0.2c-2.5-2.5-4.7-5.2-6.7-8.1c-3.5-5.1-5.6-10.9-6.5-17
	c-4.7,1.4-11,0.1-14.9-1.7c-12.2-5.5-16.1-21.9-8.8-32.8c1.4-2.1,3.2-3.9,5.3-5.4c-0.4-0.2-0.9-0.6-1.2-1c-2.1-2.2-3.5-5.1-5-7.7
	l-0.2-0.3c-1.2-2.1-3-5.6-4-7.8l-0.1-0.2c-2.5-5.5-4.8-7.9-6.6-13.6c-1.7-5.6-3.1-11.2-4-17l-0.2-1.5c-0.5-3.3-1-6.9-0.6-10.3
	c-2.6,0.8-5.2,1.4-7.8,0.1c-1.7-0.8-2.6-3.3-2-5c0.4-1.3,1.1-2.3,2-3.1c-0.5-0.3-1-0.6-1.5-1l-0.4-0.3c-1.6-1.4-1.7-3.9-0.7-5.6
	c0.1-0.2,0.2-0.3,0.3-0.5c0.9-1.6,2.7-2.7,4.6-2.6c0.3,0,0.6,0,0.9,0c-0.9-0.2-1.7-0.5-2.5-1c-3.6-2.2-3.1-8.2,1.2-9.2
	c1.8-0.4,3.8-0.3,5.8,0.2c-0.1,0-0.1-0.1-0.2-0.1c-1.5-0.9-2.8-2.7-2.6-4.6c0.2-2.1,0.8-3.5,2.6-4.6c1.6-0.9,3.8-1,5.4,0
	c1.4,0.9,2.7,1.9,4,2.9c-1.3-1.6-2.4-3.3-2.9-5.1c-0.6-2.3,0.4-4.8,2.4-6c1.6-1,3.4-0.9,4.9-0.1c-0.1-1.2,0.2-2.4,1-3.5
	c1.6-2.2,4.6-3.5,7.2-1.9c0.3,0.2,0.8,0.6,1.2,1c-0.9-2.7-0.1-5.6,2.8-6.8c1.8-0.8,4.2-0.4,5.7,0.9c-1-5.3,6.8-9.2,9.9-3.7
	c0.7,1.2,1.4,2.5,2,3.9l0.2,0.5l0,0l-0.2-0.4l-0.2-0.4c-0.8-2-1.9-4-2.2-6.1c-0.4-3.2,1-6.1,4.4-6.6c1.8-0.2,3.7,0.6,4.9,2
	c-0.6-4.9,4.8-8.4,8.8-4.8c1.9,1.7,2.9,4.3,4,6.5c0.7,1.3,1.4,2.5,2,3.8c0.2-0.2,0.4-0.4,0.5-0.6c-1-3-1.8-6-2.4-9.1
	c-0.6-2.9,0.8-5.9,3.8-6.7c2.7-0.7,6.1,0.9,6.7,3.8c0.4,2,0.9,4,1.5,6c0.4-0.1,0.8-0.2,1.1-0.2c0-0.4,0.1-0.8,0.1-1.1l0.1-1.3
	c0.3-3.1,0.6-6.5,2.2-9.1c2.7-4.4,9.7-2.6,9.8,2.6c0,2.7-1.1,5.4-1.4,8.1c-0.2,1.2-0.3,2.4-0.3,3.5c0.7-3.9,1.8-7.8,2.9-11.6
	c0.1-0.5,0.3-0.9,0.4-1.4c0.8-2.6,3.2-4.2,6-3.9c2.4,0.3,5,2.7,4.7,5.4c-0.1,0.5-0.1,1-0.2,1.4l0,0l0,0L792-458
	c-0.2,0.8-0.4,1.6-0.8,2.3c-0.5,1.4-0.9,2.8-1.4,4.1c0.6,0,1.3,0,2,0.1c0.7-1.8,1.4-3.5,2.1-5.3c0.7-1.9,1.3-4.3,2.7-5.8
	c1.9-1.9,5.1-2.3,7.4-0.9c2.4,1.4,3.3,3.9,2.8,6.6c-0.3,1.4-1.2,2.3-2.3,2.9l-0.1,0.1l-0.9,2.1c0.3-0.1,0.5-0.2,0.8-0.3
	c0.5-0.1,0.9-0.2,1.4-0.3c1.2-2.3,2.6-4.5,4-6.6c1.6-2.5,4.8-3.5,7.5-2c2.4,1.4,3.7,5.1,2,7.5c-1.3,1.8-2.5,3.7-3.8,5.6
	c0.2,0,0.4,0.1,0.6,0.1c0.1-0.1,0.2-0.2,0.3-0.4c1.3-1.6,2.9-2.9,4.5-4.2c1.5-1.3,2.2-3.3,4.1-4.3c2.5-1.2,5.4-0.6,6.9,1.8
	c3.1,5.2-2.1,9-5.5,12.2c2.9-1.8,6-3.5,9.1-4.9c1.8-0.8,3.5-1.6,5.4-2.3c2.8-1,5-0.7,7.3,1.4c0.9,0.8,1.3,2.3,0.9,3.4
	c-0.9,2.5-2.3,3.9-4.8,4.6c-1.7,0.5-3.5,0.8-5.2,1.3c-1.9,0.5-3.7,1.2-5.5,1.9c0.6,0.1,1.1,0.2,1.7,0.4c0.1,0,0.1,0,0.2,0
	c0.7-0.2,1.3-0.3,2-0.5c3.4-0.8,6.9-1.3,10.4-1.7l1.2-0.1c4.2-0.4,9.2-1.1,11.8,2.9c0.8,1.3,0.9,3.5,0,4.8c-1.8,2.5-3.6,3-6.5,3.1
	c2.9,0.3,5.8,0.7,8.7,1.1c2,0.3,4,0.7,6,1l1,0.2c2.4,0.5,5.1,0.8,7.2,2.2c4.5,3.1,2.4,9-2.6,9.7c-2.4,0.3-5.1-0.7-7.5-1.2
	c-2.3-0.5-4.6-0.9-7-1.2c-1.2-0.2-2.4-0.4-3.6-0.5c2.5,0.4,4.9,0.9,7.3,1.6l0.7,0.2c4.6,1.4,10.9,3.7,12.3,8.6
	c0.9,3-1.5,5.6-4.4,5.8c-2.7,0.2-4.9-1.4-7.2-2.6c-1.7-0.9-3.4-1.5-5.1-2.1c-1.9-0.6-3.7-1-5.6-1.4c1.6,0.9,3.2,1.9,4.7,3l0.7,0.5
	c4,3,10.1,7.6,8.7,13.2c-0.4,1.8-2.4,3.4-4.3,3.3c-4.9-0.5-7.6-5.7-11.3-8.5c-0.9-0.7-2-1.4-3.1-2.1c0,0,0,0.1,0.1,0.1
	c5.5,6.7,10,14.3,13.3,22.3c7.5,17.6,9.8,33.9,9.8,52.8l0,2.7c0,9.1-0.3,18.1-1,27.2c-0.9,10.3-2.5,20.5-7.2,29.9
	c-7.1,14.2-20.7,25.2-35.8,29.8c0.4,2.1,0.5,4.5,0.8,5.7c1.1,4.4,3.5,6.8,6.6,10.3c2.2-0.2,4.2,0.7,5.7,2.3
	c13.8,3.4,27.1,7.7,38.2,17c8.8,7.3,15.8,16.5,22.2,25.9c7.5,11,14.7,22.2,22,33.3c1,1.5,2,3,3,4.5H951v-360H591v360h15.2
	c2.3-8.3,5.1-16.5,8.5-24.4C622.3-176.2,633.8-191.4,650.1-202z"/>
<path class="st2" d="M743.3-225.9c-0.3,0.2-0.7,0.3-1,0.5c0.1,0,0.2-0.1,0.3-0.1C742.9-225.6,743.1-225.7,743.3-225.9z"/>
<path class="st2" d="M753.3-253c-0.1,0-0.1-0.1-0.2-0.1c-0.3,0.1-0.7,0.1-1,0.1c-0.4,1.4-0.7,2.8-1.1,4.2c-1.4,4.9-2.4,9.9-3.2,14.9
	c1.8-5.6,2.9-12.2,3.4-13.8C751.7-249.4,752.2-251.6,753.3-253z"/>
<path class="st2" d="M777.6-241.5c-6.6-2.1-13-4.8-19-8.2c-0.1,1.8-0.6,3.7-0.7,5.1c-0.4,3.2-1.7,26.7-18.9,27.9
	c-17.2,1.2-15.5,2.7-15.5,4.1c2.1,3.7,5.2,8.5,7.8,11.7c3.5,4.2,7.4,8.1,11.6,11.7c13.8,11.6,31.8,18.3,49.8,18
	c9.5-0.2,18.2-2.5,24.6-9.9c5.9-6.9,9.2-19.2,11.7-27.9c-5.3-6.6-7.9-15.3-6.8-22.3C806.7-228.7,790.3-232.3,777.6-241.5z"/>
<path d="M693.6-172.8c11.1-25.5,16.2-42,45.2-50.9c1.1-0.5,2.3-1,3.5-1.6c-2.3,0.8-4.9,0.9-7.3,1c-3.1,0.2-6.2,0.4-9.3,0.7
	c-1.1,0.1-2.4,0.5-3.5,0.5c-0.7,0-1.5-0.3-2.2-0.6c-2.4-0.8-4.8-0.2-7.2,0.1c-21.7,2.9-44.1,9.6-62.7,21.6
	c-16.3,10.6-27.9,25.8-35.4,43.6c-3.4,7.9-6.1,16.1-8.5,24.4h52.1C672.1-145.5,685.7-157.2,693.6-172.8z"/>
<path d="M902.1-171.8c-6.4-9.4-13.4-18.6-22.2-25.9c-11.1-9.2-24.4-13.6-38.2-17c-1.5-1.6-3.5-2.4-5.7-2.3c-3-3.5-5.5-5.9-6.6-10.3
	c-0.3-1.2-0.4-3.6-0.8-5.7c-0.4,0.1-0.9,0.3-1.3,0.4c-0.4,0.1-0.7,0.2-1.1,0.3c4.3,15.5,10.1,30.4,18,44.5
	c6.3,10.8,12.9,22.2,23,29.7c3.5,2.4,7.4,4.1,11.4,5.5c14.7,4.5,27.2,10.6,37.5,18.5h10.9c-1-1.5-2-3-3-4.5
	C916.8-149.6,909.6-160.8,902.1-171.8z"/>
<path d="M747.8-233.9c-1.2,3.6-2.6,6.7-4.4,8c1.2-0.6,2.4-1.3,3.5-2C747.1-229.9,747.4-231.9,747.8-233.9z"/>
<path d="M867.3-158c-10.2-7.6-16.8-18.9-23-29.7c-7.9-14.1-13.8-29-18-44.5c-1.4,0.3-2.7,0.6-4.1,0.9c-1.1,7,1.5,15.7,6.8,22.3
	c-2.5,8.6-5.8,20.9-11.7,27.9c-6.3,7.4-15.1,9.7-24.6,9.9c-18,0.3-36-6.4-49.8-18c-4.2-3.5-8.1-7.5-11.6-11.7
	c-2.6-3.1-5.8-8-7.8-11.7c0-1.4-1.7-2.9,15.5-4.1c17.2-1.2,18.5-24.7,18.9-27.9c0.2-1.5,0.7-3.4,0.7-5.1c-1.8-1-3.5-2.1-5.2-3.2
	c-1.2,1.4-1.7,3.6-2.1,5.3c-0.5,1.6-1.6,8.2-3.4,13.8c-0.3,2-0.7,4-1,6c-1.1,0.7-2.3,1.4-3.5,2c-0.2,0.2-0.5,0.3-0.7,0.4
	c-0.1,0-0.2,0.1-0.3,0.1c-1.2,0.6-2.3,1.1-3.5,1.6c-29,8.9-34.1,25.4-45.2,50.9c-7.9,15.7-21.6,27.3-35.3,38.8h257.8
	c-10.3-7.9-22.8-14.1-37.5-18.5C874.7-154,870.8-155.6,867.3-158z"/>
<path class="st2" d="M831.2-435.6c1.4-0.4,2.8-0.8,4.1-1.2c-0.1,0-0.1,0-0.2,0c-0.6-0.1-1.1-0.3-1.7-0.4c-1,0.4-1.9,0.8-2.9,1.2
	C830.8-435.8,831-435.7,831.2-435.6z"/>
<path class="st2" d="M849.6-397.6c0,0,0-0.1-0.1-0.1c0,0,0,0-0.1,0C849.5-397.7,849.5-397.6,849.6-397.6z"/>
<path class="st2" d="M816.7-262.2c-0.3-1.3-1.3-2-2.6-2.5C815-263.9,815.9-263.1,816.7-262.2z"/>
<path class="st2" d="M820-256.7c3.2-0.5,6.5-1.2,9.6-2c-0.9-7.6-10.1-8-12.8-3.3c0.4,0.5,0.9,1,1.2,1.6
	C818.8-259.2,819.5-258,820-256.7z"/>
<path class="st2" d="M712.2-398.3c-2.3,0.4-4.5,0.8-6.8,1.2c-0.3,0.1-0.5,0.2-0.7,0.4c-0.1,0.3-0.2,0.6-0.3,0.8c0,0,0-0.1,0-0.1
	c-0.1,0.8,0.6,1.8,1.7,1.6c2.3-0.4,4.5-0.8,6.8-1.2C714.7-396,714-398.6,712.2-398.3z"/>
<path class="st2" d="M728.4-395.2c-1.3,1.4-2.2,3-3,4.7c-0.8,1.6,1.6,3,2.4,1.4l0.4-0.7c0.6-1.1,1.2-2.2,2-3.2l0.2-0.2
	C731.6-394.5,729.6-396.5,728.4-395.2z"/>
<path class="st2" d="M816.8-411.2c2.3,0.8,4.6,1.6,6.9,2.7c1.6,0.8,3-1.6,1.4-2.4c-2.4-1.2-5-2.1-7.5-2.9
	C815.8-414.5,815.1-411.8,816.8-411.2z"/>
<path class="st2" d="M836.8-421.8c0.9,0.6,1.9,1,2.7,1.6l0.2,0.1c1.3,1.2,3.3-0.7,2-2c-1-0.9-2.2-1.4-3.3-2.1l-0.2-0.1
	C836.7-425.1,835.3-422.7,836.8-421.8z"/>
<path class="st2" d="M819.9-278.6l-0.6-0.1l-2.4-0.3l-0.9-0.1c-5.8-0.8-12.4-1.2-17.2,2.6c-1.8,1.4-2.7,3.1-3.1,5.1
	c4.5-0.7,9.1-1.2,13.7-1.6l1.2-0.1c2.9-0.3,5.7-0.5,8.6-0.8l2-0.2l2-0.2c0.7-0.1,5.5-0.3,6.4-0.2c0.1-0.8,0.2-2.6,0.4-3.4
	C826.7-277.9,823.3-278.1,819.9-278.6z"/>
<path class="st2" d="M718.5-415.1l-6-2.4c-1.7-0.7-2.4,2-0.7,2.7l6,2.4C719.5-411.8,720.2-414.5,718.5-415.1z"/>
<path class="st2" d="M765.3-270.1c6.3-1,14.9-1.9,23.6-1.6c0.3-3,1.5-5.8,3.5-8.3c5.7-6.6,15.2-7,23.1-5.4c5.1,1.1,10,2.8,15.1,3.5
	c2.4,0.3,4.8,0.4,7.3,0.4c2.4,0,4.8-0.5,7.1-0.4c0.4,0,0.5,0.5,0.2,0.7c-3.3,2-7.6,2.6-11.5,3c0,0.3,0,0.6,0.1,0.8
	c0.1,0.6,0.2,1.3,0.3,1.9c0.2,1.4,0.4,2.8,0.6,4.3c0.4,2.8,0.5,5.7,1.2,8.4l0.1,0.5c0.2,0.6,0.2,1.1,0.1,1.6l0.2-0.1l0.5-0.2
	l0.3-0.2c1.2-0.5,2.3-0.9,3.7-0.8c1.1,0.1,1.9,0.8,1.9,1.9c0,5.1-6.8,6.7-10.7,7.7l-1.1,0.3c-2.9,0.7-5.9,1.4-8.8,1.8
	c0.9,3.5,1.5,7.2,2.2,10.6c2.7-0.6,5.3-1.4,7.9-2.5c13.5-5.6,24.4-17.6,29-31.5c2.9-8.8,3.8-18.2,4.8-27.4l0.1-0.6
	c1.1-9.6,1.8-19.3,1.7-28.9c0-18-2.6-32.7-10.5-49c-3.7-7.7-8.5-14.8-14.3-21c-1.7,0.4-3.6-0.1-5.4-0.3c-0.9-0.1-1.8-0.2-2.7-0.3
	c0.9,0.6,1.8,1.2,2.7,1.8l1.2,0.8c3.6,2.6,8.3,5.6,7.3,10.6c-0.3,1.4-1.6,2.6-2.9,2.9c-4.8,1.1-8.1-3.5-11.3-6.3
	c-2.8-2.4-5.7-4.5-8.7-6.7c-0.7-0.5-1.4-1-2.1-1.5c0.6,0.8,1.3,1.5,1.9,2.3l0.9,1.2c2.8,3.5,6.9,8.2,4,12.8
	c-0.6,0.9-1.7,1.6-2.8,1.6c-5.4,0.3-7.4-5.5-9.8-9.2c-2.5-3.9-5.3-7.4-8.2-11.1c0,0,0,0,0,0c-10.3,0.5-20.7,1.9-30.8,4.1
	c-7,1.5-13.8,3.4-20.6,5.6l-0.6,0.2c-3.7,1.2-7.5,2.7-10.1,5.3c-0.4,1.8-0.1,3.7,0.3,5.5l0.3,1.4c1.2,5.7,2,11.3,1.4,17.2
	c-0.6,6.1-2.4,11.5-4.7,17.1c-1.1,2.7-2.1,2.2-2.5,5c-0.3,2.2-0.1,4.4,0.1,6.6l0.2,1.9c0.4,4.9,0.6,10.2-2.6,14.2
	c-0.5,0.6-1.6,0.4-1.9-0.2c-0.1-0.2-0.3-0.5-0.4-0.7c-1.5-2.2-3.9-3.5-6.6-4c-0.3-0.1-0.2-0.5,0.1-0.6c2.3-0.3,4.4,0.3,6.3,1.5
	c-0.9-3-7.6-1.5-9.8-1l-0.1,0c-2.8,0.7-5.4,1.9-7.7,3.6c-4.6,3.4-7.3,8.8-7.2,14.5c0.1,5.6,3,10.9,8.1,13.6c2.4,1.3,5.2,1.9,7.9,1.9
	c2.9,0,5.4-1.3,8.3-1.1c1.7,0.1,2.9,1.9,2,3.4c-0.6,1-1.5,1.8-2.4,2.5c2.3,5.4,5.3,10.6,8.8,15.3c1.9,2.6,4.1,5.1,6.5,7.3
	c1.1,1.1,3.1,2.2,4.4,3.7C755.7-263.9,758.9-269,765.3-270.1z M853.1-323.6c0,3-2.1,9.1-6,9.1c-4,0-4.7-6.7-4.5-9.5l0-0.4
	c0.3-4.6,1.9-8.9,4.5-8.9c4.2,0,6,6.7,6,9.7L853.1-323.6z M841.8-348.3c2.4-1.5,5.4-2.1,8.2-1.9c5.5,0.4,14.8,5.1,13.5,11.9
	c-0.4,2.1-3.3,3.2-5,2c-1.8-1.2-2.3-3.2-3.6-4.8c-1.1-1.3-2.5-2.2-3.9-3c-1.5-0.8-3.1-1.3-4.8-1.4l-0.3,0c-1-0.1-6-0.1-5.3,1.8
	c0.1,0.4-0.4,0.7-0.7,0.4C838.5-345.1,840.2-347.3,841.8-348.3z M821.3-303.5c3.1,2.4,9.5,7.7,13.9,3.1c3.8-5.3-1.6-10.2-5.1-12.3
	c-0.9-0.7-0.2-2.8,1.8-2.5c17.7,3,8.5,33.6-14.1,16.8C815.1-300.6,818.4-305.4,821.3-303.5z M835.6-303.7v-0.1l0.2-0.1
	c0.2-0.1,0.3-0.1,0.2,0l-0.1,0l-0.2,0.1C835.6-303.8,835.6-303.8,835.6-303.7z M797.8-313.6c-3.9,0-5.9-6.1-6-9.1l0-0.1
	c0-2.9,1.7-9.7,6-9.7c2.6,0,4.3,4.6,4.5,9.3l0,0.2C802.5-320,801.6-313.6,797.8-313.6z M780-337.8c0.6-3.5,2.3-6.8,4.7-9.5
	c2.5-2.8,5.8-4.7,9.5-5.2c3.5-0.5,8,0.5,9.7,4c0.7,1.6-0.1,3.3-1.9,3.4c-4.4,0.2-8.3-0.8-12.2,2.1c-1.7,1.2-3,2.9-4.2,4.6l-0.4,0.6
	l-0.4,0.5c-0.8,1.2-1.5,2.4-1.4,3.8c0,0.4-0.4,0.8-0.8,0.8C779.9-332.7,779.6-335.9,780-337.8z M736.6-299.4c-0.4,0.5-1,0.6-1.7,0.7
	c-0.7,0.1-1.7-0.5-2-1.2c-2.3-4.7-6.5-7.6-11.3-9.4c-0.1,0-0.1-0.2,0-0.2c6.1-0.9,11.7,2.5,15.3,7.3
	C737.7-301.4,737.2-300.2,736.6-299.4z"/>
<path class="st2" d="M753.1-253.1c0.1,0,0.1,0.1,0.2,0.1c0.1-0.1,0.1-0.2,0.2-0.3C753.4-253.2,753.3-253.1,753.1-253.1z"/>
<path class="st2" d="M799.3-261.1c5.2,5.1,13.2,5.5,20,4.6c0.2,0,0.5-0.1,0.7-0.1c-0.6-1.3-1.2-2.6-2-3.8c-0.4-0.6-0.8-1.1-1.2-1.6
	c0,0-0.1,0.1-0.1,0.1c0-0.1-0.1-0.2-0.1-0.3c-0.8-0.9-1.7-1.7-2.6-2.5C808.8-266.2,798.2-262.2,799.3-261.1z"/>
<path class="st2" d="M776.2-242.6c-3.6-2.8,1.2-9,4.9-6.4c12.6,8.8,28.4,12.6,43.3,9.2c-0.8-3.5-1.4-7.1-2.2-10.6
	c-2.1,0.3-4.2,0.6-6.3,0.7c-8.2,0.4-17.4-1.9-22.8-8.5c-3.1-3.8-4.6-8.8-4.1-13.5c-8.6-0.3-17.3,0.6-23.6,1.6
	c-6.5,1.1-9.6,6.2-11.6,11.9c1,1.1,1.5,2.2,1.1,3.6c-0.1,0.2-0.2,0.4-0.3,0.6c1-0.4,2.4-0.3,3.1,0.6c0.8,0.9,1,2.2,0.9,3.6
	c6,3.4,12.4,6.2,19,8.2C777.1-241.9,776.6-242.2,776.2-242.6z"/>
<path class="st2" d="M757.6-253.4c-0.7-0.8-2.1-1-3.1-0.6c-0.1,0.1-0.1,0.2-0.2,0.3c-0.2,0.2-0.5,0.3-0.7,0.5
	c-0.1,0.1-0.1,0.2-0.2,0.3c1.7,1.1,3.5,2.2,5.2,3.2C758.6-251.2,758.4-252.5,757.6-253.4z"/>
<path d="M748.8-256.1c-2-1.5-2.4-3.5-1.9-5.2c-6.5-5.6-11.3-13.7-12.7-22.3c-0.4-1.5-2.3-1.5-3.7-1.8c-8.7-1.5-19-4.2-20.6-14.4
	c-2.1-19.7,17.3-23.6,7.9-46.9c-5.5-20.9-30.6-54.2-12.2-72.7c3.9-3.9,9.5-6.1,14.9-5c34.9-16.6,75.2-21.3,113-12.7
	c1.8-0.7,3.6-1.3,5.5-1.9c1.7-0.5,3.5-0.8,5.2-1.3c2.5-0.7,3.9-2.2,4.8-4.6c0.4-1.1,0-2.7-0.9-3.4c-2.3-2-4.5-2.4-7.3-1.4
	c-1.8,0.7-3.6,1.5-5.4,2.3c-3.1,1.4-6.2,3.1-9.1,4.9c3.4-3.2,8.6-7,5.5-12.2c-1.5-2.4-4.4-3-6.9-1.8c-1.9,1-2.6,3-4.1,4.3
	c-1.6,1.4-3.1,2.6-4.5,4.2c-0.1,0.1-0.2,0.2-0.3,0.4c-0.2-0.1-0.4-0.1-0.6-0.1c1.2-1.9,2.4-3.8,3.8-5.6c1.7-2.4,0.4-6.1-2-7.5
	c-2.7-1.6-5.9-0.5-7.5,2c-1.4,2.2-2.8,4.3-4,6.6c-0.5,0-0.9,0.1-1.4,0.3c-0.3,0.1-0.6,0.2-0.8,0.3l0.9-2.1l0.1-0.1
	c1.1-0.6,2.1-1.6,2.3-2.9c0.5-2.7-0.3-5.2-2.8-6.6c-2.3-1.3-5.6-1-7.4,0.9c-1.5,1.5-2,3.9-2.7,5.8c-0.7,1.8-1.4,3.6-2.1,5.3
	c-0.7-0.1-1.3-0.2-2-0.1c0.4-1.4,0.9-2.8,1.4-4.1c0.4-0.7,0.6-1.5,0.8-2.3l0.1-0.2l0,0l0,0c0.1-0.5,0.2-0.9,0.2-1.4
	c0.3-2.7-2.3-5.1-4.7-5.4c-2.7-0.3-5.1,1.3-6,3.9c-0.1,0.5-0.3,0.9-0.4,1.4c-1.2,3.8-2.2,7.7-2.9,11.6c0.1-1.2,0.2-2.4,0.3-3.5
	c0.4-2.7,1.5-5.4,1.4-8.1c-0.1-5.2-7.1-7.1-9.8-2.6c-1.6,2.6-1.9,6.1-2.2,9.1l-0.1,1.3c0,0.4-0.1,0.8-0.1,1.1
	c-0.4,0-0.7,0.1-1.1,0.2c-0.6-2-1.1-4-1.5-6c-0.6-2.9-4-4.6-6.7-3.8c-3,0.8-4.4,3.8-3.8,6.7c0.7,3.1,1.4,6.1,2.4,9.1
	c-0.2,0.2-0.4,0.4-0.5,0.6c-0.7-1.3-1.4-2.5-2-3.8c-1.2-2.2-2.2-4.7-4-6.5c-3.9-3.7-9.4-0.1-8.8,4.8c-1.2-1.4-3.2-2.2-4.9-2
	c-3.4,0.5-4.8,3.5-4.4,6.6c0.3,2.1,1.4,4.2,2.2,6.1l0.2,0.4l0.2,0.4l0,0l-0.2-0.5c-0.6-1.3-1.3-2.6-2-3.9c-3-5.5-10.9-1.6-9.9,3.7
	c-1.5-1.3-4-1.7-5.7-0.9c-2.9,1.2-3.7,4.1-2.8,6.8c-0.4-0.4-0.9-0.8-1.2-1c-2.6-1.6-5.5-0.3-7.2,1.9c-0.8,1.1-1.1,2.3-1,3.5
	c-1.5-0.7-3.3-0.8-4.9,0.1c-2.1,1.2-3,3.7-2.4,6c0.5,1.8,1.6,3.6,2.9,5.1c-1.3-1.1-2.6-2-4-2.9c-1.6-1-3.8-0.9-5.4,0
	c-1.8,1.1-2.5,2.6-2.6,4.6c-0.1,1.9,1.1,3.7,2.6,4.6c0.1,0,0.1,0.1,0.2,0.1c-2-0.5-4-0.7-5.8-0.2c-4.3,1.1-4.8,7-1.2,9.2
	c0.8,0.5,1.6,0.8,2.5,1c-0.3,0-0.6,0-0.9,0c-1.8,0-3.7,1-4.6,2.6c-0.1,0.2-0.2,0.3-0.3,0.5c-0.9,1.7-0.8,4.3,0.7,5.6l0.4,0.3
	c0.4,0.4,0.9,0.7,1.5,1c-0.9,0.8-1.6,1.8-2,3.1c-0.6,1.8,0.4,4.2,2,5c2.6,1.3,5.2,0.7,7.8-0.1c-0.4,3.4,0.1,7,0.6,10.3l0.2,1.5
	c0.9,5.8,2.3,11.4,4,17c1.8,5.8,4,8.2,6.6,13.6l0.1,0.2c1,2.2,2.8,5.7,4,7.8l0.2,0.3c1.5,2.6,2.9,5.5,5,7.7c0.4,0.4,0.8,0.7,1.2,1
	c-2,1.5-3.8,3.3-5.3,5.4c-7.4,10.9-3.4,27.3,8.8,32.8c3.9,1.8,10.2,3.1,14.9,1.7c0.9,6.1,3,11.8,6.5,17c2,2.9,4.2,5.6,6.7,8.1
	l0.2,0.2c1.7,1.7,4.6,5,7.2,5.2c0.1-0.2,0.1-0.4,0.2-0.7C751.1-254.4,749.9-255.3,748.8-256.1z"/>
<path d="M704.7-396.8c0.4-1.2,0.8-2.3,1.3-3.4c-1-0.3-1.8-0.8-2.4-1.6c0.1,1.9,0.4,3.9,0.8,5.8C704.4-396.3,704.5-396.6,704.7-396.8
	z"/>
<path d="M869-346c3.8,29.9,6,63-12.6,88c-2.8,3.3-13,14.6-31.9,19.1c0.1,0.4,0.2,0.9,0.3,1.3c0.1,0.2,0.1,0.5,0.2,0.7
	c0.6-0.1,1.2,0,2,0.5c0.9,0.5,1.4,1.9,1.6,3.5c15.1-4.6,28.7-15.7,35.8-29.8c4.7-9.3,6.3-19.6,7.2-29.9c0.8-9,1.1-18.1,1-27.2l0-2.7
	c-0.1-18.9-2.3-35.2-9.8-52.8c-3.4-7.9-7.8-15.6-13.3-22.3c5,8.5,13.1,23.5,15.2,32.4C869.7-344.8,866.4-366.9,869-346z"/>
<path d="M709.1-418.1c2.8-2,5.7-3.6,8.8-5.1C714.6-422.6,711.5-420.7,709.1-418.1z"/>
<path d="M846.1-403.1c0.7,1,1.9,2.9,3.4,5.5c1.1,0.7,2.1,1.4,3.1,2.1c3.7,2.8,6.4,8,11.3,8.5c1.9,0.2,3.8-1.5,4.3-3.3
	c1.4-5.6-4.7-10.2-8.7-13.2l-0.7-0.5c-1.5-1.1-3.1-2.1-4.7-3c1.9,0.4,3.8,0.9,5.6,1.4c1.8,0.6,3.5,1.2,5.1,2.1
	c2.3,1.2,4.5,2.8,7.2,2.6c2.9-0.2,5.3-2.8,4.4-5.8c-1.4-4.9-7.7-7.2-12.3-8.6l-0.7-0.2c-2.4-0.7-4.8-1.2-7.3-1.6
	c1.2,0.2,2.4,0.3,3.6,0.5c2.3,0.4,4.7,0.8,7,1.2c2.4,0.5,5.1,1.5,7.5,1.2c5-0.6,7.2-6.6,2.6-9.7c-2.1-1.4-4.8-1.7-7.2-2.2l-1-0.2
	c-2-0.4-4-0.7-6-1c-2.9-0.4-5.8-0.8-8.7-1.1c3,0,4.8-0.5,6.5-3.1c0.9-1.3,0.8-3.5,0-4.8c-2.6-4-7.6-3.3-11.8-2.9l-1.2,0.1
	c-3.5,0.3-7,0.9-10.4,1.7c-0.7,0.2-1.3,0.3-2,0.5c5.5,1.3,11.3,2.6,15.7,6.3C860.8-422.2,842.8-413.7,846.1-403.1z"/>
<path d="M753.1-253.1c-0.3-0.2-0.6-0.4-0.9-0.6c-0.1,0.2-0.1,0.4-0.2,0.7C752.5-253,752.8-253,753.1-253.1z"/>
<path d="M825-236.9c-0.1-0.2-0.1-0.5-0.2-0.7c-0.1-0.4-0.2-0.9-0.3-1.3c-3.7,0.9-7.8,1.5-12.3,1.7c-11.7,0.6-23.5-0.9-34.7-4.4
	c12.7,9.2,29.1,12.9,44.5,10.2c0.1-0.8,0.3-1.6,0.5-2.4C823.1-235.3,823.8-236.7,825-236.9z"/>
<path d="M827-236.5c-0.8-0.5-1.4-0.6-2-0.5c0.4,1.6,0.8,3.1,1.2,4.7c0.4-0.1,0.7-0.2,1.1-0.3c0.4-0.1,0.9-0.3,1.3-0.4
	C828.4-234.5,827.9-235.9,827-236.5z"/>
<path d="M822.6-233.8c-0.2,0.8-0.4,1.6-0.5,2.4c1.4-0.2,2.8-0.5,4.1-0.9c-0.4-1.5-0.8-3.1-1.2-4.7
	C823.8-236.7,823.1-235.3,822.6-233.8z"/>
<path d="M721.7-309.5c-0.1,0-0.1,0.2,0,0.2c4.8,1.8,9,4.8,11.3,9.4c0.3,0.7,1.3,1.3,2,1.2c0.7-0.1,1.2-0.1,1.7-0.7
	c0.6-0.7,1-2,0.4-2.8C733.4-307.1,727.8-310.5,721.7-309.5z"/>
<path d="M720.5-424.5c-5.4-1.1-11,1.1-14.9,5c-18.4,18.5,6.7,51.9,12.2,72.7c9.4,23.3-10,27.2-7.9,46.9
	c1.6,10.2,11.9,12.9,20.6,14.4c1.4,0.3,3.3,0.4,3.7,1.8c1.4,8.6,6.2,16.8,12.7,22.3c-0.6,1.7-0.1,3.7,1.9,5.2
	c1.2,0.9,2.3,1.7,3.5,2.5c0.4-1.5,0.9-3.1,1.4-4.6c-1.3-1.4-3.3-2.6-4.4-3.7c-2.4-2.2-4.5-4.7-6.5-7.3c-3.4-4.8-6.4-9.9-8.8-15.3
	c1-0.6,1.8-1.4,2.4-2.5c1-1.5-0.3-3.3-2-3.4c-2.9-0.2-5.4,1.1-8.3,1.1c-2.7,0-5.5-0.6-7.9-1.9c-5-2.7-7.9-7.9-8.1-13.6
	c-0.1-5.7,2.5-11.1,7.2-14.5c2.3-1.7,4.9-2.9,7.7-3.6l0.1,0c2.2-0.6,8.9-2,9.8,1c-1.8-1.2-4-1.7-6.3-1.5c-0.3,0-0.4,0.5-0.1,0.6
	c2.7,0.5,5,1.8,6.6,4c0.2,0.2,0.3,0.5,0.4,0.7c0.4,0.6,1.4,0.9,1.9,0.2c3.2-4,3-9.3,2.6-14.2L740-334c-0.2-2.2-0.4-4.4-0.1-6.6
	c0.4-2.8,1.5-2.4,2.5-5c2.2-5.6,4.1-11.1,4.7-17.1c0.6-5.9-0.2-11.5-1.4-17.2l-0.3-1.4c-0.4-1.8-0.7-3.7-0.3-5.5
	c2.7-2.6,6.4-4.1,10.1-5.3l0.6-0.2c6.8-2.1,13.6-4.1,20.6-5.6c10.1-2.2,20.4-3.6,30.8-4.1c0,0,0,0,0,0c2.9,3.6,5.7,7.2,8.2,11.1
	c2.4,3.7,4.4,9.6,9.8,9.2c1.1-0.1,2.2-0.7,2.8-1.6c2.9-4.6-1.2-9.2-4-12.8l-0.9-1.2c-0.6-0.8-1.2-1.5-1.9-2.3c0.7,0.5,1.4,1,2.1,1.5
	c3,2.1,5.9,4.3,8.7,6.7c3.2,2.8,6.5,7.4,11.3,6.3c1.3-0.3,2.7-1.6,2.9-2.9c0.9-5-3.7-8-7.3-10.6l-1.2-0.8c-0.9-0.6-1.8-1.3-2.7-1.8
	c0.9,0.1,1.8,0.2,2.7,0.3c1.8,0.2,3.6,0.7,5.4,0.3c5.8,6.2,10.6,13.3,14.3,21c7.9,16.3,10.5,31.1,10.5,49c0,9.7-0.6,19.3-1.7,28.9
	l-0.1,0.6c-1,9.2-1.9,18.6-4.8,27.4c-4.6,13.9-15.5,25.9-29,31.5c-2.6,1.1-5.2,1.9-7.9,2.5c0.1,0.3,0.1,0.6,0.2,0.9
	c18.9-4.5,29.1-15.8,31.9-19.1c18.6-25.1,16.3-58.2,12.6-88c-2.6-20.8,0.7,1.2-4.2-19.2c-2.1-8.8-10.2-23.9-15.2-32.4
	c0-0.1-0.1-0.1-0.1-0.2c0,0,0,0,0.1,0c-1.5-2.5-2.7-4.5-3.4-5.5c-3.3-10.6,14.8-19,4.9-27.3c-4.4-3.7-10.2-5-15.7-6.3
	c-1.4,0.4-2.8,0.8-4.1,1.2c-0.2-0.1-0.4-0.3-0.5-0.4c0.9-0.4,1.9-0.8,2.9-1.2C795.8-445.8,755.4-441.1,720.5-424.5z M718-423.2
	c-3.1,1.5-6.1,3.1-8.8,5.1C711.5-420.7,714.6-422.6,718-423.2z M712.9-395.7c-2.3,0.4-4.5,0.8-6.8,1.2c-1.1,0.2-1.8-0.8-1.7-1.6
	c-0.4-1.9-0.7-3.8-0.8-5.8c0.5,0.8,1.4,1.4,2.4,1.6c-0.5,1.1-0.9,2.3-1.3,3.4c0.2-0.2,0.4-0.3,0.7-0.4c2.3-0.4,4.5-0.8,6.8-1.2
	C714-398.6,714.7-396,712.9-395.7z M717.8-412.4l-6-2.4c-1.6-0.7-0.9-3.3,0.7-2.7l6,2.4C720.2-414.5,719.5-411.8,717.8-412.4z
	 M730.3-393.2l-0.2,0.2c-0.8,0.9-1.5,2.1-2,3.2l-0.4,0.7c-0.8,1.6-3.2,0.2-2.4-1.4c0.8-1.7,1.7-3.3,3-4.7
	C729.6-396.5,731.6-394.5,730.3-393.2z M838.2-424.2l0.2,0.1c1.1,0.7,2.3,1.2,3.3,2.1c1.3,1.2-0.7,3.2-2,2l-0.2-0.1
	c-0.8-0.7-1.9-1.1-2.7-1.6C835.3-422.7,836.7-425.1,838.2-424.2z M817.5-413.9c2.6,0.9,5.1,1.7,7.5,2.9c1.6,0.8,0.2,3.2-1.4,2.4
	c-2.2-1.1-4.5-1.9-6.9-2.7C815.1-411.8,815.8-414.5,817.5-413.9z"/>
<path d="M781.1-248.9c-3.7-2.6-8.5,3.5-4.9,6.4c0.5,0.4,1,0.7,1.4,1c11.2,3.5,22.9,5,34.7,4.4c4.4-0.2,8.5-0.9,12.3-1.7
	c-0.1-0.3-0.1-0.6-0.2-0.9C809.4-236.4,793.7-240.1,781.1-248.9z"/>
<path d="M754.2-253.8c0.1-0.1,0.2-0.1,0.3-0.1c0.1-0.2,0.3-0.4,0.3-0.6c0.4-1.4-0.2-2.6-1.1-3.6c-0.5,1.5-1,3-1.4,4.6
	c0.3,0.2,0.6,0.4,0.9,0.6c0.1,0,0.2-0.1,0.4-0.1C753.7-253.5,754-253.7,754.2-253.8z"/>
<path d="M753.5-253.2c0.3-0.1,0.5-0.3,0.7-0.5c0.1-0.1,0.2-0.2,0.2-0.3c-0.1,0-0.2,0.1-0.3,0.1C754-253.7,753.7-253.5,753.5-253.2z"
	/>
<path d="M832-252.5c3.9-1,10.7-2.6,10.7-7.7c0-1.1-0.9-1.8-1.9-1.9c-1.4-0.1-2.5,0.3-3.7,0.8l-0.3,0.2l-0.5,0.2l-0.2,0.1
	c0.1-0.5,0-1-0.1-1.6l-0.1-0.5c-0.7-2.7-0.8-5.6-1.2-8.4c-0.2-1.4-0.4-2.8-0.6-4.3c-0.1-0.6-0.2-1.3-0.3-1.9c0-0.2-0.1-0.5-0.1-0.8
	c3.8-0.4,8.2-1,11.5-3c0.3-0.2,0.2-0.7-0.2-0.7c-2.4-0.1-4.8,0.4-7.1,0.4c-2.4,0-4.8,0-7.3-0.4c-5.1-0.7-10.1-2.4-15.1-3.5
	c-7.9-1.6-17.4-1.2-23.1,5.4c-2.1,2.4-3.2,5.3-3.5,8.3c9.5,0.4,18.9,2.2,25.2,7.1c1.3,0.4,2.3,1.2,2.6,2.5c0,0.1,0.1,0.1,0.2,0.2
	c2.8-4.7,12-4.2,12.8,3.3c-3.2,0.8-6.4,1.5-9.6,2c0.9,2,1.5,4.1,2,6.3c3-0.5,5.9-1.1,8.8-1.8L832-252.5z M829.7-274.6
	c-0.9-0.2-5.7,0.1-6.4,0.2l-2,0.2l-2,0.2c-2.9,0.3-5.7,0.6-8.6,0.8l-1.2,0.1c-4.6,0.4-9.1,0.9-13.7,1.6c0.4-1.9,1.4-3.7,3.1-5.1
	c4.8-3.7,11.4-3.3,17.2-2.6l0.9,0.1l2.4,0.3l0.6,0.1c3.4,0.5,6.8,0.7,10.2,0.6C829.9-277.2,829.8-275.4,829.7-274.6z"/>
<path d="M840.7-343.7c-0.7-1.9,4.3-1.9,5.3-1.8l0.3,0c1.6,0.2,3.3,0.7,4.8,1.4c1.5,0.8,2.9,1.7,3.9,3c1.4,1.6,1.8,3.5,3.6,4.8
	c1.7,1.2,4.6,0.1,5-2c1.2-6.7-8-11.4-13.5-11.9c-2.8-0.2-5.8,0.4-8.2,1.9c-1.5,1-3.3,3.2-1.7,4.9
	C840.3-343.1,840.8-343.4,840.7-343.7z"/>
<path d="M847.1-333.4c-2.6,0-4.2,4.4-4.5,8.9l0,0.4c-0.2,2.8,0.6,9.5,4.5,9.5c3.9,0,5.9-6.1,6-9.1l0-0.1
	C853.1-326.6,851.3-333.4,847.1-333.4z"/>
<path d="M782.4-332.6c0.4,0,0.8-0.4,0.8-0.8c-0.1-1.4,0.6-2.7,1.4-3.8l0.4-0.5l0.4-0.6c1.2-1.7,2.6-3.4,4.2-4.6
	c3.8-2.8,7.8-1.9,12.2-2.1c1.8-0.1,2.7-1.8,1.9-3.4c-1.6-3.5-6.2-4.5-9.7-4c-3.7,0.6-7,2.4-9.5,5.2c-2.4,2.7-4.1,6-4.7,9.5
	C779.6-335.9,779.9-332.7,782.4-332.6z"/>
<path d="M835.9-303.9c0.1-0.1,0-0.1-0.2,0l-0.2,0.1v0.1c0,0,0.1,0,0.1-0.1L835.9-303.9L835.9-303.9z"/>
<path d="M802.3-323.1c-0.3-4.7-1.9-9.3-4.5-9.3c-4.2,0-6,6.7-6,9.7l0,0.1c0,3,2.1,9.1,6,9.1c3.9,0,4.7-6.4,4.5-9.4L802.3-323.1z"/>
<path d="M817.8-298.4c22.7,16.8,31.8-13.8,14.1-16.8c-2-0.3-2.7,1.8-1.8,2.5c3.5,2.1,8.8,7.1,5.1,12.3c-4.4,4.6-10.8-0.7-13.9-3.1
	C818.4-305.4,815.1-300.6,817.8-298.4z"/>
<path d="M819.3-256.5c-6.8,0.9-14.8,0.5-20-4.6c-1.1-1.1,9.6-5.1,14.8-3.5c-6.2-4.9-15.7-6.7-25.2-7.1c-0.5,4.7,1,9.7,4.1,13.5
	c5.4,6.7,14.6,8.9,22.8,8.5c2.1-0.1,4.2-0.4,6.3-0.7c-0.5-2.2-1.2-4.3-2-6.3C819.8-256.6,819.6-256.6,819.3-256.5z"/>
<path d="M816.8-262c0-0.1-0.1-0.1-0.2-0.2c0,0.1,0.1,0.2,0.1,0.3C816.8-261.9,816.8-262,816.8-262z"/>
</svg>
