<?xml version="1.0" encoding="utf-8"?>
<!-- Generator: Adobe Illustrator 24.0.2, SVG Export Plug-In . SVG Version: 6.00 Build 0)  -->
<svg version="1.1" id="Layer_1" xmlns="http://www.w3.org/2000/svg" xmlns:xlink="http://www.w3.org/1999/xlink" x="0px" y="0px"
	 viewBox="0 0 360 360" style="enable-background:new 0 0 360 360;" xml:space="preserve">
<style type="text/css">
	.st0{fill:#FF4500;}
	.st1{fill:#FFFFFF;}
	.st2{fill:#ED1C24;}
</style>
<path class="st0" d="M-355.1,458c4.2-1.1,19.5-10.7,22.5-6.4c1.1-0.1,2.3-0.3,3.4-0.4c2-0.4,3.9-0.8,5.9-1.2
	c1.6-0.6,3.1-1.4,4.2-2.6c1.6-3.6,2.6-7.4,3-11.3c0.4-1.8,0.1-3.8,0.2-5.7c-3.8-2.2-7.4-4.6-10.4-7.7c-3.2-3.2-5.5-6.9-7.3-11
	c-3.6-3.6-6.9-7.6-9.6-12c-3.2,2.1-7.8,2.4-11,0.2c-1.7-1.1-2.9-3.1-3.6-5.1c-0.6,0.1-1.2,0.2-1.7,0.2c-0.3,0.2-0.6,0.3-0.9,0.5
	c-2.4,1.2-5.3,0.7-6.4-2c-1-2.4,0-5.1,0.9-7.4l0.2-0.5c0.5-1.3,1.1-2.7,1.8-4.1c-1.9-1.4-3.6-3.3-5-5.3c-4.7-6.9-7-17-6-25.2
	c0.6-5,2.9-10.1,6.8-13.5l-0.1-0.4c-1.1-2.7-2.1-5.4-2.7-8.3c-0.7-3.4-1.1-6.8-1.4-10.2c-0.7-7.2-0.5-14.6,0.4-21.8
	c1.7-13.5,6.1-26.8,13.9-38.1c-2.2-2.7-4-5.7-3-9.3c0.4-1.6,1.4-3.2,2.8-4.2c0.8-0.5,1.7-0.6,2.5-1l0.2-0.1c0.3-0.2,0.1-0.2-0.1-1.1
	c-0.8-3.7-0.1-7.4,4-8.6c3.9-1.2,7.6,1.3,9.9,4.3c6-4.3,14-6.5,21-8.4c7.8-2.4,15.9-3.7,24.1-4.6c16.8-1.7,33.2-0.3,49.7,2.7
	c1.3,0.2,2,1.1,2.2,2.1c7.8,0.4,15.6,0.9,23.3,1.4c2.8,0.1,4.4,2.9,3.1,5.5c-0.2,0.5-0.5,1-0.8,1.4l0.3-0.1c2.3-0.7,4.9-1.1,7.2,0.1
	c2.9,1.5,4,4.9,3.4,7.9c-0.2,0.8-0.4,1.5-0.7,2.3c0.7,0,1.3,0,1.9,0c3.4,0.5,5.9,3,6.1,6.5c0.3,5.2-3.1,10.5-7.1,14.3
	c0.6,1.2,0.8,2.6,0.6,4c-0.5,2.8-2.5,4.4-4.9,5.6c1,3.2,1.4,6.4,1.2,9.8c-0.1,1.1-1.1,2.1-2.1,2.3c3.9,10.7,5.8,22.1,7.2,33.3
	c1,7.9,1.5,15.9,1.5,23.9c0,3.6,0,7.2-0.2,10.8l0,1.4c-0.2,3.9-0.2,8-0.9,11.9c2.4,4.1,3.4,9.1,3.7,13.7c0.5,5.7-0.3,11.4-2.1,16.8
	c-1,3.1-2.4,6.1-4,8.8c-1.5,8.1-4.3,15.8-9.3,22.3c-3.3,4.2-7.3,7.4-11.8,9.7c-2.7,2-5.7,3.6-8.8,4.9c0.5,2,0.9,3.6,1.4,4.2
	c0.2,0,0.4,0.1,0.6,0.1c0,0.4,0.3,0.7,0.7,1c2.1,1.6,8.5,2.2,10.4,3.2c1.8-3.1,6.2-1.9,8.9-0.6c4,1.5,8.6,2.5,11.8,5.2
	c38.3,16,59.9,53.9,68.7,93h20.1V195h-360v360h12C-443.9,508.6-404.7,472.7-355.1,458z"/>
<path class="st1" d="M-228.3,467.7c1.4,0.1,2.5,2.2,0.8,3c-9.3,3.9-11.8-11.5-13.6-17.5c-0.4-0.9-0.7-1.9-1-2.9
	c-6.7,1.8-13.8,1.6-20.6,0.4c-7.1-1.2-14.1-3.6-20.6-6.5c-7.5-2.3-14.9-5.2-21.9-8.5c-2.2-1-4.4-2.1-6.6-3.2c0,0.1-0.1,0.2-0.1,0.4
	c1.4,8-0.5,16.5-4.6,23.5c-4.3,9.8-15.6,7.6-6.7-2.4c-12.2,1.8-18,7.8-11.2,18.7c9.6,31.9,131.3,34.3,111.2-11.9
	c-0.7-0.4-5.4-1.7-8.9-3.1c-1.2-0.1-2.3-0.4-3.2-1.2C-233.7,460.4-232.6,466.5-228.3,467.7z"/>
<path d="M-213.1,459.7c-2.8-0.6-7-3.7-9.3-1.6c-3-1.2-6.6,0-9.7-0.3c3.5,1.3,8.2,2.7,8.9,3.1c20.1,46.2-101.6,43.8-111.2,11.9
	c-6.8-11-0.9-17,11.2-18.7c-8.9,10,2.4,12.2,6.7,2.4c4.1-7,6-15.5,4.6-23.5c0-0.1,0.1-0.2,0.1-0.4c-1-0.5-2-1.1-3.1-1.6
	c-1,4.2-0.9,8.7-2.2,12.8c-0.5,1.5-1.2,2.7-2.1,3.6c-0.3,0.7-0.6,1.3-1,2c-1.1,0.2-2.2,0.4-3.2,0.6c-1.8,0.6-3.8,1-5.9,1.2
	c-1.1,0.2-2.1,0.5-3.2,0.7c-0.1-0.1-0.1-0.2-0.2-0.3c-3.5,0.4-6.9,1.1-9.5,2.9c-52.9,17.1-97.4,49.7-118.3,100.5h323.4
	C-146.7,512.3-172.3,473.9-213.1,459.7z M-320.5,450.3c-0.1,0.1-0.2,0.3-0.3,0.5c-0.6,0-1.2,0.1-1.9,0.2
	C-321.9,450.7-321.2,450.5-320.5,450.3z"/>
<path class="st1" d="M-348,344.2c-0.2-0.4-0.6-0.8-0.8-1.2l-0.1,0.1c-0.2,0.3-0.7,0-0.6-0.3l0.1-0.3c-1.1-1.2-2.4-2.1-3.6-3.1
	c-2.8-0.5-6,0-7.9,1.2c-4.4,2.6-6.4,8-6.5,13c0,5.8,1.7,12.3,4.8,17.3c1.4,2.2,3.2,4.2,5.6,5.1c2.4,1,5,0.7,7.4,1.6
	c1.6,0.6,2.6,2.4,1.6,4c0,0.1-0.1,0.2-0.2,0.3l0.7,1c0.5,0.7,1,1.4,1.5,2.1c1.3,1.4,2.6,2.8,3.8,4.2c1.1,1.2,2.1,2.4,3.2,3.6
	c-0.2-1.1-0.4-2.2-0.6-3.3c-0.8-4.7-1.5-9.4-2-14.2c-0.5-4.8-0.8-9.6-1-14.4c-0.1-3.4-0.6-7.5,0.2-11c-0.4,0-0.8-0.1-1.2-0.2
	C-346.2,348.7-346.8,346.4-348,344.2z M-350.1,360.5c-2.1-1.4-3.6-3.8-5-5.9l-0.1-0.2c-0.7-1-1.2-2-2.1-2.8l-0.2-0.2
	c-0.3-0.2-0.6-0.5-1-0.6c-0.7-0.2-2.1,0.1-2.4,0.9l0,0.1c-0.1,0.5-0.7,0.4-0.7-0.1c0-3,2.9-5,5.7-4.4c1.9,0.3,3.5,1.5,5,2.7l0.7,0.6
	c1.8,1.4,3.9,3,5,5C-343.6,358.5-346.9,362.6-350.1,360.5z"/>
<path class="st1" d="M-275.3,408.6c0.6,0.2,1.2,0.5,1.9,0.7c1-0.3,2-0.7,3-1c4.3-2,8.2-5,12.4-6.8c8.6-3.5,18.6-2.7,26.8,1.4
	c1.6,0.6,3.2,1.3,4.9,1.8c1,0.3,2.1,0.7,3.3,0.8c2.3-2.5,4.1-5.6,5.4-8.8c-2.1-0.1-4.3-0.8-6.1-1.6c-3.5-1.5-6.6-3.7-10.2-5
	c-7.6-2.7-15.7-1.5-23.2,0.7c-8.1,2.3-15.7,5.9-23.8,8.2c-2.7,0.7-5.6,1.4-8.6,1.9c0.5,0.6,1,1.2,1.4,1.8
	C-284,404.9-279.7,407-275.3,408.6z"/>
<path class="st1" d="M-213.4,369.9c0.2-3.3,0.8-6.7,1-10c0.2-3.8,0.4-7.5,0.4-11.3c0.1-7.9-0.2-15.7-0.9-23.5
	c-1.2-14.3-4.4-28.2-6.3-42.4c-0.7,0.6-1.7,0.9-2.8,0.3l-0.1,0l-0.6-0.3c0,0-0.1,0-0.1,0c-3.9,0.4-7.9-0.1-11.7-1.3
	c-3.9-1.2-7.5-3.1-10.8-5.6c-0.6,3.1-0.9,6.3-0.9,9.5c0,2-2.1,3-3.8,2.2c-7.4-3.8-14.5-8.1-21.2-13c-0.8,4-1.6,8-2.4,12.1
	c-0.3,1.5-2.3,2.2-3.6,1.4c-5-2.9-9.4-6.8-12.9-11.3c-0.7,1.4-1.4,2.7-2.1,4.1l-1.1,2c-1.1,2-2.5,4.2-4.8,4.8
	c-2.5,0.7-4.5-0.9-5.3-3.1c-0.2-0.7-0.5-1.4-0.7-2.1c-2.1,4.8-4.4,9.4-7.2,13.9c-4,6.7-8.8,12.7-13.6,18.7c-1.4,1.9-4,0.1-4.2-1.7
	c-0.1-1.1-0.2-2.1-0.3-3.2c-2.8,5.7-5.7,11.2-8.9,16.7l0.5,1.8c1.3,5.3,2.4,10.6,3.6,15.9c0.1,0.4,0.1,0.9,0,1.4c0,0,0.1,0,0.1,0.1
	c2.6,2.2,13.2,26.9,17.2,32.4c4.2,5.6,8.8,10.9,14,15.6c0.1,0,0.2,0.1,0.3,0.1c7-1.8,13.3-5.2,18.4-10.7c4.5-4.8,8.2-10.3,13.6-14.3
	c2.6-1.9,5.7-3.3,8.9-3.7c4.4-0.6,8.8,0.7,13.2,0.4c4.2-0.3,8-1.1,12,0.7c3.4,1.5,5.9,4.2,8.5,6.8c3.6,3.6,7.5,6.6,12,8.6
	c0.7,0,1.3,0.2,1.7,0.7c0.2,0.1,0.5,0.2,0.7,0.3c0.4-0.5,1.1-1,1.8-1.6c-0.8-2.6-1.9-5.2-2.7-7.8
	C-214.7,372-214.2,370.8-213.4,369.9z M-307.5,336.2c-0.2,0.2-0.5,0.1-0.5-0.1c-0.8-7.2,2.2-15.7,7.2-20.8
	c4.6-4.7,16.5-9.2,19.7-0.6c0.6,1.6-0.7,3.9-2.4,4.2c-2.8,0.6-5.3-0.7-8.1-0.4c-2.2,0.2-4.6,0.9-6.4,2.3
	C-302.9,324.8-304,331.3-307.5,336.2z M-276.8,340.8c-0.2,1.6-0.5,2.7-1.6,3.9c-1.8,1.9-5.1,0.9-5.8-1.4l0-0.1
	c-0.8-3.1-4.3-5.1-7.3-4c-3.6,1.3-3.5,5.1-6,7.3c-0.3,0.3-0.7,0.3-1,0.1c-2.7-1.3-2.2-5.2-1.3-7.5c1.4-2.9,3.8-5.6,6.9-6.6
	c5.7-1.9,11.8,1.1,14.5,6.1C-277.5,339-276.6,339.7-276.8,340.8z M-245.3,361.4l-0.1,0c-3.9,1.6-10.7,3.4-14.1,0
	c-2.8-2.9,0.9-8,4.4-5.7c1.8,1.2,5.5,0.3,7.5-0.2l0.1,0c2.1-0.6,5-2.7,4.1-5.3c-0.8-2.3-4.1-2.8-6.2-2.9c-3.1-0.1-6.2,0.6-9.3,0.8
	c-0.5,0-0.7-0.7-0.3-0.9c5.7-3.3,20.1-6.6,21,3.7C-237.6,355.8-241.1,359.7-245.3,361.4z M-224.5,345.8c-0.3,1.2-1.6,2.4-2.9,2.2
	l-0.3,0c-0.2,0-0.3,0-0.5-0.1c-1.2-0.3-2.3-1.6-2.2-2.9l0-0.4c0.2-3.3-0.2-7.1-4.1-7.9c-3.3-0.7-5.2,2.5-5.2,5.5
	c0,0.5-0.6,0.9-1.1,0.6c-2.4-1.4-2.8-4.3-1.9-6.9c1.1-3.1,4-5,7.3-5.2C-227.5,330.4-222.7,338.9-224.5,345.8z M-218.1,329.1
	L-218.1,329.1l-0.4,0.4c-1.2,1.1-2.9,1.6-4.5,1.2c-3.5-1-4-3.8-5.2-6.7c-0.8-2-2.2-3.7-3.9-5c-4-3-10.5-3.9-15.2-2.5
	c-0.2,0.1-0.6-0.2-0.4-0.5c0.9-1.2,1.4-2.1,2.6-3.1c1.3-0.9,2.7-1.6,4.1-2.1c3-1.1,6.5-1,9.6,0c3.1,1,5.9,2.8,8.1,5.2
	c1,1.1,1.9,2.3,2.6,3.6c0.4,0.7,0.8,2.1,1.3,2.9C-217,323.7-216,326.9-218.1,329.1z"/>
<g>
	<path d="M-320.8,450.7c0.1-0.1,0.2-0.3,0.3-0.5c-0.7,0.2-1.4,0.4-2.1,0.7C-322,450.8-321.4,450.8-320.8,450.7z"/>
	<path d="M-320.1,449.3c0.4-0.6,0.7-1.3,1-2c-1.1,1.2-2.6,2-4.2,2.6C-322.2,449.7-321.2,449.5-320.1,449.3z"/>
	<path d="M-332.4,451.9c1.1-0.2,2.1-0.5,3.2-0.7c-1.1,0.1-2.3,0.3-3.4,0.4C-332.5,451.7-332.5,451.8-332.4,451.9z"/>
	<path d="M-323.3,449.9c-2,0.4-3.9,0.8-5.9,1.2C-327.1,450.9-325.1,450.6-323.3,449.9z"/>
	<path d="M-355.1,458c-49.6,14.7-88.8,50.6-108.1,97h2.7c20.9-50.8,65.4-83.4,118.3-100.5c2.6-1.9,6-2.5,9.5-2.9
		C-335.6,447.3-350.9,456.8-355.1,458z"/>
	<path d="M-204,462c-3.3-2.8-7.9-3.7-11.8-5.2c-2.7-1.3-7.1-2.5-8.9,0.6c-2-0.9-8.3-1.6-10.4-3.2c-0.4-0.3-0.7-0.6-0.7-1
		c-0.1,0-0.3,0-0.6-0.1c-0.5-0.7-0.9-2.2-1.4-4.2c3.1-1.3,6.1-2.9,8.8-4.9c4.5-2.3,8.5-5.5,11.8-9.7c5.1-6.5,7.9-14.3,9.3-22.3
		c1.6-2.8,3-5.7,4-8.8c1.8-5.4,2.6-11.2,2.1-16.8c-0.4-4.6-1.4-9.6-3.7-13.7c0.7-3.9,0.7-7.9,0.9-11.9l0-1.4
		c0.1-3.6,0.2-7.2,0.2-10.8c0-8-0.5-16-1.5-23.9c-1.4-11.2-3.4-22.6-7.2-33.3c1-0.2,2-1.2,2.1-2.3c0.3-3.4-0.2-6.6-1.2-9.8
		c2.4-1.1,4.4-2.8,4.9-5.6c0.2-1.4,0-2.8-0.6-4c4-3.7,7.3-9,7.1-14.3c-0.2-3.5-2.7-6-6.1-6.5c-0.7-0.1-1.3-0.1-1.9,0
		c0.3-0.7,0.6-1.5,0.7-2.3c0.6-3.1-0.5-6.4-3.4-7.9c-2.3-1.2-4.8-0.8-7.2-0.1l-0.3,0.1c0.3-0.5,0.6-0.9,0.8-1.4
		c1.3-2.5-0.3-5.3-3.1-5.5c-7.8-0.4-15.6-1-23.3-1.4c-0.3-1-1-1.8-2.2-2.1c-16.5-2.9-32.9-4.3-49.7-2.7c-8.2,0.8-16.3,2.2-24.1,4.6
		c-7,1.9-15,4.1-21,8.4c-2.3-3-6-5.5-9.9-4.3c-4.1,1.3-4.8,4.9-4,8.6c0.2,0.9,0.5,0.9,0.1,1.1l-0.2,0.1c-0.8,0.4-1.7,0.5-2.5,1
		c-1.4,1-2.4,2.5-2.8,4.2c-0.9,3.6,0.8,6.6,3,9.3c-7.8,11.3-12.2,24.6-13.9,38.1c-0.9,7.2-1.1,14.6-0.4,21.8
		c0.3,3.4,0.7,6.9,1.4,10.2c0.6,2.9,1.6,5.6,2.7,8.3l0.1,0.4c-3.8,3.4-6.2,8.5-6.8,13.5c-1,8.2,1.3,18.3,6,25.2c1.4,2,3,3.8,5,5.3
		c-0.7,1.4-1.3,2.8-1.8,4.1l-0.2,0.5c-0.9,2.3-1.9,5-0.9,7.4c1.1,2.7,4,3.2,6.4,2c0.3-0.2,0.6-0.3,0.9-0.5c0.6,0,1.1,0,1.7-0.2
		c0.7,2.1,1.9,4,3.6,5.1c3.2,2.2,7.8,2,11-0.2c2.7,4.3,6,8.4,9.6,12c1.8,4.1,4.1,7.9,7.3,11c3,3,6.6,5.5,10.4,7.7
		c-0.1,1.9,0.2,3.9-0.2,5.7c-0.4,3.9-1.4,7.7-3,11.3c0.9-0.9,1.6-2.1,2.1-3.6c1.3-4.2,1.2-8.6,2.2-12.8c1,0.6,2,1.1,3.1,1.6
		c2.2,1.1,4.4,2.2,6.6,3.2c7,3.3,14.3,6.2,21.9,8.5c6.5,2.9,13.6,5.3,20.6,6.5c6.8,1.2,13.9,1.4,20.6-0.4c0.3,1,0.7,1.9,1,2.9
		c1.8,6,4.2,21.5,13.6,17.5c1.6-0.8,0.6-2.9-0.8-3c-4.3-1.2-5.3-7.3-6.9-11.1c1,0.8,2.1,1.1,3.2,1.2c3.1,0.3,6.8-0.9,9.7,0.3
		c2.3-2.1,6.5,1,9.3,1.6c40.8,14.2,66.3,52.6,76,95.3h1.8C-144.1,515.9-165.7,478-204,462z M-342.1,389.2c-1.3-1.4-2.6-2.8-3.8-4.2
		c-0.5-0.7-1-1.5-1.5-2.1l-0.7-1c0.1-0.1,0.2-0.2,0.2-0.3c1-1.6,0-3.4-1.6-4c-2.4-0.9-5-0.6-7.4-1.6c-2.4-1-4.3-2.9-5.6-5.1
		c-3-5-4.8-11.5-4.8-17.3c0-5,2.1-10.4,6.5-13c1.9-1.2,5.1-1.7,7.9-1.2c1.2,1,2.5,2,3.6,3.1l-0.1,0.3c-0.1,0.3,0.4,0.6,0.6,0.3
		l0.1-0.1c0.3,0.4,0.6,0.8,0.8,1.2c1.3,2.2,1.8,4.5,4.4,5.4c0.4,0.1,0.8,0.2,1.2,0.2c-0.8,3.5-0.2,7.6-0.2,11
		c0.1,4.8,0.5,9.6,1,14.4c0.5,4.7,1.2,9.5,2,14.2c0.2,1.1,0.4,2.2,0.6,3.3C-340,391.6-341,390.4-342.1,389.2z M-302.6,393.8
		c-5.1-4.7-9.8-10-14-15.6c-4-5.5-14.6-30.2-17.2-32.4c0,0-0.1,0-0.1-0.1c0.1-0.5,0-1,0-1.4c-1.2-5.3-2.3-10.6-3.6-15.9l-0.5-1.8
		c3.2-5.5,6.1-11,8.9-16.7c0,1.1,0.1,2.1,0.3,3.2c0.2,1.8,2.7,3.6,4.2,1.7c4.8-6.1,9.6-12.1,13.6-18.7c2.7-4.5,5-9.2,7.2-13.9
		c0.2,0.7,0.5,1.4,0.7,2.1c0.8,2.2,2.9,3.8,5.3,3.1c2.3-0.6,3.7-2.8,4.8-4.8l1.1-2c0.7-1.4,1.4-2.7,2.1-4.1
		c3.6,4.5,7.9,8.4,12.9,11.3c1.3,0.7,3.3,0.1,3.6-1.4c0.8-4,1.6-8,2.4-12.1c6.7,4.9,13.8,9.2,21.2,13c1.7,0.8,3.8-0.2,3.8-2.2
		c0-3.2,0.3-6.4,0.9-9.5c3.3,2.5,6.9,4.3,10.8,5.6c3.7,1.2,7.8,1.7,11.7,1.3c0,0,0,0,0.1,0l0.6,0.3l0.1,0c1.1,0.6,2.1,0.3,2.8-0.3
		c1.9,14.2,5,28.1,6.3,42.4c0.7,7.8,1,15.6,0.9,23.5c0,3.8-0.2,7.5-0.4,11.3c-0.2,3.3-0.8,6.7-1,10c-0.8,0.9-1.3,2.2-0.9,3.6
		c0.8,2.7,1.9,5.2,2.7,7.8c-0.7,0.6-1.4,1.1-1.8,1.6c-0.2-0.1-0.5-0.2-0.7-0.3c-0.4-0.5-1-0.7-1.7-0.7c-4.4-2.1-8.4-5-12-8.6
		c-2.5-2.6-5.1-5.3-8.5-6.8c-4-1.8-7.9-1-12-0.7c-4.4,0.3-8.8-1-13.2-0.4c-3.2,0.5-6.3,1.8-8.9,3.7c-5.3,3.9-9,9.5-13.6,14.3
		c-5.1,5.4-11.4,8.9-18.4,10.7C-302.5,393.9-302.5,393.9-302.6,393.8z M-257.9,401.5c-4.3,1.7-8.2,4.8-12.4,6.8c-1,0.4-2,0.7-3,1
		c-0.7-0.2-1.3-0.5-1.9-0.7c-4.5-1.7-8.7-3.8-12.9-6.1c-0.4-0.6-0.9-1.2-1.4-1.8c3-0.4,5.9-1.1,8.6-1.9c8.1-2.2,15.7-5.8,23.8-8.2
		c7.5-2.1,15.7-3.4,23.2-0.7c3.6,1.3,6.7,3.5,10.2,5c1.8,0.8,4,1.5,6.1,1.6c-1.4,3.3-3.1,6.3-5.4,8.8c-1.2-0.1-2.2-0.5-3.3-0.8
		c-1.6-0.5-3.2-1.2-4.9-1.8C-239.4,398.8-249.3,398.1-257.9,401.5z"/>
	<path d="M-350.2,350.5l-0.7-0.6c-1.5-1.2-3.1-2.3-5-2.7c-2.9-0.5-5.8,1.4-5.7,4.4c0,0.5,0.7,0.6,0.7,0.1l0-0.1
		c0.3-0.8,1.7-1.1,2.4-0.9c0.4,0.1,0.7,0.3,1,0.6l0.2,0.2c0.9,0.7,1.4,1.8,2.1,2.8l0.1,0.2c1.4,2.1,2.8,4.5,5,5.9c3.2,2.1,6.5-2,5-5
		C-346.2,353.5-348.3,352-350.2,350.5z"/>
	<path d="M-247.4,355.5l-0.1,0c-2,0.6-5.7,1.4-7.5,0.2c-3.5-2.3-7.2,2.8-4.4,5.7c3.4,3.4,10.2,1.6,14.1,0l0.1,0
		c4.1-1.7,7.7-5.7,7.2-10.4c-0.9-10.3-15.3-7-21-3.7c-0.4,0.2-0.2,0.9,0.3,0.9c3.1-0.2,6.1-0.9,9.3-0.8c2.1,0.1,5.4,0.5,6.2,2.9
		C-242.4,352.8-245.3,354.9-247.4,355.5z"/>
	<path d="M-235.3,330.7c-3.3,0.1-6.2,2.1-7.3,5.2c-0.9,2.5-0.5,5.4,1.9,6.9c0.5,0.3,1.1-0.1,1.1-0.6c0-2.9,1.9-6.1,5.2-5.5
		c3.9,0.8,4.3,4.6,4.1,7.9l0,0.4c-0.1,1.3,1,2.6,2.2,2.9c0.1,0,0.3,0.1,0.5,0.1l0.3,0c1.3,0.1,2.6-1,2.9-2.2
		C-222.7,338.9-227.5,330.4-235.3,330.7z"/>
	<path d="M-278.4,344.8c1.2-1.3,1.4-2.3,1.6-3.9c0.1-1.1-0.8-1.9-1.8-2.1c-2.8-5-8.9-8-14.5-6.1c-3.1,1-5.5,3.6-6.9,6.6
		c-0.9,2.2-1.4,6.2,1.3,7.5c0.4,0.1,0.7,0.1,1-0.1c2.5-2.2,2.4-6,6-7.3c3.1-1.1,6.5,0.9,7.3,4l0,0.1
		C-283.5,345.7-280.2,346.7-278.4,344.8z"/>
	<path d="M-297.9,320.9c1.8-1.4,4.2-2.1,6.4-2.3c2.8-0.2,5.3,1,8.1,0.4c1.7-0.3,3-2.6,2.4-4.2c-3.2-8.6-15.1-4.1-19.7,0.6
		c-5,5.1-8.1,13.6-7.2,20.8c0,0.3,0.3,0.4,0.5,0.1C-304,331.3-302.9,324.8-297.9,320.9z"/>
	<path d="M-247.3,316.4c4.8-1.4,11.3-0.5,15.2,2.5c1.7,1.3,3.1,3,3.9,5c1.2,2.9,1.7,5.7,5.2,6.7c1.6,0.5,3.3,0,4.5-1.2l0.3-0.3
		l0.1-0.1c2.1-2.2,1.1-5.4-1.3-6.8c-0.5-0.8-0.9-2.2-1.3-2.9c-0.7-1.3-1.6-2.5-2.6-3.6c-2.1-2.4-5-4.2-8.1-5.2c-3.1-0.9-6.5-1-9.6,0
		c-1.4,0.5-2.8,1.2-4.1,2.1c-1.2,0.9-1.7,1.9-2.6,3.1C-247.8,316.2-247.5,316.5-247.3,316.4z"/>
</g>
<g>
	<title>peep-11</title>
	<desc>Created with Sketch.</desc>
	<g id="Introduction_2_">
		<g id="variations_2_" transform="translate(-366.000000, -1082.000000)">
			<g id="images_2_" transform="translate(126.000000, 110.000000)">
				<g id="a-person_x2F_bust_2_" transform="translate(240.000000, 972.000000)">
					<g id="facial-hair_x2F__x2A_-None_2_" transform="translate(104.577451, 109.479380)">
					</g>
					<g id="accessories_x2F__x2A_-None_1_" transform="translate(88.521127, 88.978474)">
					</g>
				</g>
			</g>
		</g>
	</g>
</g>
<g>
	<path class="st0" d="M-118-200h-360v360h25.2c1.6-6.8,3.3-13.6,5.2-20.3c5.3-18.8,11.6-37.6,20.5-55.1
		c5.7-11.1,12.6-21.6,20.9-30.8c-3.2-2.7-5.9-6-7.9-9.7c-6.2-10.9-6-23.9-1.3-35.4c2.5-6.1,5.8-11.6,9.8-16.8
		c4-5.2,8.7-9.7,13.4-14.3c1.6-1.6,3-3.1,4.2-4.8c-2-3.4-3.7-6.8-5.1-10.6c-10.4-28.8-0.6-61.9,15.1-86.8
		c7.1-11.3,27.9-36.4,45-42.8c10.6-3.9,29.5-5.2,39.7-0.8c19.5-5.1,57.3-5.1,78.1,34.1c3.5,6.6,6,13.6,8.8,20.5
		c2.9,7.1,5.6,14.2,8.2,21.4c5.2,14.3,10,28.9,13.7,43.7c1.7,6.9,2.9,14.4,0.6,21.3c-1.6,4.7-4.4,8.8-7.6,12.6
		c-3.2,3.8-6.8,7.2-10.2,10.9c-2.9,3.2-6,6.8-7.5,10.9c-4.2,11.7,6.3,20.8,11.6,30c5.9,10.3,7.8,23.2,3.8,34.4
		c8.1,14.7,12.8,31.3,16.9,47.5l0.2,0.6c3.3,13.3,6.3,26.8,9,40.3h49.6V-200z"/>
	<path class="st1" d="M-183.8,116.7c-3-13-6.7-26.8-12.3-39.6c-5.1,9.6-12.9,17.4-24.2,16.1c-1.3-0.2-9.6-4.4-12.6-6.7
		c-0.5-0.4-1-0.8-1.6-1.2c-1.3-1-0.8-3.4,0.5-4.2c4.4-2.4,5.8-6.5,4.5-10.7l-7.4-3.7c-2.2-1.1-4.7-2.8-7.2-3.2
		c-2.3-0.4-4.7,1.3-6.7,2.4l-0.1,0.1c-4.8,2.5-9.6,5-14.3,7.6c-2.3,1.3-4.6,2.6-6.9,3.8c-1.9,1.1-4,2.6-6.2,3.2
		c-0.9,0.7-2,0.6-2.9,0.1c0.4,2.5,0.4,5.1,0.5,7.6c0.2,3.4,0.2,6.8,0.2,10.3l0,0.2c0.1,7.6,0.2,15.1,0.3,22.7
		c0,12.9,0,25.8-0.1,38.7h5.2c-0.1,0-0.2,0-0.3,0c-0.7-0.2-1.3-0.5-1.8-1c-0.5-0.5-0.8-1.1-1-1.8l-0.1-0.5c-0.1-0.7-0.1-1.1,0.1-2.1
		c0.1-0.4,0.4-1,0.5-1.2c0.6-1,1.5-1.7,2.7-2.1c0.6-0.2,1.2-0.2,1.7-0.1c0.4,0,0.8,0.1,1.1,0.3c0.4,0.1,0.7,0.3,1,0.6
		c0.3,0.2,0.6,0.5,0.8,0.8c0.4,0.4,0.6,0.9,0.8,1.5l0.2,1.2l-0.2,1.2l-0.4,1c-0.1,0.2-0.2,0.3-0.4,0.5c-0.2,0.3-0.5,0.6-0.8,0.8
		c-0.2,0.2-0.5,0.4-0.7,0.5c-0.5,0.3-1,0.5-1.5,0.7h74c-0.1-4.4,0.2-8.8,0-13.2c-0.1-4.1-0.5-8.5,0.4-12.5c0-0.1,0.3-0.2,0.3,0
		c0.9,2,1.5,4.1,2,6.3c2.4-3,4.8-6.1,7.4-9c0.2-0.3,0.6,0.1,0.5,0.4c-2.2,4.3-4.7,8.6-7.1,12.8c0.2,1.2,0.4,2.3,0.6,3.5
		c0.8,3.9,1.7,7.8,2.4,11.8h18.5c-2.6-13.9-5.7-27.7-8.9-41.5L-183.8,116.7z M-270.9,112.5c-0.2,0.5-0.5,1-0.9,1.4
		c-0.4,0.4-0.9,0.7-1.4,0.9c-0.5,0.3-1,0.4-1.5,0.4l-0.1,0c-0.8,0-1.5-0.2-2.2-0.6l-0.9-0.7c-0.5-0.5-0.9-1.2-1.1-1.9l-0.2-1.2
		c0-0.6,0.1-1.2,0.4-1.7c0.2-0.5,0.5-1,0.9-1.4c0.4-0.4,0.9-0.7,1.4-0.9c0.5-0.3,1-0.4,1.5-0.4l0.1,0c0.7,0,1.4,0.2,2,0.5l0.1,0.1
		l0.9,0.7c0.5,0.5,0.9,1.2,1.1,1.9l0.2,1.2C-270.5,111.4-270.6,111.9-270.9,112.5z M-213.6,123.8c-1.7,1.2-3.9,0.6-5.8,0.5
		c-2.1-0.1-4.1-0.3-6.2-0.3c-4-0.2-8-0.3-12.1-0.3c-4,0-8,0-12,0.1c-4.1,0.1-8.3,0.4-12.4,0c-0.6-0.1-0.7-0.8-0.1-1
		c3.8-1.3,8.1-1.8,12.1-2.3c3.9-0.5,7.8-0.9,11.7-1.1c4.5-0.3,9-0.4,13.5-0.5c1.7,0,3.3,0,5,0l1.2,0c2.1,0,3.9-0.2,5.5,1.3
		C-211.9,121.3-212.4,123.1-213.6,123.8z"/>
	<path class="st1" d="M-255.8,41.8c-1-2.1-1.7-4.2-2.3-6.4c-1.2,3.1-2.5,6.2-3.8,9.3c-4.6,11-9.5,21.8-14.5,32.6l-0.1,0.2
		c1.1-0.8,2.2-1.5,3.1-2.2c2.2-1.6,4.4-3.2,6.7-4.7c4.7-3.2,9.5-6.3,14.4-9.1l1.3-0.8c2.4-1.4,4.7-2.5,7.6-2.1
		c2.1,0.3,4.2,1.3,6.1,2.3c-2.6-2-5.5-3.8-8-5.8C-249.7,51.5-253.4,47-255.8,41.8z"/>
	<path class="st1" d="M-285.1,116.1c0.2-6.8,0.5-13.6,0.8-20.3c0.1-3,0.3-6,0.5-9.1l0.1-1.3c-0.7-0.8-1.1-1.4-1.8-2.3
		c-2-0.2-3.8-1.4-5.7-2.4c-2.8-1.5-5.7-2.9-8.5-4.4l-2.8-1.5l-3.5-1.8c-0.3,3.4-1,6.7-2.5,9.8c-1.5,3.1-4,6.1-7,7.7
		c-1.8,1-4.9,1.3-6.7,0c-4.1,1.4-9.2-0.2-13.1-2.1c-0.8-0.4-1.6-0.8-2.4-1.3c-1.5,1.4-3.1,2.8-4.6,4.2c-1.6,1.5-4.9,1.1-5.3-1.4
		c-0.5-3.3-0.8-6.6-0.9-10c-1-0.8-2-1.5-3-2.3c-0.4-0.3-0.9-0.7-1.3-1c-8.2-0.2-22.7-3.1-28.7-8.9c-2-1.9-3.7-4-5.1-6.4
		c-0.6-0.1-1.1-0.1-1.7-0.2c-4.8-0.3-9.3-1.9-13.3-4.3c-23,25.7-34.1,60.5-42.4,93.3c-0.8,3.2-1.6,6.4-2.3,9.7h38.5
		c0.1-0.2,0.3-0.3,0.5-0.1c0,0,0.1,0.1,0.1,0.1h12.8c0.5-2.2,1.1-4.4,1.9-6.6c0.1-0.3,0.6-0.4,0.7,0c0.5,2.2,0.7,4.4,0.9,6.6h105
		c0-1.1,0-2.1,0.1-3.2C-285.7,143.2-285.6,129.7-285.1,116.1z"/>
	<path class="st1" d="M-259.3,25.6C-259.3,25.6-259.3,25.6-259.3,25.6c-4.5-0.2-5.2-6.1-5.5-9.7c-5.9,0.5-12.2-0.2-18-2.1
		c-10.7-1.5-22.4-5.1-34.9-10.7c1.7,3,3.1,6.2,4.1,9.5c2.1,6.6,2.9,13.6,3.7,20.5c0.1,0.7,0.2,1.3,0.2,2c1.7,2.1,3.4,4.2,5.1,6.2
		c3.7,4.4,7.7,8.7,11.9,12.8c2,2,4.1,4,6.2,5.9c0.9,0.8,1.7,1.6,2.6,2.3l0.9,0.8c0.5,0.5,1.2,0.9,1.5,1.5c0.2,0.3,0.2,1.2,0.3,1.4
		c0.6,1.3-0.5,3.3-2.3,2.7l0.1-0.1c0.3-0.2,0.1-0.2-0.6,0c-0.5,0-0.9-0.1-1.3-0.3l-0.1-0.1c-0.6-0.3-1.1-0.8-1.6-1.2l-0.1-0.1
		c-1.1-0.9-2.1-1.9-3.2-2.9c-2.2-2-4.3-4.1-6.4-6.2c-4.1-4.3-8-8.7-11.7-13.3c0,0,0-0.1-0.1-0.1c0.6,5,1.1,10,1.7,15
		c0.3,2.6,0.6,5.2,0.7,7.8c2.5,1.2,4.9,2.6,7.4,3.8c3.1,1.6,6.1,3.1,9.2,4.7c2,1,5,2,6.5,3.9c0.1-0.4,0.2-0.8,0.3-1.3
		c-0.1-0.6-0.1-1.3,0.3-2c5-9.2,9.6-18.6,14.2-28.1c2.3-4.8,4.5-9.6,6.9-14.4l2.2-4.5C-259.2,28.2-259.3,26.9-259.3,25.6z"/>
	<path d="M-176.7,119.1c-4.1-16.2-8.8-32.8-16.9-47.5c-0.3,0.9-0.7,1.7-1,2.6c5.5,10.3,9.3,21,13.6,33.1c5.3,17.4,9.5,35,12.8,52.8
		h0.7c-2.7-13.5-5.7-26.9-9-40.3L-176.7,119.1z"/>
	<path d="M-417,71.5c3.6-6,7.8-11.5,12.5-16.4c-0.5-0.4-1.1-0.9-1.6-1.3c-8.4,9.2-15.3,19.7-20.9,30.8c-9,17.5-15.2,36.2-20.5,55.1
		c-1.9,6.7-3.6,13.5-5.2,20.3h2.5C-442.3,125.8-430.7,93-417,71.5z"/>
	<path d="M-273.5,160h-1.5C-274.5,160.1-274,160.1-273.5,160z"/>
	<path d="M-401.8,57c-0.9-0.6-1.9-1.2-2.8-1.9c-4.6,5-8.8,10.4-12.5,16.4c-13.7,21.4-25.3,54.3-33.3,88.5h3.8
		c0.7-3.2,1.5-6.5,2.3-9.7C-435.9,117.5-424.8,82.7-401.8,57z"/>
	<path d="M-407.5,159.9c-0.2-0.2-0.4-0.1-0.5,0.1L-407.5,159.9C-407.5,160-407.5,159.9-407.5,159.9z"/>
	<path d="M-347.8,90.2c0.4,2.5,3.7,2.9,5.3,1.4c1.5-1.4,3-2.8,4.6-4.2c-3.8-2.1-7.3-4.6-10.7-7.2C-348.6,83.5-348.3,86.9-347.8,90.2
		z"/>
	<path d="M-280.1,121.3c0-7.6-0.1-15.2-0.3-22.7l0-0.2c-0.1-3.4-0.1-6.9-0.2-10.3c-0.1-2.6-0.1-5.1-0.5-7.6c0.9,0.5,2,0.6,2.9-0.1
		c2.2-0.6,4.2-2.1,6.2-3.2c2.3-1.3,4.6-2.6,6.9-3.8c4.7-2.6,9.5-5.1,14.3-7.6l0.1-0.1c2-1,4.4-2.8,6.7-2.4c2.5,0.4,4.9,2.1,7.2,3.2
		l7.4,3.7c-0.3-0.9-0.7-1.9-1.3-2.8c-1.7-2.7-4-4.8-6.5-6.7c-2-1-4-2-6.1-2.3c-2.8-0.4-5.2,0.7-7.6,2.1l-1.3,0.8
		c-4.9,2.9-9.7,5.9-14.4,9.1c-2.3,1.5-4.5,3.1-6.7,4.7c-1,0.7-2.1,1.4-3.1,2.2l0.1-0.2c4.9-10.8,9.9-21.6,14.5-32.6
		c1.3-3.1,2.6-6.2,3.8-9.3c-0.5-1.9-0.8-3.9-1-5.8l-2.2,4.5c-2.3,4.8-4.5,9.6-6.9,14.4c-4.6,9.4-9.2,18.8-14.2,28.1
		c-0.4,0.7-0.4,1.4-0.3,2c-0.1,0.4-0.2,0.8-0.3,1.3c-1.5-1.9-4.5-2.9-6.5-3.9c-3.1-1.6-6.1-3.1-9.2-4.7c-2.5-1.3-4.9-2.6-7.4-3.8
		c0.1,2,0.1,4,0,5.9l3.5,1.8l2.8,1.5c2.8,1.5,5.7,2.9,8.5,4.4c1.8,0.9,3.7,2.2,5.7,2.4c0.7,0.8,1.1,1.4,1.8,2.3l-0.1,1.3
		c-0.2,3-0.3,6-0.5,9.1c-0.3,6.8-0.6,13.6-0.8,20.3c-0.4,13.5-0.6,27.1-0.9,40.7c0,1.1,0,2.1-0.1,3.2h5.9
		C-280.1,147.1-280.1,134.2-280.1,121.3z"/>
	<path d="M-271.8,107.7l-0.9-0.7l-0.1-0.1c-0.6-0.3-1.3-0.5-2-0.5l-0.1,0c-0.5,0-1.1,0.1-1.5,0.4c-0.5,0.2-1,0.5-1.4,0.9
		c-0.4,0.4-0.7,0.9-0.9,1.4c-0.3,0.5-0.4,1.1-0.4,1.7l0.2,1.2c0.2,0.7,0.6,1.4,1.1,1.9l0.9,0.7c0.7,0.4,1.4,0.6,2.2,0.6l0.1,0
		c0.5,0,1.1-0.1,1.5-0.4c0.5-0.2,1-0.5,1.4-0.9c0.4-0.4,0.7-0.9,0.9-1.4c0.3-0.5,0.4-1.1,0.4-1.7l-0.2-1.2
		C-270.9,108.9-271.2,108.3-271.8,107.7z"/>
	<path d="M-196,144.8c2.4-4.2,4.9-8.5,7.1-12.8c0.1-0.3-0.2-0.6-0.5-0.4c-2.5,2.9-5,5.9-7.4,9c-0.5-2.2-1-4.3-2-6.3
		c-0.1-0.1-0.3-0.1-0.3,0c-0.9,4-0.5,8.4-0.4,12.5c0.1,4.4-0.1,8.8,0,13.2h6.4c-0.7-3.9-1.6-7.8-2.4-11.8
		C-195.6,147.1-195.8,145.9-196,144.8z"/>
	<path d="M-218.6,119l-1.2,0c-1.7,0-3.3,0-5,0c-4.5,0-9,0.2-13.5,0.5c-3.9,0.2-7.8,0.6-11.7,1.1c-4,0.5-8.3,0.9-12.1,2.3
		c-0.6,0.2-0.4,0.9,0.1,1c4.1,0.4,8.3,0,12.4,0c4-0.1,8-0.1,12-0.1c4,0,8,0.1,12.1,0.3c2.1,0.1,4.1,0.2,6.2,0.3
		c2,0.1,4.1,0.7,5.8-0.5c1.1-0.8,1.7-2.5,0.5-3.6C-214.7,118.8-216.5,119-218.6,119z"/>
	<path d="M-392.7,153.4c-0.8,2.1-1.4,4.3-1.9,6.6h3.5c-0.2-2.2-0.4-4.4-0.9-6.6C-392.1,153.1-392.6,153.1-392.7,153.4z"/>
	<path d="M-196,77c5.6,12.8,9.3,26.6,12.3,39.6l0.4,1.8c3.2,13.8,6.2,27.6,8.9,41.5h6.3c-3.3-17.8-7.5-35.4-12.8-52.8
		c-4.2-12-8.1-22.8-13.6-33.1c-0.2,0.4-0.4,0.9-0.6,1.3C-195.5,76-195.8,76.5-196,77z"/>
	<path d="M-271.2,158.9c0.3-0.2,0.6-0.5,0.8-0.8c0.1-0.2,0.2-0.3,0.4-0.5l0.4-1l0.2-1.2l-0.2-1.2c-0.1-0.6-0.4-1.1-0.8-1.5
		c-0.2-0.3-0.5-0.6-0.8-0.8c-0.3-0.3-0.6-0.5-1-0.6c-0.3-0.2-0.7-0.3-1.1-0.3c-0.6-0.1-1.2-0.1-1.7,0.1c-1.1,0.3-2.1,1.1-2.7,2.1
		c-0.1,0.2-0.4,0.8-0.5,1.2c-0.2,0.9-0.2,1.3-0.1,2.1l0.1,0.5c0.2,0.7,0.5,1.3,1,1.8c0.5,0.5,1.1,0.8,1.8,1c0.1,0,0.2,0,0.3,0h1.5
		c0.6-0.1,1.1-0.3,1.5-0.7C-271.7,159.2-271.4,159.1-271.2,158.9z"/>
	<path d="M-296.7,57.8c2.1,2.1,4.2,4.2,6.4,6.2c1,1,2.1,2,3.2,2.9l0.1,0.1c0.5,0.4,1,0.9,1.6,1.2l0.1,0.1c0.4,0.2,0.9,0.3,1.3,0.3
		c0.8-0.2,1-0.2,0.6,0l-0.1,0.1c1.8,0.6,2.9-1.4,2.3-2.7c-0.1-0.1-0.1-1-0.3-1.4c-0.3-0.6-1-1.1-1.5-1.5l-0.9-0.8
		c-0.9-0.8-1.8-1.5-2.6-2.3c-2.1-1.9-4.2-3.9-6.2-5.9c-4.2-4.1-8.1-8.4-11.9-12.8c-1.7-2.1-3.4-4.1-5.1-6.2c0.4,3.1,0.7,6.3,1.1,9.4
		c0,0,0,0.1,0.1,0.1C-304.8,49.1-300.9,53.6-296.7,57.8z"/>
	<path class="st1" d="M-318.9-0.1c7.4-15.8,23.9-17.7,40.6-11.3c8.6,2.6,15.4,5.8,17.3,15.5c0.7,0.1,1.4,0.8,1.2,1.5
		c0,1.8,0.1,3.6,0.3,5.3c1.4-0.4,2.8-0.8,4.1-1.3c0.3-0.1,0.7-0.3,1-0.4c13.4-5.4,22-17.3,25.2-31.1c3.5-15,1.8-30.9,1.2-46.1
		c-0.6-15.2,0.5-27.2-7.9-40.6c-6-9.6-20.5-13.5-27.1-14.8c-14.1,17.7-35.8,18.9-47.6,29.1c-10.7,9.2-19.9,21.2-17.9,36.1
		c0.3,1.8-1.6,3.1-3.1,1.8c-0.2-0.2-0.5-0.4-0.7-0.6c-2.5-2.2-5.1-4.3-7.7-6.4c-0.8-0.7-1.6-1.3-2.5-2c-2.5-0.3-5.2-0.1-7.6,0.6
		c-0.1,1.1-0.2,2.3-0.2,3.4c-0.2,2.4-0.4,4.8-0.7,7.2c1.1,0,2.2,0.1,3.3,0.3c3.1,0.7,8.2,2.6,9.1,6.1c0.4,1.7-1.4,3-2.9,2.2
		c-1.3-0.7-2.1-2-3.1-3c-1.1-1-2.4-1.8-3.7-2.4c-0.9-0.4-1.9-0.8-2.9-1c-0.4,3.7-0.9,7.5-1.4,11.2c-0.3,2-0.6,4-0.9,6.1
		c1.7,0.7,3.4,0.5,5.4,0.2c1.3-0.2,2.3,0.6,2.4,1.7l0.3,0c-0.1-0.7,0.3-1.4,0.9-2c0.2-0.2,0.6-0.2,0.8,0.1c1.9,3.3,3.1,6.9,5,10.2
		c1.9,3.2,3.8,6.4,6,9.4c2.2,3.1,4.7,6.1,7.4,8.8c0.3,0.3,0.6,0.7,1,1c0.8,0.7,1.6,1.4,2.4,2.3c0.2,0.2,0.4,0.4,0.6,0.5
		c0.1,0.1,0.3,0.2,0.4,0.4c0,0,0.1-0.1,0.1-0.1c0.1,0,0.2-0.1,0.2,0c0.2,0.3,0.4,0.6,0.5,0.9C-319.6-0.9-319.2-0.5-318.9-0.1z
		 M-284.3-60.5c-1.6,3.1-5.5,1.7-5.8-1.2c-0.4-3.8,0.1-5.5,0.3-8.1c0.3-4.1,6.6-5,7.2-1C-282-67.1-282.6-63.8-284.3-60.5z
		 M-237-61.8c-0.9,1.8-3.8,2.2-5.1,0.7c-2.1-2.5-3.2-7.6-0.4-10.1c0.1-0.1,0.2-0.3,0.3-0.4c0.9-1.1,2.1-1.9,3.6-1.5
		C-234-71.7-235.4-65-237-61.8z M-250-88.1c0.4-0.6,0.9-1,1.4-1.2c0.6-0.2,1.3-0.3,1.9-0.2l0.6,0.1c6.2,1.3,14.2,3.9,17.1,9.9
		c0.1,0.9,0,1-0.1,1.2l0,0c-0.1,0.1-0.1,0.2-0.5,0.4c-0.1,0-0.2-0.1-0.3-0.1c-1.3-0.4-2.4-0.8-3.4-1.3l-1.1-0.5
		c-1.3-0.6-2.6-1.2-4-1.7c-2.9-1-6-1.6-9.1-2c-0.7-0.1-1.3-0.3-1.8-0.7c-0.5-0.4-0.8-0.9-1-1.5C-250.5-86.7-250.4-87.3-250-88.1z
		 M-262.6-45.2c2.7,2.1,8.1,6.6,11.9,2.6c3.2-4.5-1.3-8.7-4.3-10.5c-0.8-0.6-0.2-2.4,1.5-2.1c15.2,2.6,7.3,28.7-12,14.4
		C-267.9-42.7-265.1-46.8-262.6-45.2z M-272-22.6c0.1-0.9,0.7-1.7,1.4-2.2c0.7-0.5,1.6-0.8,2.4-0.7c0.7,0.1,1.5,0.5,2.1,1.4l0.1,0.2
		c1,1.4,2.4,2.5,3.9,3.3c1.5,0.7,3.1,1,4.8,0.8c3.2-0.4,5.5-2.1,7.9-4.5c0.3-0.3,0.6-0.6,0.9-0.9c0.2-0.3,0.4-0.5,0.7-0.6
		c0.3-0.1,0.7-0.1,1,0c0.3,0.1,0.6,0.3,0.8,0.6c0.2,0.3,0.3,0.6,0.3,1c-0.2,2.5-1.5,4.7-3.3,6.4c-2,1.9-4.7,3.3-7.3,3.7
		c-2.8,0.5-5.7,0.1-8.2-0.9c-2.7-1.1-5-2.9-6.8-5.2C-272-21-272.1-21.8-272-22.6z M-301.5-75.7c2.1-4.1,6.1-7.5,10.2-9.5
		c2.2-1.1,4.5-2,6.9-2.4l0.7-0.1c2.3-0.4,5.1-0.8,6.8,1.1c0.9,1,1.2,2.8,0,3.7c-2,1.6-4.3,1-6.7,1.1c-2,0.1-3.9,0.4-5.9,1
		c-4.2,1.2-7.7,3.4-11.3,5.9C-301.2-74.7-301.7-75.3-301.5-75.7z"/>
	<path class="st1" d="M-299.2,2.5c-0.3-0.4,0.3-0.9,0.7-0.7c6.7,4.5,13.4,8.2,21.5,9.8c4.1,0.8,8.2,0.9,12.3,0.3
		c0.3-2.6,1.2-5.2,2.6-7.3c0.3-0.5,0.8-0.6,1.2-0.6c-1.9-9.6-8.7-12.9-17.3-15.5c-16.7-6.4-33.2-4.5-40.6,11.3c0.4,0.6,0.8,1.2,1,2
		c0.1,0.2,0.1,0.5,0,0.8c0.1,0.1,0.1,0.3,0.2,0.4c12.5,5.7,24.2,9.2,34.9,10.7C-289.3,11.6-295.1,7.9-299.2,2.5z"/>
	<path class="st1" d="M-261,4.1c0.4,2.1,0.6,4.4,0.5,7.1c0.3-0.1,0.7-0.2,1-0.3c-0.2-1.8-0.3-3.5-0.3-5.3
		C-259.6,4.9-260.2,4.2-261,4.1z"/>
	<path class="st1" d="M-320.7-2.2c0,0-0.1,0.1-0.1,0.1c0.3,0.3,0.6,0.5,0.9,0.8c-0.1-0.3-0.3-0.7-0.5-0.9
		C-320.5-2.2-320.6-2.2-320.7-2.2z"/>
	<path class="st1" d="M-262.1,4.7c-1.4,2.1-2.3,4.7-2.6,7.3c1.4-0.2,2.9-0.4,4.3-0.8c0.1-2.7-0.1-5-0.5-7.1
		C-261.4,4.1-261.8,4.2-262.1,4.7z"/>
	<path d="M-184.3-48.5c-3.7-14.8-8.6-29.4-13.7-43.7c-2.6-7.2-5.3-14.3-8.2-21.4c-2.8-6.9-5.3-13.9-8.8-20.5
		c-20.8-39.2-58.6-39.2-78.1-34.1c-10.1-4.4-29.1-3.1-39.7,0.8c-17.1,6.4-37.9,31.5-45,42.8c-15.7,24.9-25.5,58-15.1,86.8
		c1.4,3.8,3.1,7.2,5.1,10.6c-1.2,1.7-2.7,3.3-4.2,4.8c-4.7,4.6-9.4,9.1-13.4,14.3c-4,5.2-7.3,10.7-9.8,16.8
		c-4.7,11.5-4.9,24.5,1.3,35.4c2.1,3.7,4.8,7,7.9,9.7c0.5,0.5,1.1,0.9,1.6,1.3c0.9,0.7,1.8,1.3,2.8,1.9c4,2.5,8.5,4,13.3,4.3
		c0.6,0.1,1.1,0.1,1.7,0.2c1.4,2.3,3.2,4.5,5.1,6.4c6.1,5.8,20.5,8.7,28.7,8.9c0.4,0.3,0.8,0.7,1.3,1c1,0.8,2,1.6,3,2.3
		c3.4,2.6,7,5.1,10.7,7.2c0.8,0.4,1.6,0.9,2.4,1.3c3.9,1.9,9.1,3.5,13.1,2.1c1.9,1.2,4.9,1,6.7,0c3-1.7,5.5-4.7,7-7.7
		c1.5-3.2,2.3-6.5,2.5-9.8c0.2-2,0.1-3.9,0-5.9c-0.1-2.6-0.4-5.2-0.7-7.8c-0.6-5-1.1-10-1.7-15c-0.4-3.1-0.7-6.3-1.1-9.4
		c-0.1-0.7-0.2-1.3-0.2-2c-0.8-6.9-1.6-13.9-3.7-20.5c-1-3.3-2.4-6.5-4.1-9.5c-0.1-0.1-0.1-0.3-0.2-0.4c0-0.3,0-0.5,0-0.8
		c-0.2-0.8-0.6-1.4-1-2c-0.3-0.4-0.7-0.8-1-1.2c-0.3-0.3-0.6-0.5-0.9-0.8c-0.1-0.1-0.3-0.2-0.4-0.4c-0.2-0.2-0.4-0.3-0.6-0.5
		c-0.7-0.8-1.5-1.6-2.4-2.3c-0.3-0.3-0.6-0.7-1-1c-2.7-2.8-5.2-5.7-7.4-8.8c-2.2-3-4.1-6.2-6-9.4c-1.9-3.3-3.1-6.9-5-10.2
		c-0.2-0.3-0.6-0.3-0.8-0.1c-0.6,0.6-1,1.3-0.9,2l-0.3,0c-0.1-1.1-1.1-1.9-2.4-1.7c-2,0.3-3.6,0.5-5.4-0.2c0.3-2,0.6-4,0.9-6.1
		c0.5-3.7,1-7.5,1.4-11.2c1,0.2,1.9,0.6,2.9,1c1.4,0.6,2.6,1.4,3.7,2.4c1.1,1,1.8,2.3,3.1,3c1.5,0.8,3.3-0.5,2.9-2.2
		c-0.9-3.4-6-5.4-9.1-6.1c-1.1-0.2-2.2-0.3-3.3-0.3c0.2-2.4,0.5-4.8,0.7-7.2c0.1-1.1,0.2-2.3,0.2-3.4c2.4-0.7,5.1-1,7.6-0.6
		c0.8,0.7,1.7,1.3,2.5,2c2.6,2.1,5.1,4.3,7.7,6.4c0.2,0.2,0.5,0.4,0.7,0.6c1.5,1.3,3.4,0,3.1-1.8c-2.1-15,7.1-26.9,17.9-36.1
		c11.9-10.2,33.5-11.4,47.6-29.1c6.5,1.3,21.1,5.3,27.1,14.8c8.4,13.4,7.3,25.4,7.9,40.6c0.6,15.2,2.3,31.1-1.2,46.1
		C-232.3-8-240.9,3.8-254.3,9.3c-0.3,0.1-0.7,0.3-1,0.4c-1.4,0.5-2.7,0.9-4.1,1.3c-0.3,0.1-0.7,0.2-1,0.3c-1.4,0.3-2.9,0.6-4.3,0.8
		c-4.1,0.5-8.2,0.4-12.3-0.3c-8.1-1.5-14.8-5.2-21.5-9.8c-0.4-0.3-1,0.3-0.7,0.7c4.1,5.4,9.9,9.1,16.4,11.3c5.8,1.9,12.1,2.6,18,2.1
		c0.3,3.6,1.1,9.5,5.5,9.7c0,0,0.1,0,0.1,0c0,1.3,0,2.7,0.2,4c0.2,2,0.5,3.9,1,5.8c0.6,2.2,1.3,4.3,2.3,6.4
		c2.4,5.2,6.1,9.7,10.6,13.2c2.5,2,5.4,3.8,8,5.8c2.5,1.9,4.8,4,6.5,6.7c0.6,0.9,1,1.9,1.3,2.8c1.3,4.2-0.1,8.4-4.5,10.7
		c-1.4,0.7-1.9,3.1-0.5,4.2c0.5,0.4,1,0.8,1.6,1.2c3,2.3,11.3,6.5,12.6,6.7c11.3,1.3,19.1-6.5,24.2-16.1c0.3-0.5,0.5-1,0.8-1.5
		c0.2-0.4,0.4-0.9,0.6-1.3c0.4-0.8,0.7-1.7,1-2.6c4-11.3,2.1-24.1-3.8-34.4c-5.3-9.2-15.8-18.3-11.6-30c1.5-4.2,4.5-7.7,7.5-10.9
		c3.4-3.7,7-7.1,10.2-10.9c3.2-3.8,6-7.9,7.6-12.6C-181.4-34.1-182.6-41.6-184.3-48.5z M-359.2,25.2
		C-359.2,25.2-359.2,25.2-359.2,25.2C-359.2,25.2-359.2,25.2-359.2,25.2C-359.2,25.2-359.2,25.2-359.2,25.2z"/>
	<path d="M-300.8-75c3.6-2.4,7.1-4.6,11.3-5.9c1.9-0.6,3.9-0.9,5.9-1c2.4-0.1,4.7,0.5,6.7-1.1c1.2-0.9,0.9-2.8,0-3.7
		c-1.6-1.8-4.5-1.5-6.8-1.1l-0.7,0.1c-2.4,0.4-4.8,1.3-6.9,2.4c-4.1,2.1-8.1,5.4-10.2,9.5C-301.7-75.3-301.2-74.7-300.8-75z"/>
	<path d="M-289.7-69.8c-0.2,2.5-0.7,4.3-0.3,8.1c0.3,2.8,4.2,4.3,5.8,1.2c1.6-3.3,2.3-6.6,1.7-10.2
		C-283.2-74.8-289.4-73.9-289.7-69.8z"/>
	<path d="M-264.6-15c2.6,1.1,5.4,1.4,8.2,0.9c2.5-0.5,5.2-1.8,7.3-3.7c1.8-1.7,3.1-3.9,3.3-6.4c0-0.4-0.1-0.7-0.3-1
		c-0.2-0.3-0.5-0.5-0.8-0.6c-0.3-0.1-0.7-0.1-1,0c-0.3,0.1-0.5,0.3-0.7,0.6c-0.3,0.3-0.6,0.6-0.9,0.9c-2.4,2.4-4.6,4.1-7.9,4.5
		c-1.7,0.2-3.4-0.1-4.8-0.8c-1.5-0.7-2.9-1.9-3.9-3.3l-0.1-0.2c-0.6-0.8-1.3-1.2-2.1-1.4c-0.9-0.1-1.7,0.1-2.4,0.7
		c-0.7,0.5-1.2,1.3-1.4,2.2c-0.1,0.8,0,1.6,0.6,2.4C-269.6-17.9-267.3-16.1-264.6-15z"/>
	<path d="M-238.7-73.1c-1.5-0.4-2.8,0.3-3.6,1.5c-0.1,0.1-0.2,0.3-0.3,0.4c-2.7,2.5-1.7,7.5,0.4,10.1c1.3,1.6,4.2,1.1,5.1-0.7
		C-235.4-65-234-71.7-238.7-73.1z"/>
	<path d="M-265.6-40.9c19.4,14.3,27.2-11.8,12-14.4c-1.7-0.3-2.3,1.6-1.5,2.1c3,1.8,7.5,6,4.3,10.5c-3.8,4-9.2-0.6-11.9-2.6
		C-265.1-46.8-267.9-42.7-265.6-40.9z"/>
	<path d="M-249.3-84.3c0.5,0.4,1.1,0.6,1.8,0.7c3.1,0.4,6.1,1,9.1,2c1.4,0.5,2.7,1.1,4,1.7l1.1,0.5c1,0.5,2.1,1,3.4,1.3
		c0.1,0,0.2,0.1,0.3,0.1c0.4-0.1,0.4-0.3,0.5-0.4l0,0c0.1-0.1,0.2-0.3,0.1-1.2c-2.9-6.1-10.9-8.6-17.1-9.9l-0.6-0.1
		c-0.7-0.1-1.3-0.1-1.9,0.2c-0.6,0.2-1.1,0.6-1.4,1.2c-0.5,0.8-0.5,1.4-0.3,2.3C-250.1-85.1-249.7-84.6-249.3-84.3z"/>
</g>
<g>
	<title>peep-47</title>
	<desc>Created with Sketch.</desc>
	<g id="facial-hair_x2F__x2A_-None_3_" transform="translate(104.577451, 109.479380)">
	</g>
</g>
<path class="st2" d="M113.7,97.2c-0.2,0.2-0.3,0.4-0.3,0.7c0,0,0,0.1,0,0.1C113.5,97.8,113.6,97.5,113.7,97.2z"/>
<path class="st0" d="M59.1,292c18.5-12,40.9-18.7,62.7-21.6c2.5-0.3,4.8-1,7.2-0.1c0.7,0.2,1.5,0.6,2.2,0.6c1.1,0,2.4-0.4,3.5-0.5
	c3.1-0.4,6.2-0.5,9.3-0.7c2.4-0.2,5-0.2,7.3-1c0.3-0.2,0.7-0.3,1-0.5c1.8-1.3,3.3-4.4,4.4-8c0.9-5,1.9-10,3.2-14.9
	c0.4-1.3,0.7-2.7,1.1-4.2c-2.7-0.1-5.5-3.4-7.2-5.2l-0.2-0.2c-2.5-2.5-4.7-5.2-6.7-8.1c-3.5-5.1-5.6-10.9-6.5-17
	c-4.7,1.4-11,0.1-14.9-1.7c-12.2-5.5-16.1-21.9-8.8-32.8c1.4-2.1,3.2-3.9,5.3-5.4c-0.4-0.2-0.9-0.6-1.2-1c-2.1-2.2-3.5-5.1-5-7.7
	l-0.2-0.3c-1.2-2.1-3-5.6-4-7.8l-0.1-0.2c-2.5-5.5-4.8-7.9-6.6-13.6c-1.7-5.6-3.1-11.2-4-17l-0.2-1.5c-0.5-3.3-1-6.9-0.6-10.3
	c-2.6,0.8-5.2,1.4-7.8,0.1c-1.7-0.8-2.6-3.3-2-5c0.4-1.3,1.1-2.3,2-3.1c-0.5-0.3-1-0.6-1.5-1l-0.4-0.3c-1.6-1.4-1.7-3.9-0.7-5.6
	c0.1-0.2,0.2-0.3,0.3-0.5c0.9-1.6,2.7-2.7,4.6-2.6c0.3,0,0.6,0,0.9,0c-0.9-0.2-1.7-0.5-2.5-1c-3.6-2.2-3.1-8.2,1.2-9.2
	c1.8-0.4,3.8-0.3,5.8,0.2c-0.1,0-0.1-0.1-0.2-0.1c-1.5-0.9-2.8-2.7-2.6-4.6c0.2-2.1,0.8-3.5,2.6-4.6c1.6-0.9,3.8-1,5.4,0
	c1.4,0.9,2.7,1.9,4,2.9c-1.3-1.6-2.4-3.3-2.9-5.1c-0.6-2.3,0.4-4.8,2.4-6c1.6-1,3.4-0.9,4.9-0.1c-0.1-1.2,0.2-2.4,1-3.5
	c1.6-2.2,4.6-3.5,7.2-1.9c0.3,0.2,0.8,0.6,1.2,1c-0.9-2.7-0.1-5.6,2.8-6.8c1.8-0.8,4.2-0.4,5.7,0.9c-1-5.3,6.8-9.2,9.9-3.7
	c0.7,1.2,1.4,2.5,2,3.9l0.2,0.5l0,0l-0.2-0.4l-0.2-0.4c-0.8-2-1.9-4-2.2-6.1c-0.4-3.2,1-6.1,4.4-6.6c1.8-0.2,3.7,0.6,4.9,2
	c-0.6-4.9,4.8-8.4,8.8-4.8c1.9,1.7,2.9,4.3,4,6.5c0.7,1.3,1.4,2.5,2,3.8c0.2-0.2,0.4-0.4,0.5-0.6c-1-3-1.8-6-2.4-9.1
	c-0.6-2.9,0.8-5.9,3.8-6.7c2.7-0.7,6.1,0.9,6.7,3.8c0.4,2,0.9,4,1.5,6c0.4-0.1,0.8-0.2,1.1-0.2c0-0.4,0.1-0.8,0.1-1.1l0.1-1.3
	c0.3-3.1,0.6-6.5,2.2-9.1c2.7-4.4,9.7-2.6,9.8,2.6c0,2.7-1.1,5.4-1.4,8.1c-0.2,1.2-0.3,2.4-0.3,3.5c0.7-3.9,1.8-7.8,2.9-11.6
	c0.1-0.5,0.3-0.9,0.4-1.4c0.8-2.6,3.2-4.2,6-3.9c2.4,0.3,5,2.7,4.7,5.4c-0.1,0.5-0.1,1-0.2,1.4l0,0l0,0L201,36
	c-0.2,0.8-0.4,1.6-0.8,2.3c-0.5,1.4-0.9,2.8-1.4,4.1c0.6,0,1.3,0,2,0.1c0.7-1.8,1.4-3.5,2.1-5.3c0.7-1.9,1.3-4.3,2.7-5.8
	c1.9-1.9,5.1-2.3,7.4-0.9c2.4,1.4,3.3,3.9,2.8,6.6c-0.3,1.4-1.2,2.3-2.3,2.9l-0.1,0.1l-0.9,2.1c0.3-0.1,0.5-0.2,0.8-0.3
	c0.5-0.1,0.9-0.2,1.4-0.3c1.2-2.3,2.6-4.5,4-6.6c1.6-2.5,4.8-3.5,7.5-2c2.4,1.4,3.7,5.1,2,7.5c-1.3,1.8-2.5,3.7-3.8,5.6
	c0.2,0,0.4,0.1,0.6,0.1c0.1-0.1,0.2-0.2,0.3-0.4c1.3-1.6,2.9-2.9,4.5-4.2c1.5-1.3,2.2-3.3,4.1-4.3c2.5-1.2,5.4-0.6,6.9,1.8
	c3.1,5.2-2.1,9-5.5,12.2c2.9-1.8,6-3.5,9.1-4.9c1.8-0.8,3.5-1.6,5.4-2.3c2.8-1,5-0.7,7.3,1.4c0.9,0.8,1.3,2.3,0.9,3.4
	c-0.9,2.5-2.3,3.9-4.8,4.6c-1.7,0.5-3.5,0.8-5.2,1.3c-1.9,0.5-3.7,1.2-5.5,1.9c0.6,0.1,1.1,0.2,1.7,0.4c0.1,0,0.1,0,0.2,0
	c0.7-0.2,1.3-0.3,2-0.5c3.4-0.8,6.9-1.3,10.4-1.7l1.2-0.1c4.2-0.4,9.2-1.1,11.8,2.9c0.8,1.3,0.9,3.5,0,4.8c-1.8,2.5-3.6,3-6.5,3.1
	c2.9,0.3,5.8,0.7,8.7,1.1c2,0.3,4,0.7,6,1l1,0.2c2.4,0.5,5.1,0.8,7.2,2.2c4.5,3.1,2.4,9-2.6,9.7c-2.4,0.3-5.1-0.7-7.5-1.2
	c-2.3-0.5-4.6-0.9-7-1.2c-1.2-0.2-2.4-0.4-3.6-0.5c2.5,0.4,4.9,0.9,7.3,1.6l0.7,0.2c4.6,1.4,10.9,3.7,12.3,8.6
	c0.9,3-1.5,5.6-4.4,5.8c-2.7,0.2-4.9-1.4-7.2-2.6c-1.7-0.9-3.4-1.5-5.1-2.1c-1.9-0.6-3.7-1-5.6-1.4c1.6,0.9,3.2,1.9,4.7,3l0.7,0.5
	c4,3,10.1,7.6,8.7,13.2c-0.4,1.8-2.4,3.4-4.3,3.3c-4.9-0.5-7.6-5.7-11.3-8.5c-0.9-0.7-2-1.4-3.1-2.1c0,0,0,0.1,0.1,0.1
	c5.5,6.7,10,14.3,13.3,22.3c7.5,17.6,9.8,33.9,9.8,52.8l0,2.7c0,9.1-0.3,18.1-1,27.2c-0.9,10.3-2.5,20.5-7.2,29.9
	c-7.1,14.2-20.7,25.2-35.8,29.8c0.4,2.1,0.5,4.5,0.8,5.7c1.1,4.4,3.5,6.8,6.6,10.3c2.2-0.2,4.2,0.7,5.7,2.3
	c13.8,3.4,27.1,7.7,38.2,17c8.8,7.3,15.8,16.5,22.2,25.9c7.5,11,14.7,22.2,22,33.3c1,1.5,2,3,3,4.5H360V0H0v360h15.2
	c2.3-8.3,5.1-16.5,8.5-24.4C31.3,317.8,42.8,302.6,59.1,292z"/>
<path class="st1" d="M152.3,268.1c-0.3,0.2-0.7,0.3-1,0.5c0.1,0,0.2-0.1,0.3-0.1C151.9,268.4,152.1,268.3,152.3,268.1z"/>
<path class="st1" d="M162.3,241c-0.1,0-0.1-0.1-0.2-0.1c-0.3,0.1-0.7,0.1-1,0.1c-0.4,1.4-0.7,2.8-1.1,4.2c-1.4,4.9-2.4,9.9-3.2,14.9
	c1.8-5.6,2.9-12.2,3.4-13.8C160.7,244.6,161.2,242.4,162.3,241z"/>
<path class="st1" d="M186.6,252.5c-6.6-2.1-13-4.8-19-8.2c-0.1,1.8-0.6,3.7-0.7,5.1c-0.4,3.2-1.7,26.7-18.9,27.9
	c-17.2,1.2-15.5,2.7-15.5,4.1c2.1,3.7,5.2,8.5,7.8,11.7c3.5,4.2,7.4,8.1,11.6,11.7c13.8,11.6,31.8,18.3,49.8,18
	c9.5-0.2,18.2-2.5,24.6-9.9c5.9-6.9,9.2-19.2,11.7-27.9c-5.3-6.6-7.9-15.3-6.8-22.3C215.7,265.3,199.3,261.7,186.6,252.5z"/>
<path d="M156.8,260.1c-1.2,3.6-2.6,6.7-4.4,8c1.2-0.6,2.4-1.3,3.5-2C156.1,264.1,156.4,262.1,156.8,260.1z"/>
<path d="M333.1,355.5c-7.3-11.1-14.5-22.3-22-33.3c-6.4-9.4-13.4-18.6-22.2-25.9c-11.1-9.2-24.4-13.6-38.2-17
	c-1.5-1.6-3.5-2.4-5.7-2.3c-3-3.5-5.5-5.9-6.6-10.3c-0.3-1.2-0.4-3.6-0.8-5.7c-0.4,0.1-0.9,0.3-1.3,0.4c-0.4,0.1-0.7,0.2-1.1,0.3
	c-1.4,0.3-2.7,0.6-4.1,0.9c-1.1,7,1.5,15.7,6.8,22.3c-2.5,8.6-5.8,20.9-11.7,27.9c-6.3,7.4-15.1,9.7-24.6,9.9
	c-18,0.3-36-6.4-49.8-18c-4.2-3.5-8.1-7.5-11.6-11.7c-2.6-3.1-5.8-8-7.8-11.7c0-1.4-1.7-2.9,15.5-4.1c17.2-1.2,18.5-24.7,18.9-27.9
	c0.2-1.5,0.7-3.4,0.7-5.1c-1.8-1-3.5-2.1-5.2-3.2c-1.2,1.4-1.7,3.6-2.1,5.3c-0.5,1.6-1.6,8.2-3.4,13.8c-0.3,2-0.7,4-1,6
	c-1.1,0.7-2.3,1.4-3.5,2c-0.2,0.2-0.5,0.3-0.7,0.4c-0.1,0-0.2,0.1-0.3,0.1c-2.3,0.8-4.9,0.9-7.3,1c-3.1,0.2-6.2,0.4-9.3,0.7
	c-1.1,0.1-2.4,0.5-3.5,0.5c-0.7,0-1.5-0.3-2.2-0.6c-2.4-0.8-4.8-0.2-7.2,0.1C100,273.4,77.7,280,59.1,292
	c-16.3,10.6-27.9,25.8-35.4,43.6c-3.4,7.9-6.1,16.1-8.5,24.4h52.1h257.8h10.9C335.1,358.5,334.1,357,333.1,355.5z"/>
<path class="st1" d="M258.6,96.4c0,0,0-0.1-0.1-0.1c0,0,0,0-0.1,0C258.5,96.3,258.5,96.4,258.6,96.4z"/>
<path class="st1" d="M225.7,231.8c-0.3-1.3-1.3-2-2.6-2.5C224,230.1,224.9,230.9,225.7,231.8z"/>
<path class="st1" d="M229,237.3c3.2-0.5,6.5-1.2,9.6-2c-0.9-7.6-10.1-8-12.8-3.3c0.4,0.5,0.9,1,1.2,1.6
	C227.8,234.8,228.5,236,229,237.3z"/>
<path class="st1" d="M121.2,95.7c-2.3,0.4-4.5,0.8-6.8,1.2c-0.3,0.1-0.5,0.2-0.7,0.4c-0.1,0.3-0.2,0.6-0.3,0.8c0,0,0-0.1,0-0.1
	c-0.1,0.8,0.6,1.8,1.7,1.6c2.3-0.4,4.5-0.8,6.8-1.2C123.7,98,123,95.4,121.2,95.7z"/>
<path class="st1" d="M137.4,98.8c-1.3,1.4-2.2,3-3,4.7c-0.8,1.6,1.6,3,2.4,1.4l0.4-0.7c0.6-1.1,1.2-2.2,2-3.2l0.2-0.2
	C140.6,99.5,138.6,97.5,137.4,98.8z"/>
<path class="st1" d="M225.8,82.8c2.3,0.8,4.6,1.6,6.9,2.7c1.6,0.8,3-1.6,1.4-2.4c-2.4-1.2-5-2.1-7.5-2.9
	C224.8,79.5,224.1,82.2,225.8,82.8z"/>
<path class="st1" d="M245.8,72.2c0.9,0.6,1.9,1,2.7,1.6l0.2,0.1c1.3,1.2,3.3-0.7,2-2c-1-0.9-2.2-1.4-3.3-2.1l-0.2-0.1
	C245.7,68.9,244.3,71.3,245.8,72.2z"/>
<path class="st1" d="M228.9,215.4l-0.6-0.1l-2.4-0.3l-0.9-0.1c-5.8-0.8-12.4-1.2-17.2,2.6c-1.8,1.4-2.7,3.1-3.1,5.1
	c4.5-0.7,9.1-1.2,13.7-1.6l1.2-0.1c2.9-0.3,5.7-0.5,8.6-0.8l2-0.2l2-0.2c0.7-0.1,5.5-0.3,6.4-0.2c0.1-0.8,0.2-2.6,0.4-3.4
	C235.7,216.1,232.3,215.9,228.9,215.4z"/>
<path class="st1" d="M127.5,78.9l-6-2.4c-1.7-0.7-2.4,2-0.7,2.7l6,2.4C128.5,82.2,129.2,79.5,127.5,78.9z"/>
<path class="st1" d="M174.3,223.9c6.3-1,14.9-1.9,23.6-1.6c0.3-3,1.5-5.8,3.5-8.3c5.7-6.6,15.2-7,23.1-5.4c5.1,1.1,10,2.8,15.1,3.5
	c2.4,0.3,4.8,0.4,7.3,0.4c2.4,0,4.8-0.5,7.1-0.4c0.4,0,0.5,0.5,0.2,0.7c-3.3,2-7.6,2.6-11.5,3c0,0.3,0,0.6,0.1,0.8
	c0.1,0.6,0.2,1.3,0.3,1.9c0.2,1.4,0.4,2.8,0.6,4.3c0.4,2.8,0.5,5.7,1.2,8.4l0.1,0.5c0.2,0.6,0.2,1.1,0.1,1.6l0.2-0.1l0.5-0.2
	l0.3-0.2c1.2-0.5,2.3-0.9,3.7-0.8c1.1,0.1,1.9,0.8,1.9,1.9c0,5.1-6.8,6.7-10.7,7.7l-1.1,0.3c-2.9,0.7-5.9,1.4-8.8,1.8
	c0.9,3.5,1.5,7.2,2.2,10.6c2.7-0.6,5.3-1.4,7.9-2.5c13.5-5.6,24.4-17.6,29-31.5c2.9-8.8,3.8-18.2,4.8-27.4l0.1-0.6
	c1.1-9.6,1.8-19.3,1.7-28.9c0-18-2.6-32.7-10.5-49c-3.7-7.7-8.5-14.8-14.3-21c-1.7,0.4-3.6-0.1-5.4-0.3c-0.9-0.1-1.8-0.2-2.7-0.3
	c0.9,0.6,1.8,1.2,2.7,1.8l1.2,0.8c3.6,2.6,8.3,5.6,7.3,10.6c-0.3,1.4-1.6,2.6-2.9,2.9c-4.8,1.1-8.1-3.5-11.3-6.3
	c-2.8-2.4-5.7-4.5-8.7-6.7c-0.7-0.5-1.4-1-2.1-1.5c0.6,0.8,1.3,1.5,1.9,2.3l0.9,1.2c2.8,3.5,6.9,8.2,4,12.8
	c-0.6,0.9-1.7,1.6-2.8,1.6c-5.4,0.3-7.4-5.5-9.8-9.2c-2.5-3.9-5.3-7.4-8.2-11.1c0,0,0,0,0,0c-10.3,0.5-20.7,1.9-30.8,4.1
	c-7,1.5-13.8,3.4-20.6,5.6l-0.6,0.2c-3.7,1.2-7.5,2.7-10.1,5.3c-0.4,1.8-0.1,3.7,0.3,5.5l0.3,1.4c1.2,5.7,2,11.3,1.4,17.2
	c-0.6,6.1-2.4,11.5-4.7,17.1c-1.1,2.7-2.1,2.2-2.5,5c-0.3,2.2-0.1,4.4,0.1,6.6l0.2,1.9c0.4,4.9,0.6,10.2-2.6,14.2
	c-0.5,0.6-1.6,0.4-1.9-0.2c-0.1-0.2-0.3-0.5-0.4-0.7c-1.5-2.2-3.9-3.5-6.6-4c-0.3-0.1-0.2-0.5,0.1-0.6c2.3-0.3,4.4,0.3,6.3,1.5
	c-0.9-3-7.6-1.5-9.8-1l-0.1,0c-2.8,0.7-5.4,1.9-7.7,3.6c-4.6,3.4-7.3,8.8-7.2,14.5c0.1,5.6,3,10.9,8.1,13.6c2.4,1.3,5.2,1.9,7.9,1.9
	c2.9,0,5.4-1.3,8.3-1.1c1.7,0.1,2.9,1.9,2,3.4c-0.6,1-1.5,1.8-2.4,2.5c2.3,5.4,5.3,10.6,8.8,15.3c1.9,2.6,4.1,5.1,6.5,7.3
	c1.1,1.1,3.1,2.2,4.4,3.7C164.7,230.1,167.9,225,174.3,223.9z M262.1,170.4c0,3-2.1,9.1-6,9.1c-4,0-4.7-6.7-4.5-9.5l0-0.4
	c0.3-4.6,1.9-8.9,4.5-8.9c4.2,0,6,6.7,6,9.7L262.1,170.4z M250.8,145.7c2.4-1.5,5.4-2.1,8.2-1.9c5.5,0.4,14.8,5.1,13.5,11.9
	c-0.4,2.1-3.3,3.2-5,2c-1.8-1.2-2.3-3.2-3.6-4.8c-1.1-1.3-2.5-2.2-3.9-3c-1.5-0.8-3.1-1.3-4.8-1.4l-0.3,0c-1-0.1-6-0.1-5.3,1.8
	c0.1,0.4-0.4,0.7-0.7,0.4C247.5,148.9,249.2,146.7,250.8,145.7z M230.3,190.5c3.1,2.4,9.5,7.7,13.9,3.1c3.8-5.3-1.6-10.2-5.1-12.3
	c-0.9-0.7-0.2-2.8,1.8-2.5c17.7,3,8.5,33.6-14.1,16.8C224.1,193.4,227.4,188.6,230.3,190.5z M244.6,190.3v-0.1l0.2-0.1
	c0.2-0.1,0.3-0.1,0.2,0l-0.1,0l-0.2,0.1C244.6,190.2,244.6,190.2,244.6,190.3z M206.8,180.4c-3.9,0-5.9-6.1-6-9.1l0-0.1
	c0-2.9,1.7-9.7,6-9.7c2.6,0,4.3,4.6,4.5,9.3l0,0.2C211.5,174,210.6,180.4,206.8,180.4z M189,156.2c0.6-3.5,2.3-6.8,4.7-9.5
	c2.5-2.8,5.8-4.7,9.5-5.2c3.5-0.5,8,0.5,9.7,4c0.7,1.6-0.1,3.3-1.9,3.4c-4.4,0.2-8.3-0.8-12.2,2.1c-1.7,1.2-3,2.9-4.2,4.6l-0.4,0.6
	l-0.4,0.5c-0.8,1.2-1.5,2.4-1.4,3.8c0,0.4-0.4,0.8-0.8,0.8C188.9,161.3,188.6,158.1,189,156.2z M145.6,194.6c-0.4,0.5-1,0.6-1.7,0.7
	c-0.7,0.1-1.7-0.5-2-1.2c-2.3-4.7-6.5-7.6-11.3-9.4c-0.1,0-0.1-0.2,0-0.2c6.1-0.9,11.7,2.5,15.3,7.3
	C146.7,192.6,146.2,193.8,145.6,194.6z"/>
<path class="st1" d="M162.1,240.9c0.1,0,0.1,0.1,0.2,0.1c0.1-0.1,0.1-0.2,0.2-0.3C162.4,240.8,162.3,240.9,162.1,240.9z"/>
<path class="st1" d="M208.3,232.9c5.2,5.1,13.2,5.5,20,4.6c0.2,0,0.5-0.1,0.7-0.1c-0.6-1.3-1.2-2.6-2-3.8c-0.4-0.6-0.8-1.1-1.2-1.6
	c0,0-0.1,0.1-0.1,0.1c0-0.1-0.1-0.2-0.1-0.3c-0.8-0.9-1.7-1.7-2.6-2.5C217.8,227.8,207.2,231.8,208.3,232.9z"/>
<path class="st1" d="M185.2,251.4c-3.6-2.8,1.2-9,4.9-6.4c12.6,8.8,28.4,12.6,43.3,9.2c-0.8-3.5-1.4-7.1-2.2-10.6
	c-2.1,0.3-4.2,0.6-6.3,0.7c-8.2,0.4-17.4-1.9-22.8-8.5c-3.1-3.8-4.6-8.8-4.1-13.5c-8.6-0.3-17.3,0.6-23.6,1.6
	c-6.5,1.1-9.6,6.2-11.6,11.9c1,1.1,1.5,2.2,1.1,3.6c-0.1,0.2-0.2,0.4-0.3,0.6c1-0.4,2.4-0.3,3.1,0.6c0.8,0.9,1,2.2,0.9,3.6
	c6,3.4,12.4,6.2,19,8.2C186.1,252.1,185.6,251.8,185.2,251.4z"/>
<path class="st1" d="M166.6,240.6c-0.7-0.8-2.1-1-3.1-0.6c-0.1,0.1-0.1,0.2-0.2,0.3c-0.2,0.2-0.5,0.3-0.7,0.5
	c-0.1,0.1-0.1,0.2-0.2,0.3c1.7,1.1,3.5,2.2,5.2,3.2C167.6,242.8,167.4,241.5,166.6,240.6z"/>
<path d="M278,148c3.8,29.9,6,63-12.6,88c-2.8,3.3-13,14.6-31.9,19.1c0.1,0.4,0.2,0.9,0.3,1.3c0.1,0.2,0.1,0.5,0.2,0.7
	c0.6-0.1,1.2,0,2,0.5c0.9,0.5,1.4,1.9,1.6,3.5c15.1-4.6,28.7-15.7,35.8-29.8c4.7-9.3,6.3-19.6,7.2-29.9c0.8-9,1.1-18.1,1-27.2l0-2.7
	c-0.1-18.9-2.3-35.2-9.8-52.8c-3.4-7.9-7.8-15.6-13.3-22.3c5,8.5,13.1,23.5,15.2,32.4C278.7,149.2,275.4,127.1,278,148z"/>
<path d="M255.1,90.9c0.7,1,1.9,2.9,3.4,5.5c1.1,0.7,2.1,1.4,3.1,2.1c3.7,2.8,6.4,8,11.3,8.5c1.9,0.2,3.8-1.5,4.3-3.3
	c1.4-5.6-4.7-10.2-8.7-13.2l-0.7-0.5c-1.5-1.1-3.1-2.1-4.7-3c1.9,0.4,3.8,0.9,5.6,1.4c1.8,0.6,3.5,1.2,5.1,2.1
	c2.3,1.2,4.5,2.8,7.2,2.6c2.9-0.2,5.3-2.8,4.4-5.8c-1.4-4.9-7.7-7.2-12.3-8.6l-0.7-0.2c-2.4-0.7-4.8-1.2-7.3-1.6
	c1.2,0.2,2.4,0.3,3.6,0.5c2.3,0.4,4.7,0.8,7,1.2c2.4,0.5,5.1,1.5,7.5,1.2c5-0.6,7.2-6.6,2.6-9.7c-2.1-1.4-4.8-1.7-7.2-2.2l-1-0.2
	c-2-0.4-4-0.7-6-1c-2.9-0.4-5.8-0.8-8.7-1.1c3,0,4.8-0.5,6.5-3.1c0.9-1.3,0.8-3.5,0-4.8c-2.6-4-7.6-3.3-11.8-2.9l-1.2,0.1
	c-3.5,0.3-7,0.9-10.4,1.7c-0.7,0.2-1.3,0.3-2,0.5c5.5,1.3,11.3,2.6,15.7,6.3C269.8,71.8,251.8,80.3,255.1,90.9z"/>
<path d="M162.1,240.9c-0.3-0.2-0.6-0.4-0.9-0.6c-0.1,0.2-0.1,0.4-0.2,0.7C161.5,241,161.8,241,162.1,240.9z"/>
<path d="M234,257.1c-0.1-0.2-0.1-0.5-0.2-0.7c-0.1-0.4-0.2-0.9-0.3-1.3c-3.7,0.9-7.8,1.5-12.3,1.7c-11.7,0.6-23.5-0.9-34.7-4.4
	c12.7,9.2,29.1,12.9,44.5,10.2c0.1-0.8,0.3-1.6,0.5-2.4C232.1,258.7,232.8,257.3,234,257.1z"/>
<path d="M236,257.5c-0.8-0.5-1.4-0.6-2-0.5c0.4,1.6,0.8,3.1,1.2,4.7c0.4-0.1,0.7-0.2,1.1-0.3c0.4-0.1,0.9-0.3,1.3-0.4
	C237.4,259.5,236.9,258.1,236,257.5z"/>
<path d="M231.6,260.2c-0.2,0.8-0.4,1.6-0.5,2.4c1.4-0.2,2.8-0.5,4.1-0.9c-0.4-1.5-0.8-3.1-1.2-4.7
	C232.8,257.3,232.1,258.7,231.6,260.2z"/>
<path d="M130.7,184.5c-0.1,0-0.1,0.2,0,0.2c4.8,1.8,9,4.8,11.3,9.4c0.3,0.7,1.3,1.3,2,1.2c0.7-0.1,1.2-0.1,1.7-0.7
	c0.6-0.7,1-2,0.4-2.8C142.4,186.9,136.8,183.5,130.7,184.5z"/>
<path d="M278,148c-2.6-20.8,0.7,1.2-4.2-19.2c-2.1-8.8-10.2-23.9-15.2-32.4c0-0.1-0.1-0.1-0.1-0.2c0,0,0,0,0.1,0
	c-1.5-2.5-2.7-4.5-3.4-5.5c-3.3-10.6,14.8-19,4.9-27.3c-4.4-3.7-10.2-5-15.7-6.3c-0.1,0-0.1,0-0.2,0c-0.6-0.1-1.1-0.3-1.7-0.4
	c1.8-0.7,3.6-1.3,5.5-1.9c1.7-0.5,3.5-0.8,5.2-1.3c2.5-0.7,3.9-2.2,4.8-4.6c0.4-1.1,0-2.7-0.9-3.4c-2.3-2-4.5-2.4-7.3-1.4
	c-1.8,0.7-3.6,1.5-5.4,2.3c-3.1,1.4-6.2,3.1-9.1,4.9c3.4-3.2,8.6-7,5.5-12.2c-1.5-2.4-4.4-3-6.9-1.8c-1.9,1-2.6,3-4.1,4.3
	c-1.6,1.4-3.1,2.6-4.5,4.2c-0.1,0.1-0.2,0.2-0.3,0.4c-0.2-0.1-0.4-0.1-0.6-0.1c1.2-1.9,2.4-3.8,3.8-5.6c1.7-2.4,0.4-6.1-2-7.5
	c-2.7-1.6-5.9-0.5-7.5,2c-1.4,2.2-2.8,4.3-4,6.6c-0.5,0-0.9,0.1-1.4,0.3c-0.3,0.1-0.6,0.2-0.8,0.3l0.9-2.1l0.1-0.1
	c1.1-0.6,2.1-1.6,2.3-2.9c0.5-2.7-0.3-5.2-2.8-6.6c-2.3-1.3-5.6-1-7.4,0.9c-1.5,1.5-2,3.9-2.7,5.8c-0.7,1.8-1.4,3.6-2.1,5.3
	c-0.7-0.1-1.3-0.2-2-0.1c0.4-1.4,0.9-2.8,1.4-4.1c0.4-0.7,0.6-1.5,0.8-2.3l0.1-0.2l0,0l0,0c0.1-0.5,0.2-0.9,0.2-1.4
	c0.3-2.7-2.3-5.1-4.7-5.4c-2.7-0.3-5.1,1.3-6,3.9c-0.1,0.5-0.3,0.9-0.4,1.4c-1.2,3.8-2.2,7.7-2.9,11.6c0.1-1.2,0.2-2.4,0.3-3.5
	c0.4-2.7,1.5-5.4,1.4-8.1c-0.1-5.2-7.1-7.1-9.8-2.6c-1.6,2.6-1.9,6.1-2.2,9.1l-0.1,1.3c0,0.4-0.1,0.8-0.1,1.1
	c-0.4,0-0.7,0.1-1.1,0.2c-0.6-2-1.1-4-1.5-6c-0.6-2.9-4-4.6-6.7-3.8c-3,0.8-4.4,3.8-3.8,6.7c0.7,3.1,1.4,6.1,2.4,9.1
	c-0.2,0.2-0.4,0.4-0.5,0.6c-0.7-1.3-1.4-2.5-2-3.8c-1.2-2.2-2.2-4.7-4-6.5c-3.9-3.7-9.4-0.1-8.8,4.8c-1.2-1.4-3.2-2.2-4.9-2
	c-3.4,0.5-4.8,3.5-4.4,6.6c0.3,2.1,1.4,4.2,2.2,6.1l0.2,0.4l0.2,0.4l0,0l-0.2-0.5c-0.6-1.3-1.3-2.6-2-3.9c-3-5.5-10.9-1.6-9.9,3.7
	c-1.5-1.3-4-1.7-5.7-0.9c-2.9,1.2-3.7,4.1-2.8,6.8c-0.4-0.4-0.9-0.8-1.2-1c-2.6-1.6-5.5-0.3-7.2,1.9c-0.8,1.1-1.1,2.3-1,3.5
	c-1.5-0.7-3.3-0.8-4.9,0.1c-2.1,1.2-3,3.7-2.4,6c0.5,1.8,1.6,3.6,2.9,5.1c-1.3-1.1-2.6-2-4-2.9c-1.6-1-3.8-0.9-5.4,0
	c-1.8,1.1-2.5,2.6-2.6,4.6c-0.1,1.9,1.1,3.7,2.6,4.6c0.1,0,0.1,0.1,0.2,0.1c-2-0.5-4-0.7-5.8-0.2c-4.3,1.1-4.8,7-1.2,9.2
	c0.8,0.5,1.6,0.8,2.5,1c-0.3,0-0.6,0-0.9,0c-1.8,0-3.7,1-4.6,2.6c-0.1,0.2-0.2,0.3-0.3,0.5c-0.9,1.7-0.8,4.3,0.7,5.6l0.4,0.3
	c0.4,0.4,0.9,0.7,1.5,1c-0.9,0.8-1.6,1.8-2,3.1c-0.6,1.8,0.4,4.2,2,5c2.6,1.3,5.2,0.7,7.8-0.1c-0.4,3.4,0.1,7,0.6,10.3l0.2,1.5
	c0.9,5.8,2.3,11.4,4,17c1.8,5.8,4,8.2,6.6,13.6l0.1,0.2c1,2.2,2.8,5.7,4,7.8l0.2,0.3c1.5,2.6,2.9,5.5,5,7.7c0.4,0.4,0.8,0.7,1.2,1
	c-2,1.5-3.8,3.3-5.3,5.4c-7.4,10.9-3.4,27.3,8.8,32.8c3.9,1.8,10.2,3.1,14.9,1.7c0.9,6.1,3,11.8,6.5,17c2,2.9,4.2,5.6,6.7,8.1
	l0.2,0.2c1.7,1.7,4.6,5,7.2,5.2c0.1-0.2,0.1-0.4,0.2-0.7c0.4-1.5,0.9-3.1,1.4-4.6c-1.3-1.4-3.3-2.6-4.4-3.7
	c-2.4-2.2-4.5-4.7-6.5-7.3c-3.4-4.8-6.4-9.9-8.8-15.3c1-0.6,1.8-1.4,2.4-2.5c1-1.5-0.3-3.3-2-3.4c-2.9-0.2-5.4,1.1-8.3,1.1
	c-2.7,0-5.5-0.6-7.9-1.9c-5-2.7-7.9-7.9-8.1-13.6c-0.1-5.7,2.5-11.1,7.2-14.5c2.3-1.7,4.9-2.9,7.7-3.6l0.1,0c2.2-0.6,8.9-2,9.8,1
	c-1.8-1.2-4-1.7-6.3-1.5c-0.3,0-0.4,0.5-0.1,0.6c2.7,0.5,5,1.8,6.6,4c0.2,0.2,0.3,0.5,0.4,0.7c0.4,0.6,1.4,0.9,1.9,0.2
	c3.2-4,3-9.3,2.6-14.2L149,160c-0.2-2.2-0.4-4.4-0.1-6.6c0.4-2.8,1.5-2.4,2.5-5c2.2-5.6,4.1-11.1,4.7-17.1
	c0.6-5.9-0.2-11.5-1.4-17.2l-0.3-1.4c-0.4-1.8-0.7-3.7-0.3-5.5c2.7-2.6,6.4-4.1,10.1-5.3l0.6-0.2c6.8-2.1,13.6-4.1,20.6-5.6
	c10.1-2.2,20.4-3.6,30.8-4.1c0,0,0,0,0,0c2.9,3.6,5.7,7.2,8.2,11.1c2.4,3.7,4.4,9.6,9.8,9.2c1.1-0.1,2.2-0.7,2.8-1.6
	c2.9-4.6-1.2-9.2-4-12.8l-0.9-1.2c-0.6-0.8-1.2-1.5-1.9-2.3c0.7,0.5,1.4,1,2.1,1.5c3,2.1,5.9,4.3,8.7,6.7c3.2,2.8,6.5,7.4,11.3,6.3
	c1.3-0.3,2.7-1.6,2.9-2.9c0.9-5-3.7-8-7.3-10.6l-1.2-0.8c-0.9-0.6-1.8-1.3-2.7-1.8c0.9,0.1,1.8,0.2,2.7,0.3c1.8,0.2,3.6,0.7,5.4,0.3
	c5.8,6.2,10.6,13.3,14.3,21c7.9,16.3,10.5,31.1,10.5,49c0,9.7-0.6,19.3-1.7,28.9l-0.1,0.6c-1,9.2-1.9,18.6-4.8,27.4
	c-4.6,13.9-15.5,25.9-29,31.5c-2.6,1.1-5.2,1.9-7.9,2.5c0.1,0.3,0.1,0.6,0.2,0.9c18.9-4.5,29.1-15.8,31.9-19.1
	C284,210.9,281.8,177.8,278,148z M121.9,98.3c-2.3,0.4-4.5,0.8-6.8,1.2c-1.1,0.2-1.8-0.8-1.7-1.6c0-0.3,0.1-0.5,0.3-0.7
	c0.2-0.2,0.4-0.3,0.7-0.4c2.3-0.4,4.5-0.8,6.8-1.2C123,95.4,123.7,98,121.9,98.3z M126.8,81.6l-6-2.4c-1.6-0.7-0.9-3.3,0.7-2.7
	l6,2.4C129.2,79.5,128.5,82.2,126.8,81.6z M139.3,100.8l-0.2,0.2c-0.8,0.9-1.5,2.1-2,3.2l-0.4,0.7c-0.8,1.6-3.2,0.2-2.4-1.4
	c0.8-1.7,1.7-3.3,3-4.7C138.6,97.5,140.6,99.5,139.3,100.8z M232.7,85.4c-2.2-1.1-4.5-1.9-6.9-2.7c-1.7-0.6-1-3.2,0.7-2.7
	c2.6,0.9,5.1,1.7,7.5,2.9C235.7,83.8,234.3,86.2,232.7,85.4z M248.7,74l-0.2-0.1c-0.8-0.7-1.9-1.1-2.7-1.6c-1.5-1-0.1-3.4,1.4-2.4
	l0.2,0.1c1.1,0.7,2.3,1.2,3.3,2.1C252,73.3,250,75.2,248.7,74z"/>
<path d="M190.1,245.1c-3.7-2.6-8.5,3.5-4.9,6.4c0.5,0.4,1,0.7,1.4,1c11.2,3.5,22.9,5,34.7,4.4c4.4-0.2,8.5-0.9,12.3-1.7
	c-0.1-0.3-0.1-0.6-0.2-0.9C218.4,257.6,202.7,253.9,190.1,245.1z"/>
<path d="M163.2,240.2c0.1-0.1,0.2-0.1,0.3-0.1c0.1-0.2,0.3-0.4,0.3-0.6c0.4-1.4-0.2-2.6-1.1-3.6c-0.5,1.5-1,3-1.4,4.6
	c0.3,0.2,0.6,0.4,0.9,0.6c0.1,0,0.2-0.1,0.4-0.1C162.7,240.5,163,240.3,163.2,240.2z"/>
<path d="M162.5,240.8c0.3-0.1,0.5-0.3,0.7-0.5c0.1-0.1,0.2-0.2,0.2-0.3c-0.1,0-0.2,0.1-0.3,0.1C163,240.3,162.7,240.5,162.5,240.8z"
	/>
<path d="M241,241.5c3.9-1,10.7-2.6,10.7-7.7c0-1.1-0.9-1.8-1.9-1.9c-1.4-0.1-2.5,0.3-3.7,0.8l-0.3,0.2l-0.5,0.2l-0.2,0.1
	c0.1-0.5,0-1-0.1-1.6l-0.1-0.5c-0.7-2.7-0.8-5.6-1.2-8.4c-0.2-1.4-0.4-2.8-0.6-4.3c-0.1-0.6-0.2-1.3-0.3-1.9c0-0.2-0.1-0.5-0.1-0.8
	c3.8-0.4,8.2-1,11.5-3c0.3-0.2,0.2-0.7-0.2-0.7c-2.4-0.1-4.8,0.4-7.1,0.4c-2.4,0-4.8,0-7.3-0.4c-5.1-0.7-10.1-2.4-15.1-3.5
	c-7.9-1.6-17.4-1.2-23.1,5.4c-2.1,2.4-3.2,5.3-3.5,8.3c9.5,0.4,18.9,2.2,25.2,7.1c1.3,0.4,2.3,1.2,2.6,2.5c0,0.1,0.1,0.1,0.2,0.2
	c2.8-4.7,12-4.2,12.8,3.3c-3.2,0.8-6.4,1.5-9.6,2c0.9,2,1.5,4.1,2,6.3c3-0.5,5.9-1.1,8.8-1.8L241,241.5z M238.7,219.4
	c-0.9-0.2-5.7,0.1-6.4,0.2l-2,0.2l-2,0.2c-2.9,0.3-5.7,0.6-8.6,0.8l-1.2,0.1c-4.6,0.4-9.1,0.9-13.7,1.6c0.4-1.9,1.4-3.7,3.1-5.1
	c4.8-3.7,11.4-3.3,17.2-2.6l0.9,0.1l2.4,0.3l0.6,0.1c3.4,0.5,6.8,0.7,10.2,0.6C238.9,216.8,238.8,218.6,238.7,219.4z"/>
<path d="M249.7,150.3c-0.7-1.9,4.3-1.9,5.3-1.8l0.3,0c1.6,0.2,3.3,0.7,4.8,1.4c1.5,0.8,2.9,1.7,3.9,3c1.4,1.6,1.8,3.5,3.6,4.8
	c1.7,1.2,4.6,0.1,5-2c1.2-6.7-8-11.4-13.5-11.9c-2.8-0.2-5.8,0.4-8.2,1.9c-1.5,1-3.3,3.2-1.7,4.9
	C249.3,150.9,249.8,150.6,249.7,150.3z"/>
<path d="M256.1,160.6c-2.6,0-4.2,4.4-4.5,8.9l0,0.4c-0.2,2.8,0.6,9.5,4.5,9.5c3.9,0,5.9-6.1,6-9.1l0-0.1
	C262.1,167.4,260.3,160.6,256.1,160.6z"/>
<path d="M191.4,161.4c0.4,0,0.8-0.4,0.8-0.8c-0.1-1.4,0.6-2.7,1.4-3.8l0.4-0.5l0.4-0.6c1.2-1.7,2.6-3.4,4.2-4.6
	c3.8-2.8,7.8-1.9,12.2-2.1c1.8-0.1,2.7-1.8,1.9-3.4c-1.6-3.5-6.2-4.5-9.7-4c-3.7,0.6-7,2.4-9.5,5.2c-2.4,2.7-4.1,6-4.7,9.5
	C188.6,158.1,188.9,161.3,191.4,161.4z"/>
<path d="M244.9,190.1c0.1-0.1,0-0.1-0.2,0l-0.2,0.1v0.1c0,0,0.1,0,0.1-0.1L244.9,190.1L244.9,190.1z"/>
<path d="M211.3,170.9c-0.3-4.7-1.9-9.3-4.5-9.3c-4.2,0-6,6.7-6,9.7l0,0.1c0,3,2.1,9.1,6,9.1c3.9,0,4.7-6.4,4.5-9.4L211.3,170.9z"/>
<path d="M226.8,195.6c22.7,16.8,31.8-13.8,14.1-16.8c-2-0.3-2.7,1.8-1.8,2.5c3.5,2.1,8.8,7.1,5.1,12.3c-4.4,4.6-10.8-0.7-13.9-3.1
	C227.4,188.6,224.1,193.4,226.8,195.6z"/>
<path d="M228.3,237.5c-6.8,0.9-14.8,0.5-20-4.6c-1.1-1.1,9.6-5.1,14.8-3.5c-6.2-4.9-15.7-6.7-25.2-7.1c-0.5,4.7,1,9.7,4.1,13.5
	c5.4,6.7,14.6,8.9,22.8,8.5c2.1-0.1,4.2-0.4,6.3-0.7c-0.5-2.2-1.2-4.3-2-6.3C228.8,237.4,228.6,237.4,228.3,237.5z"/>
<path d="M225.8,232c0-0.1-0.1-0.1-0.2-0.2c0,0.1,0.1,0.2,0.1,0.3C225.8,232.1,225.8,232,225.8,232z"/>
</svg>
