<?xml version="1.0" encoding="utf-8"?>
<!-- Generator: Adobe Illustrator 24.0.2, SVG Export Plug-In . SVG Version: 6.00 Build 0)  -->
<svg version="1.1" id="Layer_1" xmlns="http://www.w3.org/2000/svg" xmlns:xlink="http://www.w3.org/1999/xlink" x="0px" y="0px"
	 viewBox="0 0 1366 768" style="enable-background:new 0 0 1366 768;" xml:space="preserve">
<style type="text/css">
	.st0{fill:#257372;}
	.st1{fill:#4E1ED3;}
	.st2{font-family:'Montserrat-ExtraBold';}
	.st3{font-size:76px;}
	.st4{font-size:42.4602px;}
	.st5{fill:none;stroke:#22B573;stroke-width:3;stroke-miterlimit:10;}
	.st6{fill:#22B573;}
</style>
<path class="st0" d="M916,543.1c0.1-0.1,0.2-0.2,0.3-0.3c0.3,0.3,0.2,0.4-0.2,0.1C916,543,916,543.1,916,543.1z"/>
<g>
	<path class="st1" d="M839.5,236.4c-4.2-1-8.5-1.8-12.6-3c-5.8-1.8-10.5-5.1-12.9-10.9c-1.1-2.7-2.9-4.9-4.9-7
		c-5.8-6-11-12.5-16.3-19c-2.7-3.4-5.4-6.8-6.9-11.1c-1.5,1.1-1.7,2.8-2.5,4.2c-1.2,2.2-2.8,3.7-5.1,4.9c-5,2.4-8.7,6.3-10.7,11.6
		c-1.3,3.6-3.4,6.5-6.4,8.7c-6.8,5.2-15,8.3-20.7,15c0.4-3.7,2.2-6.5,4.2-9.2c0.7-0.9,1.7-2.1,1-3c-0.9-1.2-2.3-0.2-3.5,0.1
		c-0.7,0.2-1.5,0.7-2,1.2c-1.8,1.7-3.2,2.6-5.2,0c-1.7-2.1-4.1-0.9-5.9,0.3c-10.4,6.7-22.4,7.3-34.1,9.2c-0.2,0-0.4-0.1-1.4-0.3
		c5-2.9,8.2-7,11.7-10.7c2.8-2.9,6.7-3.9,10.5-4.7c2.7-0.6,5.4-1.2,8.1-1.3c4.3,0,6.8-1.9,7.9-6c0.2-0.7,0.6-1.2,0.8-1.9
		c1.4-5.3,4.5-8.1,10.2-8.2c3.2-0.1,6.1-1.7,8.7-3.8c8.7-7.2,17.3-14.6,23.9-24c1.1-1.6,2.6-2.9,4.1-4.1c3.3-2.7,3.5-2.6,5.8,0.8
		c0.7,1.1,1.8,1.7,3,2.2c3.2,1.2,5.4,3.2,6,6.8c0.3,1.8,1.3,3.1,2.8,4.1c3.7,2.4,6.9,5.3,9.3,9c1,1.5,2.1,1.4,3.5,1
		c4.6-1.1,8.9-3,12.9-5.4c8.7-5.3,16.8-11.4,24.1-18.6c3.3-3.3,6.3-6.9,8.3-11.3c1.6-3.4,4.1-6.1,7.4-7.8c2-1,3.2-2.4,4-4.5
		c1.8-4.6,5.1-8,9.4-10.5c6.7-3.8,13.1-7.9,18.9-12.9c1.4-1.2,2.4-1.8,3.1,0.5c1.3,4.2,4.2,7.2,7.2,10.2c4.1,4,8.2,7.9,11.4,12.7
		c2.2,3.2,5.3,5.6,8.7,7.7c2.8,1.7,5.4,3.6,6.3,7.3c0.6,2.4,2.6,4.3,4.9,5.5c8,4.3,16.1,8.5,25,11c8.9,2.5,16.1,8.1,22.3,14.8
		c7.3,7.9,14.4,16,18.9,26c1.7,3.7,4.6,6.5,8,8.7c1.9,1.2,3.9,2.5,5.9,3.4c8,3.4,14.9,8.3,20.3,15.5c-3.4,0.7-7,0.6-10.3,0.1
		c-11-1.6-21.2-5-28.2-14.4c-6-8.1-12.9-15.1-21.6-20.3c-2.5-1.5-4.3-3.6-5.9-6.1c-2.4-3.7-6.4-5.8-10-8.2c-1.2-0.8-1.7-0.1-1.8,1
		c-0.3,3.6-0.3,7.1,2.1,10.1c5,6.2,9.4,13,16.4,17.4c0.4,0.2,0.8,0.5,0.6,1.4c-6.8-0.9-13.9-0.5-18.9-6.6c-1.9-2.3-4.2-4.2-6.3-6.3
		c-4.1-4-7.6-8.3-10.4-13.5c-4.5-8.6-10.3-16-20-19.8c-4.6-1.8-7.7-5.9-9.2-10.9c-1.6-5.4-4.5-10.2-7.6-14.9c-0.7-1-1.6-2.6-2.8-2.3
		c-1.5,0.3-0.7,2.1-0.8,3.3c-0.3,3.3-0.3,6.6-0.6,9.9c-0.3,3.3-1.1,6.3-4.2,8.2c-2,1.2-2.1,3.5-2.1,5.5c-0.1,4,0,8.1-3.9,10.7
		c-0.6,0.4-0.8,1.2-0.6,1.9c1.1,3.4-0.7,5.9-2.6,8.5c-5.3,7.2-10.5,14.4-15.8,21.6c-2.2,3-4.6,5.9-5.5,9.8c-0.3,1.3-1.2,2.4-3.1,3.6
		c0.3-5.5,0-10.6,2.3-15.3c1.3-2.7,2.7-5.3,4.5-7.7c5.9-7.8,8.5-16.7,8.4-26.3c0-6.6,1.4-12.4,5.4-17.6c3.6-4.7,4-10.6,5.2-16.2
		c0-0.3,0.2-0.8,0-0.9c-0.4-0.3-0.5,0.1-0.6,0.4c-2.7,3.5-5.6,6.5-10.4,7.2c-2.2,0.3-3.5,2.4-4.7,4.3c-2.8,4.4-4.6,9.2-5.8,14.2
		c-2.4,10-8.3,16.5-18,19.7c-0.9,0.3-2.1,1.4-2.8,0.5c-0.8-0.9-0.1-2.2,0.5-3.1c2.2-3.4,3.1-7.6,6.7-10.2c1.3-0.9,3.2-2.7,2.3-4.2
		c-1.1-1.7-3.3-0.2-5,0.1c-2.3,0.5-3.9,2.2-5.1,4.3c-3.7,6.6-8.7,12.1-15.6,15.5c-4.2,2-8.7,3.3-13.2,4.6c-3.2,0.9-3.5,2.3-2.1,5
		c1.4,2.7,2.5,5.6,3.7,8.5c2,5,5.1,9.2,9.2,12.6c3.2,2.7,6.2,5.8,8.9,9c0.7,0.8,1.9,1.4,1.6,2.8L839.5,236.4z"/>
	<text transform="matrix(1 0 0 1 703.8647 286.8369)"><tspan x="0" y="0" class="st2 st3">summit</tspan><tspan x="310.8" y="0" class="st2 st4"> </tspan><tspan x="0" y="51" class="st2 st4">climbing club</tspan></text>
	<path class="st5" d="M687,224c3.5-4.1,9.1-9.5,16.9-13.1c6-2.8,9-4.1,12.9-4c2.4,0.1,4.8,0.6,7-1c1.1-0.8,1.4-1.7,3-5
		c2.2-4.7,3.3-7.1,4-8.1c2.3-3.2,5.2-5,7-6.1c3.1-1.9,3.7-1.4,7-3c1.7-0.8,7.3-3.6,10.9-9.1c2.9-4.3,1.8-6.1,5-9.1
		c1.8-1.7,2.4-1.4,6-4c3.8-2.9,3.5-3.6,6-5c1.1-0.6,4.7-2.7,9-2c1.6,0.3,3.1,1.2,6,3c4.7,2.9,7,4.4,9,7.1c2.4,3.2,1.6,4.5,4,7.1
		c2.7,2.9,6,3.8,7,4c7.1,1.9,13.5-2.4,15.9-4c3.5-2.3,5.5-4.9,8-8.1c5-6.4,3.9-7.8,8-13.1c4.3-5.7,10.1-10.3,14.9-14.1
		c1.3-1,3.7-2.8,6-6.1c1.9-2.7,1.6-3.3,3-5c2.4-3,4.7-3.1,10.9-6.1c2-0.9,5.6-2.7,9-5c2.7-1.9,5.9-4.7,9-9.1"/>
	<circle class="st6" cx="892" cy="105" r="5"/>
</g>
</svg>
